<?xml version="1.0" standalone="no"?>
<!DOCTYPE svg PUBLIC "-//W3C//DTD SVG 20010904//EN"
 "http://www.w3.org/TR/2001/REC-SVG-20010904/DTD/svg10.dtd">
<svg version="1.0" xmlns="http://www.w3.org/2000/svg"
 width="700.000000pt" height="700.000000pt" viewBox="0 0 700.000000 700.000000"
 preserveAspectRatio="xMidYMid meet">
<metadata>
Created by potrace 1.14, written by Peter Selinger 2001-2017
</metadata>
<g transform="translate(0.000000,700.000000) scale(0.100000,-0.100000)"
fill="#000000" stroke="none">
<path d="M1437 6364 c-407 -73 -758 -373 -895 -766 -72 -203 -66 -8 -70 -2273
-2 -1337 1 -2073 7 -2135 29 -264 132 -492 311 -683 142 -152 298 -253 486
-316 192 -64 62 -61 2324 -61 1812 0 2068 2 2146 15 518 91 915 511 974 1031
8 71 10 678 8 2144 -4 1927 -5 2049 -22 2120 -103 430 -388 751 -787 884 -175
59 -63 56 -2328 55 -1745 -1 -2089 -3 -2154 -15z m4353 -51 c211 -53 379 -142
532 -282 144 -133 270 -343 326 -547 l27 -99 0 -2130 0 -2130 -28 -100 c-124
-441 -468 -755 -917 -836 -111 -21 -4149 -21 -4260 0 -489 89 -856 457 -935
939 -14 87 -16 307 -13 2177 l3 2080 28 100 c66 236 203 450 377 590 176 143
375 229 590 255 36 4 992 7 2125 6 l2060 -2 85 -21z"/>
<path d="M4304 5513 l-41 -4 -36 -212 c-19 -117 -38 -219 -42 -228 -5 -14 9
-17 97 -24 170 -12 189 -13 298 -19 58 -2 217 -12 354 -21 159 -10 252 -13
258 -7 12 12 -33 19 -172 27 -58 3 -131 8 -162 11 l-58 6 -11 41 c-6 23 -9 87
-7 142 3 81 8 108 25 138 l22 37 -42 28 c-106 73 -281 103 -483 85z m134 -313
c15 -17 62 -116 62 -130 0 -6 -15 -10 -33 -10 -32 0 -35 3 -60 65 -45 109 -30
145 31 75z m-101 -127 c-20 -2 -52 -2 -70 0 -17 2 0 4 38 4 39 0 53 -2 32 -4z"/>
<path d="M4090 5481 c-71 -22 -180 -92 -180 -116 0 -8 33 -51 73 -95 l72 -81
9 33 c5 18 24 80 43 137 24 75 30 107 22 112 -8 5 -5 9 7 12 18 4 18 5 -1 5
-11 0 -31 -3 -45 -7z m-90 -64 c0 -2 -10 -12 -22 -23 l-23 -19 19 23 c18 21
26 27 26 19z"/>
<path d="M3160 5132 c-6 -2 -10 -15 -10 -29 0 -13 -39 -141 -87 -284 -73 -219
-89 -259 -106 -259 -28 0 -126 -30 -132 -40 -3 -5 6 -68 20 -139 24 -118 25
-133 12 -176 l-13 -47 -55 96 c-30 53 -64 109 -75 124 -20 24 -24 25 -47 13
-13 -7 -52 -36 -86 -63 l-61 -50 0 -67 c1 -36 12 -120 24 -186 13 -66 23 -121
21 -123 -2 -3 -132 219 -197 337 -10 19 -25 31 -37 31 -19 0 -151 -98 -179
-133 -12 -14 -8 -28 30 -99 46 -87 141 -237 191 -300 16 -21 27 -38 24 -38 -2
0 -31 12 -63 26 -71 31 -191 43 -248 24 -83 -27 -146 -112 -146 -198 0 -45 -3
-51 -27 -60 -79 -31 -314 -106 -432 -137 -74 -20 -153 -46 -175 -58 -39 -21
-41 -25 -44 -75 -4 -76 24 -275 46 -326 12 -25 29 -47 41 -51 27 -8 27 -12 46
-255 9 -113 24 -302 35 -420 31 -351 32 -370 16 -370 -8 0 -17 -16 -21 -37 -9
-47 -7 -248 3 -323 l7 -54 135 -27 c74 -15 227 -50 340 -77 113 -28 295 -69
405 -92 258 -53 1038 -239 1410 -335 160 -41 315 -79 345 -85 30 -5 67 -12 82
-15 22 -6 38 1 85 37 123 94 316 230 505 356 108 72 274 189 368 259 93 70
198 148 233 173 l62 45 3 149 c2 132 1 150 -15 162 -10 7 -26 14 -35 14 -22 0
-23 -51 7 470 14 239 25 447 25 462 0 15 7 33 15 42 11 10 15 37 15 98 0 46 3
114 7 152 l6 69 76 -7 c42 -4 87 -8 101 -9 22 -2 26 3 34 43 5 25 16 51 23 58
7 8 20 26 27 40 22 42 85 96 154 134 96 52 175 113 252 194 119 126 162 246
141 396 -11 83 -42 165 -65 174 -32 12 -34 -7 -8 -64 37 -82 43 -220 12 -311
-25 -75 -62 -135 -76 -122 -11 11 -260 91 -281 91 -8 0 -13 -5 -11 -11 2 -6
68 -32 148 -58 l143 -46 -49 -49 c-63 -64 -154 -130 -227 -168 -32 -16 -79
-48 -104 -71 l-46 -42 7 35 c4 19 27 125 51 235 49 222 85 418 79 424 -2 2
-14 -3 -26 -11 -13 -8 -77 -39 -143 -68 -66 -29 -125 -58 -132 -64 -6 -6 -41
-134 -77 -285 -36 -151 -68 -276 -69 -278 -5 -5 -619 77 -675 90 -48 12 -51
14 -39 31 12 17 25 16 276 -18 245 -33 264 -35 279 -19 21 21 114 393 98 393
-7 0 -33 -86 -60 -195 -45 -183 -49 -195 -70 -190 -11 2 -127 18 -256 36 -129
17 -236 32 -238 34 -2 2 18 40 44 84 45 78 48 81 78 76 94 -16 340 -44 344
-40 15 14 -27 24 -178 44 -91 11 -168 21 -173 21 -8 0 13 43 35 73 12 16 17
16 93 -8 44 -13 87 -25 95 -25 8 0 43 39 78 86 55 74 62 89 50 101 -30 30
-580 243 -627 243 -18 0 -34 -8 -43 -21 l-14 -21 -38 26 c-112 76 -387 103
-563 56 -32 -8 -33 -7 -43 28 -17 63 -19 64 -91 46 -64 -15 -64 -15 -122 11
-50 23 -61 34 -83 78 -15 29 -53 96 -86 149 -59 97 -98 188 -98 230 0 15 -3
19 -10 12 -13 -13 11 -108 44 -172 13 -26 49 -90 80 -141 54 -92 66 -121 47
-121 -4 0 -80 31 -167 70 -113 50 -160 66 -165 58 -5 -8 31 -29 114 -66 67
-30 123 -55 125 -57 1 -1 -21 -10 -50 -20 -73 -23 -139 -67 -198 -131 -46 -51
-50 -53 -54 -32 -18 86 -17 91 83 413 55 176 103 329 107 340 l7 20 -21 -20
c-13 -13 -50 -120 -108 -307 -49 -159 -91 -288 -94 -288 -4 0 -12 36 -19 79
-7 44 -19 92 -27 106 -13 25 -8 43 60 249 41 122 79 240 85 263 11 41 28 53
79 53 12 0 22 4 22 9 0 9 -100 19 -120 13z m-142 -649 c6 -27 22 -120 37 -207
l27 -159 -22 -66 c-29 -89 -36 -218 -17 -301 9 -36 15 -65 14 -65 -1 -1 -27
-19 -57 -41 l-55 -41 -24 56 c-34 79 -151 296 -178 329 -35 44 -43 19 -27 -88
15 -97 52 -254 77 -328 l14 -41 -85 -41 -86 -41 -23 28 c-138 167 -341 461
-402 580 l-31 62 70 56 c38 30 73 55 77 55 4 0 23 -28 42 -63 81 -151 237
-406 248 -407 22 0 21 14 -8 130 -15 63 -36 171 -45 239 l-18 124 35 29 c19
17 49 41 67 55 l33 26 17 -24 c31 -43 106 -175 167 -293 43 -83 65 -116 78
-116 15 0 17 5 13 28 -3 15 -15 83 -26 152 -11 69 -32 183 -46 254 -14 70 -22
132 -17 136 7 7 87 24 130 29 6 0 16 -20 21 -46z m588 -177 c51 -28 52 -28
110 -13 33 8 60 14 61 13 2 -1 6 -16 9 -33 6 -29 4 -30 -40 -43 l-46 -13 0
-108 c0 -59 4 -110 9 -113 4 -3 22 -1 39 4 l32 9 -6 -107 c-5 -90 -10 -117
-34 -167 -41 -84 -107 -155 -182 -195 -125 -67 -285 -49 -384 42 -163 151
-137 503 49 664 85 73 145 94 252 91 65 -3 90 -8 131 -31z m675 -81 c71 -18
136 -51 152 -76 8 -12 0 -30 -33 -76 -23 -34 -39 -66 -36 -72 4 -6 24 -14 45
-17 64 -10 68 -17 39 -62 -40 -59 -178 -142 -239 -142 -27 0 -34 -24 -16 -51
9 -12 52 -61 96 -109 l81 -88 -40 -58 c-22 -33 -43 -59 -48 -59 -11 0 -148
151 -225 246 -34 42 -66 75 -73 72 -7 -2 -16 -59 -24 -145 l-13 -140 -45 6
c-25 3 -61 6 -81 6 -59 0 -60 3 -44 120 7 58 20 182 27 275 15 188 12 204 -36
186 -14 -5 -28 -8 -29 -6 -2 2 -3 39 -1 83 l3 79 82 17 c45 10 105 21 132 26
71 13 248 5 326 -15z m504 -133 c44 -17 114 -44 155 -62 41 -17 94 -38 117
-47 24 -8 45 -18 47 -22 7 -10 -84 -131 -98 -131 -6 0 -46 12 -89 25 -43 14
-83 22 -88 19 -21 -13 -218 -343 -288 -482 -24 -48 -36 -62 -49 -58 -111 34
-149 47 -160 54 -10 7 5 35 60 118 73 107 161 248 231 371 26 45 33 64 24 71
-14 11 -91 36 -167 53 -30 7 -58 15 -62 19 -4 3 17 42 47 87 l55 82 92 -33
c51 -18 129 -47 173 -64z m-1887 -7 c-3 -20 -3 -20 -15 1 -7 11 -9 31 -6 44
l6 24 9 -24 c5 -13 7 -33 6 -45z m1680 -214 c-47 -85 -45 -83 -127 -75 l-72 7
49 46 c27 25 57 60 66 78 l16 31 50 -16 49 -16 -31 -55z m-1810 -2 c-3 -8 -7
-3 -11 10 -4 17 -3 21 5 13 5 -5 8 -16 6 -23z m60 -95 l23 -46 -33 7 c-18 4
-35 9 -37 11 -6 6 10 74 17 74 5 0 18 -21 30 -46z m1607 -3 c27 -6 20 -10 -68
-40 -94 -32 -99 -32 -118 -15 -10 9 -19 20 -19 24 0 3 21 14 48 22 50 17 107
20 157 9z m20 -108 c-32 -48 -59 -90 -61 -92 -3 -3 -29 19 -59 49 -30 30 -53
56 -51 58 7 6 221 80 224 77 2 -2 -22 -43 -53 -92z m-2108 33 c65 -31 87 -47
117 -88 l38 -50 -34 -37 c-18 -20 -36 -40 -39 -44 -4 -5 -29 7 -55 26 -138 99
-234 114 -234 37 0 -35 19 -61 117 -161 l84 -85 -3 -63 -3 -63 -60 6 -60 6
-88 91 c-48 50 -104 115 -124 144 -78 119 -47 251 72 307 66 31 172 21 272
-26z m533 -27 c9 -16 7 -32 -11 -75 -13 -30 -26 -51 -30 -47 -7 9 -39 115 -39
132 0 6 16 11 35 11 24 0 37 -6 45 -21z m866 -56 c-3 -3 -12 -3 -21 1 -14 5
-14 9 2 33 l18 27 3 -28 c2 -15 1 -30 -2 -33z m343 -44 l64 -71 -23 -86 c-13
-48 -40 -139 -61 -202 -22 -63 -39 -118 -39 -121 0 -3 53 -11 117 -18 64 -6
119 -14 122 -17 3 -3 -1 -15 -9 -27 -61 -97 -72 -118 -65 -125 4 -4 15 4 24
17 39 59 43 62 90 53 l45 -7 -67 -30 c-61 -28 -83 -45 -56 -45 13 0 339 153
335 157 -1 2 -43 -15 -92 -36 -49 -21 -92 -37 -95 -35 -4 2 -10 21 -14 41 -3
21 -13 69 -22 107 -15 67 -15 68 -44 62 -28 -5 -29 -3 -47 57 l-18 62 25 25
c14 14 30 23 35 19 5 -4 14 -5 21 -3 7 3 48 -6 91 -20 117 -39 115 -40 171 62
35 64 54 88 71 90 20 3 22 -1 22 -36 0 -22 3 -59 6 -84 l6 -44 -68 -19 c-85
-22 -104 -31 -104 -51 0 -28 42 -154 51 -154 5 0 43 12 85 26 42 14 82 23 90
20 7 -3 97 35 199 84 173 83 219 111 161 96 -13 -3 -26 -2 -28 3 -2 6 -77 19
-168 31 -219 27 -210 24 -210 60 0 21 5 30 16 30 31 0 638 -80 642 -85 6 -6
-79 -46 -674 -319 l-452 -207 -1432 206 c-787 113 -1445 205 -1461 205 -23 0
-30 4 -27 17 2 12 39 28 128 55 69 21 209 65 311 98 103 33 192 60 198 60 6 0
20 -18 30 -39 l20 -39 -82 -25 c-45 -14 -133 -41 -194 -59 -62 -18 -113 -37
-113 -43 0 -11 2600 -399 2609 -389 12 12 -29 21 -223 49 -113 16 -201 32
-197 35 12 7 72 171 118 320 21 69 45 132 54 140 12 10 21 46 28 109 12 95 16
111 30 111 4 0 35 -32 70 -71z m-996 42 c5 -5 -23 -76 -62 -159 -39 -82 -71
-152 -71 -155 0 -3 22 -13 49 -22 27 -9 51 -22 54 -28 6 -15 85 -127 124 -175
l27 -34 -50 7 c-27 4 -67 17 -89 28 -22 11 -71 30 -110 44 -65 22 -71 22 -82
7 -7 -9 -14 -21 -15 -26 -3 -7 -138 6 -175 17 -9 3 -7 15 7 47 l19 42 -33 15
-33 16 25 68 c27 73 24 72 93 51 12 -3 23 13 44 63 76 180 86 200 96 175 14
-37 35 -37 81 3 33 28 48 35 68 30 14 -4 29 -10 33 -14z m647 -58 c0 -16 -5
-35 -10 -43 -9 -13 -15 -9 -40 19 -34 40 -31 51 16 51 30 0 34 -3 34 -27z
m-1453 -20 c29 -14 51 -29 48 -32 -6 -5 -115 -41 -128 -41 -8 0 -47 60 -47 73
0 9 38 25 60 26 8 1 38 -11 67 -26z m871 12 c35 -10 26 -29 -34 -75 -49 -37
-55 -45 -49 -67 5 -21 0 -32 -24 -54 -20 -17 -29 -34 -25 -43 7 -18 -4 -20
-25 -7 -21 13 95 263 118 257 9 -2 26 -7 39 -11z m547 -67 c86 -108 119 -184
123 -285 4 -71 1 -89 -21 -135 -14 -29 -35 -63 -45 -75 l-20 -23 -256 37
c-157 22 -256 41 -256 47 0 6 -19 34 -42 61 -48 58 -138 195 -137 210 0 6 26
29 58 52 l59 41 60 -91 c105 -160 194 -243 285 -268 73 -19 152 31 164 105 9
54 -43 151 -129 242 -60 63 -68 75 -52 80 43 15 100 43 119 58 11 8 23 16 26
16 3 0 32 -33 64 -72z m-1122 -18 l45 -54 -19 -28 c-44 -61 -61 -156 -39 -214
6 -15 9 -28 8 -30 -2 -1 -48 4 -103 11 -55 8 -103 15 -106 15 -14 0 -17 46 -7
99 15 75 67 186 113 239 43 49 35 52 108 -38z m678 19 l48 -31 -30 -61 -31
-61 -35 55 c-19 30 -39 53 -45 51 -6 -1 -26 -14 -44 -29 -19 -14 -34 -23 -34
-20 0 3 -3 12 -6 20 -4 11 14 30 53 61 32 25 62 46 67 46 5 0 31 -14 57 -31z
m-877 -14 c18 -14 18 -16 -9 -80 l-28 -66 -54 58 c-29 32 -53 60 -53 63 0 5
95 37 115 39 6 0 18 -6 29 -14z m931 5 c3 -5 2 -10 -4 -10 -5 0 -13 5 -16 10
-3 6 -2 10 4 10 5 0 13 -4 16 -10z m158 -36 c20 -13 37 -27 37 -30 0 -3 -26
-64 -57 -135 -65 -148 -56 -146 -144 -31 l-48 64 41 83 42 84 45 -6 c26 -3 63
-16 84 -29z m2107 18 c0 -19 -18 -42 -32 -42 -13 0 -9 48 5 53 22 9 27 7 27
-11z m-2785 -22 c-9 -16 -18 -30 -20 -30 -3 0 -5 14 -5 30 0 23 4 30 20 30 20
0 20 -1 5 -30z m1402 14 c-3 -3 -12 -4 -19 -1 -8 3 -5 6 6 6 11 1 17 -2 13 -5z
m-1457 -30 c0 -14 -5 -24 -11 -22 -6 2 -10 7 -10 11 1 4 1 14 1 22 0 8 5 15
10 15 6 0 10 -12 10 -26z m1179 1 c6 -6 -20 -105 -28 -105 -3 0 -17 7 -29 16
-13 9 -26 14 -29 11 -2 -3 4 -10 14 -16 44 -25 44 -25 26 -76 l-16 -49 -14 64
c-8 36 -15 70 -17 76 -1 7 -6 18 -12 25 -6 8 -18 27 -28 43 l-18 29 73 -7 c41
-4 76 -9 78 -11z m319 -11 c29 -20 28 -52 -3 -66 -30 -14 -31 -18 -4 -99 28
-81 35 -92 60 -78 14 7 20 6 23 -3 6 -16 36 -155 36 -162 0 -4 -18 -6 -40 -6
-22 0 -40 3 -40 6 0 3 9 19 21 36 12 16 19 31 17 34 -7 6 -104 22 -184 29
l-71 7 22 61 c13 34 35 106 51 160 27 96 28 97 59 97 17 0 41 -7 53 -16z
m-1568 2 c0 -2 -8 -10 -17 -17 -16 -13 -17 -12 -4 4 13 16 21 21 21 13z m847
-101 c-9 -24 -13 -46 -9 -49 3 -3 34 -6 68 -6 l63 0 10 -37 c15 -53 14 -67
-10 -97 -19 -24 -26 -26 -99 -26 -61 0 -83 4 -101 19 l-23 19 42 103 c23 57
47 118 54 134 11 28 12 29 16 7 2 -13 -3 -43 -11 -67z m-1433 -22 c45 -47 73
-83 64 -83 -76 0 -112 14 -169 68 -32 30 -59 60 -59 67 0 12 54 35 75 32 6 -1
46 -39 89 -84z m562 6 c-27 -67 -23 -89 15 -89 24 0 24 -28 1 -57 -41 -51 -91
36 -72 124 8 35 72 113 78 94 2 -5 -8 -38 -22 -72z m942 27 c18 -24 32 -47 32
-50 0 -3 -23 -6 -51 -6 -40 0 -50 3 -46 14 3 8 9 31 13 50 3 20 9 36 13 36 4
0 22 -20 39 -44z m1270 19 c6 -6 -33 -92 -60 -132 -19 -28 -38 -45 -56 -48
-45 -8 -146 -33 -162 -39 -12 -5 -19 5 -28 40 -12 46 -12 48 15 77 15 16 52
40 81 52 40 18 52 29 52 46 0 21 2 21 78 14 42 -4 78 -8 80 -10z m-2863 -121
c-1 -5 -225 32 -225 37 0 4 25 23 57 43 l56 35 56 -57 c31 -31 56 -57 56 -58z
m3014 100 c62 -8 67 -3 -93 -79 l-111 -52 35 74 35 74 40 -5 c22 -3 64 -9 94
-12z m-3249 -34 c-26 -20 -51 -25 -64 -13 -7 8 47 31 74 32 10 0 6 -6 -10 -19z
m2810 -23 c0 -2 -9 -12 -20 -22 -17 -16 -20 -16 -20 -2 0 8 8 18 18 20 9 3 18
5 20 6 1 0 2 -1 2 -2z m-1640 -163 c0 -17 -22 -14 -28 4 -2 7 3 12 12 12 9 0
16 -7 16 -16z m-1409 -10 c18 -22 19 -55 2 -61 -25 -10 -63 14 -56 34 15 43
33 52 54 27z m1489 -10 c0 -2 -7 -4 -15 -4 -8 0 -15 4 -15 10 0 5 7 7 15 4 8
-4 15 -8 15 -10z m2275 6 c8 -13 -4 -50 -16 -50 -5 0 -9 14 -9 30 0 30 13 40
25 20z m-1727 -7 c-10 -2 -28 -2 -40 0 -13 2 -5 4 17 4 22 1 32 -1 23 -4z
m1767 -634 c-14 -239 -25 -453 -25 -475 l0 -42 -210 -143 c-116 -79 -369 -252
-563 -385 -318 -218 -400 -267 -409 -244 -2 5 -429 109 -950 232 l-947 223 59
12 c111 23 166 64 215 163 15 30 48 86 72 124 58 88 83 145 89 204 5 40 1 54
-24 94 -35 54 -142 145 -216 184 l-51 26 3 59 c3 50 1 59 -13 59 -14 0 -16 -9
-13 -54 l3 -53 -28 10 c-16 5 -31 15 -34 23 -2 7 14 48 38 91 l42 78 38 -37
c27 -26 51 -39 81 -43 44 -7 97 7 110 28 13 21 9 -31 -7 -95 -9 -33 -13 -68
-10 -78 11 -36 138 -41 181 -7 31 24 61 83 75 147 6 27 15 50 19 50 5 0 111
-20 234 -45 124 -25 274 -52 333 -60 60 -9 177 -29 260 -45 84 -17 165 -30
180 -30 15 0 90 -12 167 -26 l139 -27 -7 -181 c-4 -99 -15 -287 -26 -416 -24
-298 -34 -540 -23 -540 4 0 17 -3 29 -6 21 -5 21 -3 28 263 4 147 13 342 21
433 8 91 15 206 15 255 0 154 3 161 73 193 33 15 130 62 215 105 85 43 157 76
159 73 3 -2 -1 -234 -8 -515 -7 -281 -9 -514 -6 -518 4 -3 9 -4 12 -1 3 3 11
240 19 527 8 288 18 526 22 531 5 4 61 28 124 54 63 26 209 96 325 156 115 60
211 108 212 106 2 -1 -8 -198 -22 -437z m-2653 409 c98 -55 150 -256 97 -378
-12 -27 -31 -55 -43 -62 -29 -19 -78 -21 -99 -6 -18 13 -18 17 -2 78 26 98 18
185 -23 249 -37 60 -37 60 -18 106 17 41 34 43 88 13z m-1017 -38 c110 -17
211 -35 225 -39 24 -7 25 -12 36 -142 11 -130 11 -135 -10 -160 -11 -15 -49
-61 -83 -103 -222 -272 -166 -498 169 -682 46 -25 76 -44 68 -41 -8 2 -137 33
-286 68 l-272 63 -6 111 c-4 60 -16 205 -26 320 -24 263 -50 584 -50 619 0 21
4 26 18 22 9 -2 107 -19 217 -36z m655 -208 c-17 -37 -41 -80 -54 -97 -13 -16
-26 -39 -30 -50 -7 -23 -55 -55 -83 -55 -11 0 -24 12 -31 30 -13 28 -11 36 27
114 41 84 114 199 155 244 l21 24 13 -72 c13 -71 13 -72 -18 -138z m-194 135
l81 -12 -50 -87 c-46 -81 -52 -88 -81 -88 -17 0 -48 -9 -69 -20 -20 -11 -39
-20 -41 -20 -2 0 -7 30 -10 68 -4 37 -9 94 -12 126 l-6 59 53 -7 c30 -4 90
-12 135 -19z m284 -52 c0 -8 -2 -15 -4 -15 -2 0 -6 7 -10 15 -3 8 -1 15 4 15
6 0 10 -7 10 -15z m2000 -15 c0 -5 -5 -12 -10 -15 -8 -5 -7 -11 1 -21 10 -12
9 -13 -4 -8 -10 3 -20 -3 -27 -17 -11 -20 -13 -21 -22 -5 -13 23 0 74 20 79
21 4 42 -2 42 -13z m-1810 -20 c0 -5 -4 -10 -10 -10 -5 0 -10 5 -10 10 0 6 5
10 10 10 6 0 10 -4 10 -10z m1454 -28 c-8 -28 -44 -30 -44 -2 0 20 30 43 42
32 4 -4 5 -17 2 -30z m-1494 -42 c0 -5 -7 -10 -16 -10 -8 0 -12 5 -9 10 3 6
10 10 16 10 5 0 9 -4 9 -10z m-480 -91 l-21 -40 23 -37 22 -36 -38 23 c-24 15
-41 20 -47 14 -7 -7 71 -58 225 -148 l235 -139 -25 -29 c-13 -16 -24 -33 -24
-38 0 -17 27 -9 50 16 26 28 42 33 34 10 -8 -21 16 -19 46 4 20 16 22 21 11
35 -7 9 -25 16 -40 16 -15 0 -103 46 -210 109 l-183 109 51 17 c28 9 55 24 60
32 26 47 309 -136 358 -232 32 -62 12 -143 -65 -257 -27 -40 -61 -96 -75 -124
-38 -74 -72 -110 -122 -130 -177 -67 -515 114 -582 311 -46 135 4 273 160 441
98 106 109 114 145 114 l32 0 -20 -41z m3165 -834 c0 -10 -4 -20 -10 -22 -5
-1 -10 8 -10 22 0 14 5 24 10 22 6 -2 10 -12 10 -22z m-3597 -81 c31 -22 28
-50 -7 -62 -45 -16 -66 15 -39 58 15 24 17 24 46 4z m2652 -547 c0 -7 -9 -18
-20 -24 -24 -15 -34 -2 -26 33 6 21 9 23 26 14 11 -6 20 -16 20 -23z m-266 -6
c4 -5 1 -22 -5 -38 -6 -15 -13 -22 -16 -15 -3 6 -13 12 -24 12 -16 0 -17 3 -7
25 11 25 41 34 52 16z"/>
<path d="M3401 4168 c-48 -13 -124 -93 -144 -153 -25 -72 -22 -180 6 -235 31
-63 76 -90 147 -90 43 0 65 6 91 23 84 56 139 180 139 311 0 103 -6 118 -41
111 -18 -4 -37 0 -54 11 -34 22 -101 32 -144 22z m131 -62 c33 -25 32 -50 -6
-132 -36 -77 -86 -128 -161 -160 -36 -15 -67 -25 -70 -22 -20 20 -25 188 -5
188 3 0 39 -11 79 -25 62 -21 72 -22 69 -8 -2 10 -27 24 -65 37 -34 12 -65 24
-69 28 -4 4 5 26 20 49 50 75 143 96 208 45z m72 -116 c-13 -109 -61 -208
-119 -246 -21 -14 -27 -14 -64 5 -36 19 -41 19 -55 5 -12 -11 -20 -12 -36 -4
-30 16 -25 26 28 45 26 10 65 30 86 44 49 32 111 126 133 200 14 51 17 54 25
31 5 -13 6 -49 2 -80z m-194 -260 c12 -8 11 -10 -7 -10 -13 0 -23 5 -23 10 0
13 11 13 30 0z"/>
<path d="M3990 4074 c-12 -30 -13 -191 -2 -198 13 -8 171 23 205 40 70 36 101
89 77 134 -19 35 -70 50 -175 50 -93 0 -96 -1 -105 -26z m210 -17 c27 -9 36
-18 38 -38 5 -45 -60 -81 -185 -103 l-33 -5 0 73 c0 50 4 76 13 79 23 10 132
6 167 -6z"/>
<path d="M5039 2618 c0 -7 -15 -204 -33 -438 -29 -368 -31 -460 -12 -439 4 4
66 804 66 857 0 29 -19 48 -21 20z"/>
<path d="M2850 2543 c4 -249 30 -1036 34 -1041 3 -3 9 -2 12 1 4 4 2 206 -5
449 -6 244 -11 480 -11 526 0 66 -3 82 -15 82 -8 0 -15 -8 -15 -17z"/>
<path d="M3487 2233 c-16 -524 -20 -913 -10 -913 11 0 20 207 28 685 3 171 8
340 11 378 4 53 2 67 -9 67 -11 0 -15 -41 -20 -217z"/>
<path d="M4342 1478 c-18 -18 -16 -78 3 -78 9 0 15 10 16 23 1 17 2 18 6 4 3
-10 10 -16 16 -14 15 4 22 67 8 67 -5 0 -15 2 -23 5 -7 3 -19 0 -26 -7z"/>
<path d="M2696 2682 c-13 -21 -18 -92 -7 -92 14 0 31 42 31 76 0 23 -14 32
-24 16z"/>
<path d="M2706 2554 c-23 -22 -20 -37 4 -24 11 6 20 17 20 25 0 19 -5 19 -24
-1z"/>
<path d="M2697 2493 c-11 -10 -8 -43 3 -43 9 0 30 31 30 44 0 8 -25 7 -33 -1z"/>
<path d="M2055 2198 c-43 -15 -63 -35 -71 -72 -21 -98 -56 -186 -84 -210 -17
-13 -30 -28 -30 -33 0 -5 24 -23 53 -41 28 -18 63 -41 77 -53 38 -30 56 -17
63 45 6 56 30 112 78 183 30 43 38 100 18 120 -6 6 -11 18 -13 27 -2 17 -35
46 -51 45 -5 0 -23 -5 -40 -11z m39 -44 c4 -9 -3 -42 -14 -72 -12 -31 -20 -70
-19 -86 1 -17 -8 -51 -19 -76 -12 -25 -22 -53 -22 -62 0 -25 -19 -22 -63 8
l-38 25 29 34 c29 32 43 67 77 188 13 49 19 57 39 57 13 0 27 -7 30 -16z"/>
<path d="M2446 1900 c-53 -99 -96 -184 -96 -190 0 -32 27 6 98 138 120 222
125 232 108 232 -8 0 -55 -78 -110 -180z"/>
<path d="M3430 5112 c0 -16 35 -19 285 -32 121 -6 238 -12 259 -13 21 -1 41 3
43 9 2 7 -62 15 -199 23 -112 6 -245 15 -295 18 -65 4 -93 3 -93 -5z"/>
<path d="M5336 4991 c-7 -10 52 -18 209 -27 61 -4 126 -12 146 -18 l37 -11
-92 -400 c-51 -220 -91 -402 -90 -403 1 -2 49 8 106 22 57 14 121 29 143 33
l40 9 50 246 50 245 68 -156 c69 -159 122 -261 135 -261 4 0 13 4 20 9 11 6 7
19 -16 57 -17 27 -63 126 -102 219 -39 94 -76 179 -81 190 -6 12 -8 41 -5 65
l5 45 -95 63 c-52 34 -98 61 -102 58 -4 -2 -81 2 -172 10 -197 16 -247 17
-254 5z m524 -262 c0 -18 -37 -46 -47 -36 -3 3 1 21 8 41 10 27 16 33 26 24 7
-6 13 -19 13 -29z"/>
<path d="M3467 4959 c14 -14 495 -41 507 -29 6 6 8 10 5 10 -50 4 -481 29
-498 30 -18 0 -22 -3 -14 -11z"/>
<path d="M4160 4921 c0 -13 42 -17 494 -47 240 -15 392 -22 398 -16 6 6 -21
12 -69 16 -58 5 -805 56 -820 56 -2 0 -3 -4 -3 -9z"/>
<path d="M5236 4851 c-11 -17 7 -20 152 -27 95 -5 142 -4 142 3 0 6 -51 13
-127 17 -71 4 -135 9 -145 12 -9 3 -19 0 -22 -5z"/>
<path d="M3502 4788 c4 -12 36 -16 337 -42 67 -6 82 -5 79 6 -3 9 -46 16 -149
25 -79 6 -173 14 -207 18 -50 4 -63 3 -60 -7z"/>
<path d="M5511 4763 c-65 -244 -166 -683 -156 -683 6 0 45 139 95 343 46 188
85 350 88 360 2 9 -1 17 -6 17 -6 0 -16 -17 -21 -37z"/>
<path d="M4130 4733 c0 -7 4 -13 8 -13 4 0 162 -14 352 -30 316 -28 384 -31
366 -13 -3 4 -168 20 -366 37 -282 25 -360 29 -360 19z"/>
<path d="M5086 4652 c-8 -13 32 -19 167 -28 70 -4 107 -3 107 3 0 18 -264 42
-274 25z"/>
<path d="M3610 4400 c0 -5 15 -11 33 -14 72 -12 1129 -107 1134 -102 16 16
-93 30 -592 76 -614 56 -575 53 -575 40z"/>
<path d="M4815 4289 c-4 -6 -5 -11 -4 -13 9 -6 501 -47 507 -42 3 3 2 9 -1 13
-5 4 -403 47 -489 53 -4 0 -10 -5 -13 -11z"/>
<path d="M5953 4172 c-7 -5 31 -22 97 -44 84 -28 110 -33 114 -23 3 10 -23 23
-87 44 -99 33 -106 35 -124 23z"/>
<path d="M5810 3639 c0 -25 33 -22 38 4 2 12 -3 17 -17 17 -15 0 -21 -6 -21
-21z"/>
<path d="M5757 3593 c-14 -13 -6 -33 13 -33 13 0 20 7 20 20 0 19 -20 27 -33
13z"/>
</g>
</svg>
