<svg xmlns="http://www.w3.org/2000/svg" id="svg28" width="136.06" height="136.06" version="1.1"><defs id="defs1"><style id="style1">.cls-2{fill:#00376c}</style></defs><g id="Bounding_Box" data-name="Bounding Box" transform="translate(-34.02 -33.31)"><path id="rect1" d="M0 0h204.09v202.68H0z" style="fill:none"/></g><g id="Logo_Siegel" data-name="Logo Siegel" transform="translate(-34.02 -33.31)"><circle id="circle1" cx="102.05" cy="101.34" r="68.03" style="fill:#fff"/><g id="g28"><g id="g19"><g id="g18"><path id="path1" d="M57.63 136.66c.51-.39.6-1.15.21-1.66-.41-.52-1.15-.6-1.66-.21-.52.4-.61 1.14-.21 1.66.39.51 1.14.62 1.66.21z" class="cls-2"/><path id="polygon1" d="m64.71 148.19-3.38-2.84 7.94-2.01.23-.28-4.52-3.79.22-.26-.46-.38-1.2 1.42.46.39.56-.66 3.18 2.66-7.92 2.05-.23.27 5.16 4.33 1.15-1.38-.46-.38z" class="cls-2"/><path id="path2" d="m80.09 149.51-2.92-1.62-.32.58 1.09.6-2.01 3.63c-.65 1.18-1.9 1.58-2.99.98-1.06-.59-1.32-1.8-.66-2.99l2.02-3.65 1.11.61.32-.58-3.3-1.83-.32.58 1.1.61-2.19 3.95c-.76 1.37-.18 2.99 1.37 3.86 1.66.92 3.38.47 4.25-1.1l2.04-3.67 1.09.6.32-.58z" class="cls-2"/><path id="path3" d="M88.02 160.03c1.53.38 2.59-.11 2.9-1.35.3-1.21-.41-2.16-1.94-2.59 1.18.29 2.2-.19 2.44-1.15.28-1.13-.41-2.07-1.78-2.41l-3.93-.98-.15.6 1.21.3-1.56 6.25-1.21-.3-.15.6 4.16 1.04zm-.84-3.98 1.16.29c1.06.27 1.47.91 1.22 1.91-.23.92-.89 1.25-1.96.98l-1.14-.29.72-2.9zm.81-3.25 1.14.29c.79.2 1.1.75.89 1.56-.21.82-.85 1.22-1.66 1.02l-1.03-.26.65-2.61z" class="cls-2"/><path id="polygon3" d="m101.77 160.89-2.82-.1.1-2.9 2.13.07-.03.83.61.02.08-2.31h-.61l-.03.8-2.13-.08.1-2.77 2.72.1-.03.86.6.02.07-1.86-.62-.02-.01.33-5.21-.18-.02.61 1.24.05-.22 6.44-1.25-.05-.02.62 5.94.2.06-1.54-.62-.02z" class="cls-2"/><path id="path4" d="m115.78 159.44-.46.07c-.36.06-.7-.09-1.05-.46l-1.88-1.99c1.05-.37 1.6-1.28 1.42-2.38-.21-1.33-1.17-1.9-2.76-1.65l-3.87.61.1.66 1.23-.19 1 6.31-1.23.19.1.61 3.71-.59-.1-.61-1.23.19-.43-2.72.8-.13 2.17 2.36c.51.56.65.6 1.37.49l1.2-.19-.1-.61zm-6.02-5.52 1.15-.18c.85-.13 1.39.3 1.54 1.22.14.9-.27 1.59-1.06 1.71l-1.16.18-.47-2.94z" class="cls-2"/><path id="polygon4" d="m125.7 155.85-2.61 1-2.27-5.92 1.16-.45-.24-.62-3.5 1.34.24.62 1.16-.44 2.29 5.97-1.16.44.22.58 5.5-2.11-.6-1.57-.55.21z" class="cls-2"/><path id="polygon5" d="m129.23 146.78 1.07-.64-.34-.57-3.22 1.93.34.57 1.07-.64 3.29 5.48-1.07.64.32.53 3.22-1.94-.32-.52-1.07.64z" class="cls-2"/><path id="polygon6" d="m140.38 137.03-2.44 2.28.45.48.93-.86 3.24 3.48-7.11-.78-1.57 1.46.46.49.85-.79.54.08 4.06 4.36-.91.85.42.45 2.44-2.27-.42-.45-.92.86-3.34-3.58 7.37.84.37-.34-4.87-5.22.91-.85z" class="cls-2"/><path id="path6" d="M148.11 133.04c-.53-.37-1.28-.24-1.65.29-.38.54-.24 1.28.29 1.65.54.38 1.27.25 1.65-.29.37-.52.25-1.27-.29-1.65z" class="cls-2"/><path id="polygon7" d="m45.5 122.41-.5-1.14-.56.25 1.52 3.43.56-.25-.49-1.13 2.59-1.15 1.84 4.14-2.59 1.16-.51-1.14-.56.25 1.53 3.43.56-.25-.51-1.14 5.89-2.62.51 1.14.56-.25-1.53-3.43-.56.25.5 1.14-2.68 1.19-1.84-4.14 2.68-1.2.5 1.13.56-.25-1.52-3.43-.57.25.51 1.13z" class="cls-2"/><path id="path7" d="m41.32 106.31.52 3.3.66-.1-.19-1.23 4.1-.65c1.33-.21 2.42.53 2.62 1.75.19 1.2-.6 2.15-1.95 2.36l-4.12.65-.2-1.25-.66.1.59 3.72.66-.1-.2-1.25 4.46-.71c1.54-.24 2.47-1.7 2.19-3.46-.3-1.87-1.71-2.96-3.49-2.68l-4.15.66-.19-1.23-.66.1z" class="cls-2"/><path id="polygon8" d="m42.87 90.62.16-1.24-.66-.08-.32 2.58 5.25 3.33-5.89 1.92-.31 2.48.66.08.15-1.24 6.35.78-.15 1.24.61.07.4-3.31-.6-.08-.16 1.24-5.17-.63 6.24-2.03-5.87-3.75 5.51.67-.15 1.24.61.08.45-3.73-.61-.07-.15 1.23z" class="cls-2"/><path id="path8" d="M52.9 81.41c.57-1.47.21-2.59-.98-3.05-1.16-.45-2.19.14-2.8 1.61.43-1.13.08-2.21-.85-2.57-1.08-.42-2.1.15-2.61 1.47l-1.45 3.78.57.22.45-1.16 6.02 2.31-.45 1.16.57.22 1.54-4zm-4.05.35.43-1.12c.39-1.02 1.09-1.35 2.05-.98.88.34 1.13 1.04.74 2.06l-.42 1.1-2.79-1.07zm-3.13-1.2.42-1.1c.29-.76.88-1 1.66-.7.79.3 1.11 1 .81 1.77l-.38.99-2.51-.97z" class="cls-2"/><path id="path9" d="M58.26 71.99c1.2-1.71.7-4.3-1.09-5.54-1.75-1.23-4.34-.81-5.54.9-1.22 1.74-.74 4.3 1.02 5.54 1.8 1.26 4.38.84 5.6-.9zm-6.06-4.23c.8-1.14 2.66-1.22 4.18-.15 1.54 1.08 2.11 2.84 1.3 3.99-.8 1.14-2.66 1.2-4.2.12-1.51-1.06-2.08-2.82-1.28-3.96Z" class="cls-2"/><path id="polygon9" d="m66.8 60.99-2.01 1.93-4.4-4.56.89-.86-.46-.48-2.7 2.61.46.47.9-.86 4.44 4.6-.89.86.42.44 4.24-4.09-1.16-1.21-.43.42z" class="cls-2"/><path id="path10" d="m70.47 58.83 3.34-2.09c1.94-1.21 2.54-3.52 1.38-5.38-1.14-1.82-3.53-2.32-5.44-1.12l-3.34 2.09.33.52 1.06-.66 3.42 5.46-1.06.66.33.52zm1.77-1.89-3.36-5.38 1.11-.69c1.3-.81 3.04-.25 3.98 1.27.95 1.52.67 3.3-.64 4.12l-1.1.69z" class="cls-2"/><path id="polygon10" d="m82.3 45.04 2.29-.79.3.88.58-.2-.62-1.82-.59.2.11.31-5.78 1.99-.11-.31-.56.19.63 1.82.56-.19-.3-.88 2.29-.79 2.08 6.05-1.33.45.2.58 3.86-1.32-.2-.58-1.33.45z" class="cls-2"/><path id="polygon11" d="m90.49 46.75 3.12-.56-.22-1.25-3.13.57z" class="cls-2"/><path id="path11" d="m106.6 41.25-3.34-.06v.67l1.23.02-.07 4.15c-.02 1.35-.94 2.29-2.18 2.27-1.21-.02-2.01-.97-1.99-2.33l.07-4.17 1.26.02v-.66l-3.76-.07v.66l1.25.02-.08 4.52c-.03 1.56 1.25 2.73 3.02 2.76 1.89.03 3.21-1.17 3.24-2.97l.07-4.2 1.24.02v-.66h.01z" class="cls-2"/><path id="polygon12" d="m121.55 44.34-3.23-.86-.17.64 1.22.32-1.23 4.59-3.1-6.43-2.07-.56-.18.64 1.13.3.2.51-1.54 5.75-1.2-.32-.16.6 3.23.86.15-.59-1.22-.33 1.27-4.73 3.19 6.7.49.13 1.84-6.9 1.2.32z" class="cls-2"/><path id="polygon13" d="m129.46 48.72 1.1.58.31-.58-3.31-1.76-.31.58 1.09.59-3 5.64-1.1-.58-.29.54 3.32 1.76.29-.54-1.1-.58z" class="cls-2"/><path id="polygon14" d="m140.9 55.51-1.92-1.45-.4.53.76.57-4.76 2.84 1.37-5.39.84.63.4-.53-2.57-1.94-.4.53.65.49-1.95 7.56.31.24 6.72-3.97.55.42z" class="cls-2"/><path id="polygon15" d="m143.14 67.89-1.89-2.1 2.16-1.94 1.42 1.58-.61.55.41.46 1.72-1.54-.43-.45-.59.53-1.42-1.58 2.06-1.85 1.82 2.02-.64.58.4.44 1.38-1.24-.41-.46-.25.23-3.49-3.88-.45.41.83.93-4.79 4.31-.83-.93-.46.41 3.98 4.42 1.15-1.03-.41-.46z" class="cls-2"/><path id="path15" d="M151.53 83.64c-.15.73-.14 1.35.06 1.96.43 1.31 1.65 2 2.83 1.61 1.03-.33 1.41-.88 1.72-2.48.08-.39.18-.84.28-1.33.14-.64.31-.89.72-1.02.65-.21 1.22.15 1.46.89.14.43.15.74.02 1.46l-.79.26.19.58 1.89-.62-.19-.58-.39.13c.1-.54.07-1.03-.1-1.56-.41-1.26-1.63-1.97-2.77-1.6-.93.3-1.33.96-1.57 2.57-.24 1.53-.51 2.09-1.11 2.28-.62.2-1.24-.22-1.5-1.01-.18-.54-.18-1.02 0-1.78l.82-.27-.19-.58-1.97.64.19.58.41-.13z" class="cls-2"/><path id="polygon16" d="m160.78 93.85.17 1.24.66-.1-.52-3.71-.66.09.18 1.23-6.34.89-.17-1.23-.61.09.52 3.71.61-.08-.17-1.24z" class="cls-2"/><path id="polygon17" d="m161.2 104.47-.08 2.42-.93-.03-.02.62 1.92.06.02-.61-.33-.01.21-6.11.33.01.03-.59-1.93-.07-.02.6.93.03-.08 2.42-6.4-.22.05-1.41-.61-.02-.14 4.08.61.02.05-1.41z" class="cls-2"/><path id="path17" d="m152.35 118.08.17-.69 7.83-1.2.1-.42-6.32-4.86.15-.61-.6-.15-.56 2.26.6.15.22-.9 1.57 1.19-.73 2.93-1.94.29.18-.71-.6-.15-.67 2.71.59.16zm9.26.68c.48.12.97-.18 1.08-.64a.898.898 0 0 0-.65-1.09.902.902 0 0 0-1.07.66c-.12.46.18.95.64 1.06zm.71-2.85c.48.12.97-.18 1.08-.64a.896.896 0 0 0-.65-1.08c-.46-.12-.95.18-1.07.66-.11.46.18.95.64 1.06zm-6.24-2.63 2.53 1.93-3.13.47z" class="cls-2"/><path id="polygon18" d="m155.28 127.55-1.02 2.19-.85-.39-.25.56 1.74.81.26-.55-.3-.14 2.58-5.55.3.15.26-.55-1.75-.81-.25.54.84.39-1.02 2.2-5.8-2.7.6-1.28-.56-.26-1.73 3.7.56.26.6-1.28z" class="cls-2"/></g><path id="path18" d="m150.13 79.12-.23-.4c-.18-.32-.16-.69.06-1.14l1.21-2.45c.71.86 1.75 1.05 2.72.51 1.17-.66 1.37-1.76.58-3.16l-1.92-3.42-.58.32.61 1.09-5.57 3.13-.61-1.09-.54.3 1.84 3.27.53-.3-.61-1.09 2.4-1.35.4.71-1.46 2.86c-.35.67-.34.82.02 1.46l.6 1.06.54-.3zm3.08-7.56.57 1.01c.42.75.2 1.41-.61 1.87-.8.45-1.58.3-1.97-.4l-.58-1.03 2.59-1.46z" class="cls-2"/></g><g id="g27"><path id="path19" d="M114.89 76.84c-.06-.03-1.54-.66-1.75-.71-.1-.02-.85-.54-1.39-.92-.64-.45-.93-.64-1-.66-.12-.03-.78-.35-1.11-.51l-1.65-1.06-1.65-1.21s-.32-.25-.68-.34c-.01 0-1-.36-2.26-.24-.76.1-2.75.35-2.83.35-.09 0-2.02.39-2.15.47-.02.01-1.58.99-2.08 1.29h-.02l-.2 1.14.13-.13s1.36-1.34 2.63-1.73c.03 0 2.75-.65 4.64-.55.02 0 1.94.04 3.34 1.08l1.25 1.04 1.82.95s1.37 1.1 4.38 2.32c.02 0 1.63.62 2.54 1.52l.08.08.02-.11c.16-.88-1.96-2.02-2.05-2.07z" class="cls-2"/><path id="path20" d="m122.45 85.55-.3-1.77-.2-1.06-.35-1.21c-.42-1.53-1.05-2.56-1.86-3.62-.01-.03-.3-.68-1.44-1.66-.09-.08-.2-.18-.32-.29-.4-.38-1.01-.95-1.81-1.41-.19-.12-1.92-1.16-2.03-1.2-.04-.01-.15-.05-.29-.1-.35-.13-.88-.32-1.03-.35-.39-.1-.83-.16-1.1-.19l.2-.06-.54.03v.02s-.06.05-.06.1c0 .09.11.22.87.42.18.05 1.8.65 1.8.65.02.01 1.95 1.18 2.27 1.39.02.01 1.56 1.17 2.57 2.7.01.02 1.32 1.69 2.05 4.69l.93 2.6 1 1.79-.35-1.46z" class="cls-2"/><path id="path21" d="M125.32 93.2c-.09-.71-.21-1.59-.3-2.11-.12-.76-.57-2.15-.96-2.8-.37-.63-1.23-1.24-1.26-1.27l-.17-.12.67 1.57s.83 1.7 1.32 5.74l-.33 3.56-.38 1.3c-.13 1.23-.13 1.24-.06 1.25h.03l.02-.01c.03-.03.84-.78 1.04-1.67.01-.06.29-1.46.33-1.79 0-.02.26-2.11.17-2.76-.03-.2-.07-.52-.12-.88z" class="cls-2"/><path id="path22" d="M131.31 112.56c-.68-.55-.5-1.15-.49-1.19l.22-2.56c.02-1.27-.53-2.34-.53-2.34-.18-.61-1.13-1.05-1.18-1.07-.56-.12-1.33-.13-1.62-.13h-.12c-1.5.09-1.91.31-2.11.42-.09.05-.11.05-.16.04 0-.02.03-.12.06-.2.09-.22.23-.59.15-1.06-.32-.85-.3-1.73-.3-1.86l1.12-1.58c1.56-2.77 1.32-6.17 1.31-6.2-.4-5.83-1.52-9.01-1.53-9.04-1.6-5.18-4.06-9.86-4.09-9.91-3.16-5.09-10.01-6.08-10.07-6.09-3.34-.68-9.14-.44-9.2-.44-2.98.23-4.71.98-4.72.99-.03.01-2.68 1.05-3.79 2.81-.02.04-.18.43-.26.73-.21.17-1.1.74-2.36-.09-1.12-.5-1.31-2.69-1.31-2.73 0 0-.28-.8-1.11-.82-2.73-.41-4.26.6-4.28.62-.06.05-1.44 1.12-1.9 2.22-.26.03-1.74.28-3.31 2.66l-1.35 1.62-1.81 1.58v.02c-.04.06-.76 1.45-.31 4.18.06.24.58.63 1.6 1.2.02.01.03.02.05.03.17.27.15 3.12-.25 3.8-.03.05-.53 1.3-.62 1.54l-.64 1.05c-.06.05-.38.4-.36 1.39v.82s-.1 1.18-.52 1.73l-1.3 1.75-1.17 1.72s-.77 1.42-.99 1.72c-.05.06-.11.14-.2.24-.32.37-.81.94-.89 1.6 0 .04-.03.93.57 1.53.34.34.81.51 1.39.51h.08l.61-.02s0 .03.02.04c0 .1.02.34.03.5l.06.52-.06 1.06s-.23.88.02 1.29c0 0 .26.26.24.5l-.14.51-.11.34c-.02.1-.19.95.19 1.12l.48.25s.6.54.33 1.07l-.46.81s-.45.52-.54 1.16c0 .02-.31 1.51.54 2.79.59.89 1.59 1.47 2.96 1.72l2.66.33 2.95.54s.82.22.8 1.27l-.03.44s.05.78.41 1.44l.65 1.41.7 1.28.7 1.7s.6 1.53.58 3.36l-.13 3.48v.06l.96.02h.06l.05-4.84s-.23-1.89-1-3.3l-.59-1.23-.88-1.52s-.63-1.2-.75-2.86l.03-.95c.27-.09 1.88-.63 3.43-1.35.18-.08 2.69-1.73 3.67-2.46 1.99-1.68 2.53-2.13 2.65-2.27.2-.16 1.63-1.37 2.13-2.16h.43s.03-.02.04-.02c.1 0 .18.03.26.1.39.34.45 1.39.45 1.41l1.93 8.5-2.44 3.64-2.61 6.1-2.08 7.42-.02.07h1.38v-.06c.08-6.02 4.7-14.29 4.75-14.36l4.36-6.04 4.92-5.36 4.29-4.48c.14-.1 3.51-2.37 3.9-2.7.1-.06.2-.07.29-.03.25.11.37.57.38.59.41.79.57 1.57.58 1.58.41 1.29.28 1.72.17 1.85-.07.08-.16.08-.15.08-1.48.2-2.16 1.3-2.16 1.31-.84 1.33-.62 2.85-.51 3.35-.02.03-.03.06-.04.09-.08 0-.17-.01-.25-.01-1.79 0-2.34 1.39-2.34 1.4-1.24 2.35-.27 4.68-.26 4.69 0 .02.31 1.54.24 2.64 0 .18-.07 1.72.6 2.09.5.37.93.48 1.05.51.07.13.41.71.91.77.05 0 .1.01.15.01.57 0 1.12-.42 1.63-1.25.02-.04.04-.07.05-.07.06-.06 1.21-1.11 1.22-1.11 0 0 .64-.41 1.51-.21.11.02 1.07-.05 1.26-.06.91-.05 1.39-.73 1.58-1.08.07.69.41 2.75 2.01 3.29-.15.27-.14.68-.14.75-.38 1.64.82 2.46.83 2.47 2.56 1.56 5.18.08 5.2.07 1.55-.88 1.65-3.07 1.65-3.09.18-1.75-.02-2.79-.02-2.8v-.02c-1.39-2.2.02-3.75.03-3.77.49-.44.83-1.32.99-2.6.19-2.11-.86-2.87-.91-2.9zm-1.43 9.2c.6.98.3 3.11.3 3.13-.34 1.76-1.85 2.32-2.49 2.47-1.26.32-2.57 0-3.18-.75-.34-.43-.44-.97-.31-1.58.02-.04.04-.07.05-.13.17-.51.49-1.48 2.66-1.64.37 0 1.12.63 1.13 1.04 0 .19-.17.29-.51.31h-.08c-.15 0-.28-.02-.29-.02-.24 0-.39.07-.46.18-.07.11-.02.24-.02.24 0 .02.2.47.96.47h.26c.18 0 .36-.02.42-.04.76-.22.69-1.35.68-1.39-.04-.75-.79-1.19-.82-1.21l-.85-.48-.54-.05-.93.12c-1.09.23-1.61 1.02-1.81 1.44-1.23-.99-1.35-1.81-1.35-1.83l-.49-1.4c.09-.16.21-.39.38-.7l.44.15s1.12.26 2.24.26c.15 0 .3 0 .44-.02.11 0 1.26-.11 1.3-.11l.76.04s1.25.25 1.69.77l.26.42c.07.2.13.33.13.35zm-17.39-2.16v-.02s-.02-.23.18-.44c.21-.24.59-.37 1.11-.39.03 0 .67.01.9.58v.02s.4.37.46.84c-.21.02-.96.13-1.59.57-.45.32-.75.76-.93 1.06-.16-.68-.2-1.39-.22-1.9l.09-.3zm1.49 1.65c.5-.3 1.11-.38 1.59-.18l.83.71c-.02.31-.14.85-.79 1.23l-.02.02c-.49.64-.96.97-1.35.97h-.04c-.36-.02-.54-.32-.55-.32l-.02-.02c-.2-.13-.36-.32-.5-.53-.02-.43.03-1.37.84-1.87zm2.92 0-.64-.38s-.15-.1-.2-.25l-.62-1.4c-.03-.05-.81-1.02-1.38-1.07h-.13c-.32 0-.49.02-.57.04h-.06c-.07 0-.6.19-.85.27H112c-.43-1.05-.06-2.12.15-2.59.13-.14.29-.27.51-.33.32-.09.69.02 1.07.31l1.08 1.12.7.87c.11.18 1.1 1.72 1.44 1.89 0 0 .07.03.1.03.04 0 .07-.02.09-.04.15-.17-.17-.89-.45-1.32-.09-.14-.19-.31-.31-.52-.39-.66-.92-1.56-1.48-2.11-.07-.07-.14-.14-.21-.2-.58-.58-1.07-1.03-1.86-1.19.59-.68 1.46-.85 1.9-.89l.53.27.41.34.5.61.36.53.42 1.07.24.82.35.74.76 1.1.02.02c.25.16.5.24.76.24.11 0 .21-.02.32-.04.53-.14.93-.62 1.12-1.01.84-1.68-1.74-5.41-1.95-5.7-.17-1.64.99-3.27 1.31-3.7.56-.01 1.05-.05 1.49-.1v.24l-.15 1.14c-.05.18-.21.66-.37.79-.02.03-.57.82-.7 1.65 0 .07 0 .7.14.91.56.71 1.46 1.88 1.52 2.05v.02c.29 2.21.08 2.66-.49 3.84-.14.29-.3.64-.48 1.05l-.58.57c-.54.67-1.85.68-1.86.68l-1.26-.1c-.07-.07-.16-.16-.25-.26zm-1.84-9.31c.01-.75.48-1.78.52-1.87.75-.87 1.47-1 1.47-1 .36-.02.62-.14.81-.34.36.02.68.03 1.01.03-.3.4-2.18 2.99-.82 4.79 1.02 1.35 2.02 3.18 1.87 3.91-.03.13-.08.21-.18.26h-.02c-.34.39-.63.55-.87.49-.36-.09-.49-.64-.5-.66l-.54-1.03-.34-1.15c-.07-.3-.68-1.1-.71-1.14l-.33-.39-.3-.26-.43-.51-.35-.27-.24-.16s-.05-.02-.08-.03v-.68zm-40.36-4.2c.12-.14.33-.28.58-.18.08.06.51.38.67.38 0 0 .32 0 .86-.04.18 0 .26-.08.3-.15.08-.14.03-.33-.04-.44-.05-.08-.11-.12-.17-.12-.18 0-.75.04-.75.04h-.02l-.02.02s-.04.02-.1.02c-.08-.01-.25-.09-.49-.46a.663.663 0 0 0-.35-.25c-.07-.02-.18-.03-.37-.05l-.18-.02a.26.26 0 0 1-.2-.1c-.08-.11-.04-.27-.04-.27l.1-.54c.01-.06.31-1.3 0-1.95.03.02.07.04.12.06l.82.13 1.05.43s.55.2 1.59-.46l.03-.02v-.03c-.07-.88-.89-2.07-.92-2.12l-.05-.07-.25.36v.03s.23.55.3.73c.17.47.22.69.18.78-.03.06-.1.08-.23.12h-.04c-.32.11-.92.21-1.28-.3l-.02-.02s-.65-.38-1.55-.51c-.01 0-1.08.11-1.37.12-.52.02-.86-.06-1.04-.24-.19-.2-.17-.48-.15-.76 0-.11.01-.21 0-.3.09-.17.95-1.66 1.6-2.33l.41-.53 1.17-2 .95-1.21s1.09-1.12 1.06-2.01l.07-1.14v-.02s-.11-.61.25-1.28l.51-.98.53-1.43.35-1.41.17-1.94v-.27c.2-.33.68-1.13.77-1.71.11-.7.81-1.34 1.42-1.64.34-.16.65-.29.88-.38.2-.08.34-.14.39-.18h.01s.18-.24.11-.44c-.05-.13-.18-.21-.39-.25h-.02c-.16 0-.85.35-1.11.49-.49.26-.97.58-1.32.88-.2.17-.38.46-.56.74-.12.2-.24.38-.36.53l-.03.03c-.18.21-.28.32-.52.41-.66-.29-1.11-.67-1.14-.98 0-.01 0-1.1-.03-1.46-.02-.37.02-1.18.46-1.88.15.11.35.19.65.21h.21c.94 0 2.23-.41 2.95-1.16.55-.57 1.42-.65 1.96-.64-.06.07-.12.15-.15.2-.15.24-.55 1.49-.38 1.77.04.07.09.18.14.31.15.36.34.81.63.81.04 0 .08-.02.11-.05.08-.1.04-.33-.03-.67-.09-.47-.21-1.13.03-1.54.72-1.22 2.13-2.32 3.15-2.79 1.31-.59 2.28-.73 2.87-.42.49.26 1.02.85 1.44 1.33.2.23.39.44.55.59.29.27.8.38 1.2.43-.1.27-.21.59-.33.97-.34-.03-.89-.04-1.46.05-.52-.5-2.2-1.98-3.29-1.49-1.17.52-2.06 1.24-2.37 1.55-.2.2-.54.73-.49.95.01.05.04.09.09.11h.05c.26 0 .83-.53 1-.7.01-.01 1.35-1.14 2.17-1.14.67 0 1.59.65 1.94.95-.12.05-.24.1-.35.17-.81.51-1.16.9-1.41 1.18-.07.08-.13.15-.19.21l-.05.05c-.6.62-1.04.94-1.31.94-.3 0-.87-.28-1.33-.5-.23-.11-.44-.21-.56-.25-.3-.1-.66-.04-1.08.17-.22.11-.51.32-.61.57-.02.04-.01.07.01.1.08.1.36.1.98.04.15-.01.28-.02.35-.02.18 0 .77.3 1.25.54.25.13.49.25.65.32.07.03.15.05.23.05.63 0 1.57-.76 1.68-.86.12-.1.25-.27.42-.5.38-.5.9-1.18 1.73-1.62.68-.35 1.29-.3 1.68-.19-.11.28-.24.61-.35.88l-.09.35c-.16.1-.36.24-.61.49-1.08 1.04-2.44 1.74-3.16 2.07-.03.02-.05.02-.06.03-.6.38-2.33.02-2.96-.19-.06-.02-.1 0-.12.02-.02.02-.04.05-.02.12.07.23.58.75 1.44.9 0 0 .31.05.76.05.71 0 1.8-.13 2.66-.8l1.68-1.27c-.02.06-.04.13-.04.15-.1.18-.8 1.85-.88 2.05-.29 1.52-.77 2.29-.77 2.29l-4.05 6.19c-.47.86-.51 1.72-.4 2.06.13.4.25.64.69.64.2 0 .47.02.72.04.21.02.42.04.55.04h.06c.62 0 .67.49.67.5 0 .07.02 1.84.04 1.99.02.18.05 1.08.05 1.09 0 0-.04.62.73.93.06.11.02.28-.14.53-.06.12-.26 1.19-.22 1.31 0 .02.01.04.02.06.02.1.06.24.3.35.78.34.79.88.79.9v.02c.11.24-.37 1.21-.69 1.77-.51.8-.28 3.11-.26 3.22.28 1.12 2.41 1.55 2.51 1.57 2.09.09 3.59.31 3.62.31l.59-.02c-.06.06-.11.1-.17.16l-3.8 3.2s-4.36 4.05-7.87 4.05h-.2c-.07 0-.58-.04-1.08-.08-.57-.05-.93-.07-.96-.07 0 0-.08-.02-.17-.03-.41-.08-1.5-.31-2.46-.34-2.33 0-3.77-.92-3.94-2.53-.19-1.14.03-1.7.05-1.77.1-.11 1.1-1.23 1.09-1.72 0-.04-.23-1.04-.57-1.33l-.02-.02h-.03c-.28.08-.47 0-.58-.18-.21-.34-.1-1.05.22-1.42zm52.11-11.29c-.2 3.42-1.66 4.71-2.1 5.02-.02.01-.03.03-.04.04v.02c-.08.07-.17.14-.26.22-.31.29-.65.61-1.22.88l-.3.15c-.09.04-.18.09-.29.14-.28-.12-.65-.31-.94-.6.23-.43.64-1.35.37-1.94a5.84 5.84 0 0 0-.61-1.05c-.07-.1-.14-.2-.19-.28-.05-.09-.09-.42-.12-.77-.07-.67-.16-1.5-.44-1.89-.57-.82-1.67-1.64-2.21-1.9-.28-.13-.74-.1-1.11-.07-.24.02-.51.04-.57-.02 0-.87-.88-3.33-1.71-4.14-.24-.24-1.26-.41-1.68-.28-.39.12-1.45.2-1.69-.16-.03-.04-.05-.08-.08-.12-.04-.06-.07-.12-.11-.19-.03-.06-.07-.13-.11-.19 0-.02-.03-.05-.03-.06 0-.1-.99-3.03-1.3-3.93-.44-.85-1.04-1.02-1.62-1.19-.6-.17-1.47-.52-1.9-.83-.17-.12-.25-.58-.33-1.06-.11-.68-.25-1.46-.68-1.88-.75-.73-3.76-1-3.88-1.01-.07 0-.28-.03-.48-.02.02-.11.03-.19.03-.19l.11-.94c.27.05.65.09 1.06.02.64-.11 1.81-.31 2.66-.25.62.05 1.01.48 1.52 1.02.14.15.28.3.44.46.32.32.61.88.92 1.47.42.81.9 1.73 1.58 2.34.94.85 2.29 1.42 3.1 1.76.2.09.37.15.47.21.28.14.32.34.42.77.06.27.14.63.3 1.11.47 1.35 1.2 1.98 1.85 2.41.38.25 1.26.56 2.12.86.83.29 1.7.59 1.97.81.29.23.37.68.46 1.16.07.4.14.81.34 1.13.28.44.98 1 1.61 1.5.36.28.69.55.9.76.3.3.45.77.57 1.11.08.26.13.4.22.43h.02c.02 0 .05 0 .08-.04.18-.18.08-.79-.13-1.63-.07-.3-.55-.74-1.1-1.25-.09-.08-.18-.17-.28-.26.26-.29.61-.77.65-1.39.06-.97-.31-2.39-.82-3.11-.51-.71-1.12-1.49-2.08-1.81-.22-.07-.39-.12-.52-.16-.45-.13-.53-.16-.9-.55-.47-.49-.97-2.77-1.13-4.5-.11-1.16-.63-1.65-1.37-2.02-.42-.21-1.24-.41-2.11-.63-.71-.18-1.45-.36-2.01-.56-.83-.29-2.42-1.39-3.58-2.18-.59-.41-1.11-.76-1.4-.93-.91-.52-4.66-1.19-5.47-.88-.42.16-.63.43-.73.66-.14-.25-.27-.33-.31-.35-.25-.2-1.03-.46-1.07-.47-.06-.02-.13-.03-.19-.05.22-.17.54-.4.86-.59.59-.34 1.79-.49 2.71-.49 1 0 1.42-.16 1.43-.17l.12-.05-.11-.06s-.35-.17-1.02-.26c-.43-.05-1.34.03-2.06.1-.41.04-.76.07-.94.07-.48 0-1.87 1.07-2.08 1.23-.42-.05-.8-.07-1-.07h-.07c-.36-.03-1.23.12-1.27.13-.36.06-.76.22-.84.26-.18-.32-.29-.7-.25-1.14.04-.45.19-.83.4-.99h.01c.37-.49 1.38-1.19 1.39-1.2.29-.22 3.15-1.52 6.26-1.62 2.76-.09 5.43.01 7.92.31 1.92.23 7.08 2.48 7.13 2.5 1.55.79 2.79 2.58 2.81 2.61.98 1.04 3.07 5.9 3.09 5.94 1.29 4.4 1.54 5.13 1.62 5.25.09.14 1.13 3.63 1.32 9.48zm-1.99 8.66s0 .06-.01.1l-.24.62c-.04.08-.07.16-.11.24v.06l-.13.34c-.16.66-3.35 1.36-4.55 1.58l-.69-.03h-.59l-.33-.02c0-.2-.03-.35-.04-.37l-.13-.58c.05-.05.16-.07.2-.07 1.83-.03 3.41-.67 3.42-.68.05-.02 1.03-.43 1.41-.58.33-.13.69-.54.71-.76.01-.08-.02-.12-.05-.14-.07-.05-.19-.04-.36.04-.78.35-3.45 1.25-3.47 1.25l-.61.09h-.93c-.28 0-.48-.53-.6-.95.06-.08.3-.34 1.17-.34.12 0 .25 0 .4.02h.02s2.79-.53 4.43-1.7c.14-.04.44-.09.67-.03.02.23.06.39.06.4.46.99.36 1.47.36 1.48v.04zm4.86 13.6v.02c-.11.45-.15.86-.16 1.22-.32-.31-.76-.57-1.36-.6-.06 0-.61-.05-.9-.08l-.85.03c-.08-.5-.41-2.13-1.24-2.95a10.7 10.7 0 0 0-1.42-1.21c-.2-.15-.38-.28-.58-.45-.57-.5-1.57-1.28-1.57-1.28-.48-.6-.45-1 .14-2.08.26-.25.41-2.19.45-2.76.39-.07.73-.15 1.01-.23 0 .34.04 1.08.17 1.93.08.57-.11 1.23-.25 1.71-.09.34-.16.58-.13.71.1.33 1.29 1.42 1.78 1.66.1.05.23.11.39.19.64.31 1.71.84 2.14 1.14.31.21.81.75 1.26 1.22.33.35.61.65.77.77.19.15.4.46.56.72-.09.15-.17.28-.21.34zm-7-2.77.02-.21.11.04 1.19.92 1.01 1.03s.49.49.51.96l.02.67h-.24l-1.36-.07h-.02l-.02.02s-.11.09-.33.03h-.04c-.13 0-.7-.06-.94-.67l.1-1.09.09-.53-.09-1.09zm-.5-23.18c-.07.32-.22.61-.33.8-.23-.25-.42-.49-.5-.69-.08-.2-.13-.39-.18-.6-.17-.64-.35-1.3-1.21-1.95-.59-.45-1.48-.7-2.34-.95-.77-.22-1.57-.45-2.12-.82-.37-.24-.62-1.13-.86-2-.16-.57-.33-1.16-.53-1.58-.42-.86-1.33-1.06-2.06-1.22-.18-.04-.35-.08-.5-.12-.74-.22-2.29-1.42-3.29-3.73-.98-2.26-2.08-2.5-2.67-2.63h-.05c-.41-.1-1.83.02-2.78.1-.41.03-.73.06-.84.06-.13 0-.3-.1-.45-.21.13-.49.42-1.17 1.01-1.17 1 0 2.67 0 4.46 1.05.44.26.94.57 1.48.91 1.66 1.04 3.73 2.33 5.21 2.72l.14.04c1.82.47 2.57.66 2.81 1.54.08.29.13.72.2 1.22.13 1.06.3 2.38.82 3.16.36.55 1.05 1 1.78 1.49.77.51 1.57 1.05 1.95 1.69.76 1.27.98 2.36.86 2.89zm-5.05 10.75c-.1-.25-.27-.65-.49-.97-.18-.33-.66-.79-1.53-1.45-.07-.05-.49-.21-1-.38.02-.08.01-.16-.05-.25l-.06-.08q-.16-.22-.15-.67v-.23c.01-.51 0-.62 0-.74v-.24c0-.15-.05-.31-.11-.49.16-.04.35-.08.55-.13.54-.12 1.21-.62 1.68-1.27.15-.21.35-.82.51-1.35.35-.1.79-.22 1.11-.12.54.16 1.67.78 1.91 1.16.14.23.26.69.37 1.13.03.13.07.26.1.38l-2.02.16-1.26.29-1.43.6.36.41.02.02h.03c.14-.02 1.35-.16 1.46-.2 1.99-.56 3.25-.17 3.26-.16h.02s.08.05.12.07c.05.08.09.15.14.23.25.4.51.81.54.96.03.23-.19.92-.57 1.51-.23.11-.66.29-1.07.3l-.82-.08-.55-.12c-.1-.05-.35-.15-.41-.15-.05 0-.3-.13-.51-.24-.49-.39-.55-.4-.57-.4-.05 0-.4-.12-.72-.24l-.69-.05.41.49.44.24.36.09.62.53.57.38.35.16.48.16.88.09 1.06-.05c.38.09.79.24.8.33l.11.3c-.06.02-.1.04-.17.06-.01 0-1.1.67-3.07.67h-.42l-.59-.64zm-4.95-3.46a6.05 6.05 0 0 1-1.15-.84.818.818 0 0 1-.09-.08c-.97-.81-1.49-.95-1.52-.96-.05 0-.11-.01-.16-.01h-.04c-.27-.31-.66-.82-.6-1.08.09-.4.26-.66.51-.78.17-.08.87-.1 1.37-.1.01 0 .02.01.04.02.35.22 1.22.73 1.23.73.49.26.82.68.97 1.24.18.65-.11 1.73-.19 1.97-.18-.06-.32-.11-.37-.12zm-2.1-11.45c-.51.07-1.22.15-1.48-.06-.22-.19-.46-.52-.68-.85-.19-.27-.36-.53-.53-.7-.29-.29-.69-.52-1.1-.71-.15-.27-.59-1.07-.86-1.31-.7-.64-1.18-1-1.61-1.32-.19-.14-.37-.28-.55-.42-1.11-.89-2.34-1.37-2.78-1.53.25-.67.41-1.22.52-1.65.32.06.67.09 1.05.11 1.04.06 2.23.13 3.17.87.09.07.17.61.24 1.08.11.73.22 1.49.47 1.65.3.19.7.34 1.12.51.81.32 1.74.69 2.3 1.39.72.9.74 2.42.72 2.95zm5.72 5.72c-.11.48-.32 1.28-.53 1.65-.31.56-.68.8-1.1 1.04-.24.14-.56.13-.79.1-.14-.25-.4-.4-.71-.54-.19-.09-.39-.18-.54-.31-.22-.17-.56-.41-.85-.6.38-.29.7-.91.79-1.33.15-.66.17-1.12.15-1.74v-.11c-.02-.53-.04-.94-.13-1.17.35-.3.94-.75 1.91-.56.81.16 1.51 1.89 1.77 2.79.04.15.03.47.02.78zm-13.06-10.63c.72.55 1.51 1.35 1.81 1.65l.09.1c.11.1.17.24.23.38-.57-.14-1.16-.25-1.51-.25-.43 0-1.15.21-1.62.59-.06.05-.1.09-.15.14-.37-.95-1.25-1.91-1.29-1.95-.59-.59-.54-.92-.54-.92.12-.25.22-.48.32-.71.64.09 1.8.32 2.67.98zm-1.11 4.99c.11-.47.11-1.04.08-1.5.26-.3.63-.66.99-.75.7-.18 1.54-.03 2.11.12.58.16 1.56.42 2.07 1.05.14.17.27.37.39.56.25.39.5.79.89 1 .26.14.96.29 1.42.39.13.03.25.05.33.07.43.1.7.28.9.49v.04c.12.35.52 1.6.52 2.78 0 .19-.11.94-.43 1.55-.04.07-.06.14-.09.2-.06.16-.11.26-.23.26-.04 0-.09-.01-.15-.03-.16-.06-.27-.11-.37-.15-.16-.07-.29-.13-.53-.2-.39-.11-.91-.11-.93-.11 0 0-.95.19-1.29-.27-.16-.22-.24-.48-.31-.72-.09-.3-.17-.56-.4-.63-.1-.03-.17-.07-.25-.11.03-.04.06-.08.08-.12.33-.48.42-.68.48-1.08s-.01-1.15-.12-1.49c-.2-.65-.59-1.28-.71-1.46-.2-.31-1.49-.83-1.8-.83h-.02c-.08 0-.1.06-.11.08-.04.21.78.7.88.76.47.27.92 1.1 1.06 1.56.12.41-.24 1.51-.3 1.7-.17.06-1.12.37-1.6.19-.3-.11-.55-.25-.82-.39-.21-.12-.44-.24-.7-.35-.41-.18-1.13-.96-1.5-1.37.13-.62.45-1.24.46-1.25zm.65 3.07c.35.11.52.35.68.55.04.05.07.08.1.12.07.72.2 1.89.32 2.36.07.28.17.52.26.73.13.31.24.58.2.86-.05.31-.03.82-.01 1.18-1.16.04-1.35-.09-1.36-.1-.19-.24-.57-2.96-.79-4.74l-.33-1.38c.27.14.61.3.94.4zm2.08 4.24-.06-.24c-.16-.59-.36-1.32-.35-1.76 0-.37-.04-.93-.07-1.24.19.09.41.21.61.33.22.13.43.25.61.33.09.04.17.05.26.05.04 0 .07-.02.11-.03-.06.17-.11.34-.15.43-.13.28-.14.83-.14 1.22s.1 1.12.22 1.41c.07.16.17.59.25.93-.4.04-.75.07-1.06.1-.03-.38-.1-1.08-.22-1.53zm2.84 2.66v-.02c-.22-.31-.31-.7-.32-.77.02-.11-.01-.2-.08-.28 0 0-.02-.01-.03-.02l-.06-.05s-.62-.5-.62-1.13c0-.28-.08-.64-.14-.99-.1-.49-.19-.99-.08-1.14.11-.15.34-.3.53-.41.19.18.36.36.45.5.05.06.09.13.13.19.27.39.53.77 1.13.81h.11c.49.04.75.07 1.24.24-.32.02-.67.07-.83.23-.26.27-.62.69-.69 1.18-.05.32.03.7.12 1.14l.02.08c.02.12.09.25.15.36-.23.16-.44.35-.61.52-.34-.17-.41-.41-.41-.42zm22.77 13.34s-.06.03-.1.03h-.08c-2.4.47-3.19.17-3.43-.16-.17-.24-.07-.55-.02-.67.06 0 .17-.09.69-1.8.19-.53-.32-1.2-.39-1.28-.08-.2-.91-1.13-1.17-1.42.03-.04.06-.09.08-.11h.03c.26-.04 1.08-.22 1.11-.23 1.71-.21 3.17-.2 3.6 2.13-.04.17-.47 1.92-.34 3.53zM93.99 75.16l-.83 1.28s-.09.16-.2.38c-.12.02-.29.03-.51-.06-.28-.11-1.06-.89-1.69-1.53l-.21-.21c.11-.06.26-.13.47-.18.07-.02.13-.02.19-.03.45.29 1.08.48 1.99.29.03 0 .56-.05.9-.1-.06.08-.12.15-.12.15zm-3.48-1.05c-.23.06-.43.2-.57.32-.04-.04-.11-.1-.14-.12-.85-.58-1.9-.36-2.45-.18-.18.06-.48.23-.82.45a.58.58 0 0 1-.41-.18l-.13-.13c-.41-.41-.82-.82-.93-.88-.36-.23-.8-.37-1.08-.46l.14-.16.29-.41s.46-.68.93-1.01l.09-.05c.31-.15.67-.33 1.01-.33h.02l1.82.14s1.21 0 1.44.96l.62 1.68s.06.16.19.35zm-7.04-.44c.38.04.84.17 1.29.5.28.21.74.68.99.94-.65.47-1.29.98-1.51 1.2-.14.14-.32.32-.49.51-1.79-.3-2.82.55-3.1.83-.95.96-2 .97-2.61.73.33-.27.78-.63 1.04-.84.47-.37.94-1.02 1.38-1.66.47-.67 2.15-1.84 2.15-1.84zm9.06 35.25h-.25c-1.47 0-2.45-.37-2.93-1.09-.74-1.12 0-2.74 0-2.76l.46-1.12c.07-.2.17-.18.36-.15l.2.03h.06c.2 0 .32-.05.36-.15.1-.22-.21-.56-.25-.59-.19-.2-.39-.54-.38-.89 0-.23.11-.45.31-.63l.02-.02v-.02s0-.09-.04-.12c-.09-.08-.3-.05-.33-.05h-.02c-.61.41-.88.09-.89.08-.11-.17-.15-.34-.12-.49.05-.25.28-.39.28-.39h.01s.33-.34 1.49-.03c.29.08.98 0 1.01 0 .55-.1.54-.54.54-.55v-.03l-.02-.02c-.29-.21-.42-.32-.5-.39a.928.928 0 0 0-.32-.2c-.09-.03-.15.04-.22.13-.15.2-.41.52-1.14.01-.54-.51-.66-.5-.76-.49-.13 0-.23 0-.31.01-.32.02-.36.03-.49-.45l-.05-2.44.02-.66 1.02.13c.52.18.85.17.99.16.06.02.39-.07.6-.28.19-.19.37-.53.14-1.09l-.05-.13-.05.13c-.26.64-1.53.5-1.68.48-1.06-.76-2.49-.41-2.54-.39-.54.08-.89 0-1.05-.22-.26-.37.09-1.03.09-1.03l1.78-2.82s1.95-2.73 2.98-4.48v-.02c.22-1.77.53-2.53.57-2.61.73-.81.96-1.53 1-1.66 1.03-3.4 1.21-4.11 1.21-4.12.13-.54.81-1.66 1.59-1.81.07 0 .16-.02.28-.04.5-.07 1.35-.18 1.62-.13.07.01.16.02.26.03.5.06 1.33.15 2.54.67 1.16.35.39 3.28.39 3.3l-1.72 3.73c-.17.33.47.9.53.95.1.14.96 1.21 1.01 1.26 0 0 .82.75.7 2.14.1.89-.11 1.24-.32 1.62-.09.16-.19.33-.27.54v.02c-.05.78.33 2.25.35 2.32 0 .01.01.04.02.05-.38.29-1.04.73-2.12 1.15-.23.09-.5.19-.77.29-1.43.53-1.88.72-1.88.87 0 .02 0 .06.05.09.1.08.35.1.61.1.28 0 .58-.03.74-.06.38-.08 1.45-.43 1.82-.58.27-.1 1.28-.54 1.81-.77.08.37.16.77.23 1.12-.19.11-.41.23-.61.32-.34.15-.83.41-1.2.59-.17.09-.31.16-.4.2-.18.09-.87.51-.89.64 0 .03 0 .06.03.09.09.1.37.22.54.22h.03c.12-.01.58-.2 1.22-.47.2-.08.38-.16.52-.22.31-.12.68-.3.93-.42 0 .02.01.06.01.06.16 2.29.27 2.73.34 2.81.19.22 1.5.19 4.01.04 1.1.52 1.27 1.35 1.35 1.71l-.24.67c-.37.93-1.85 5-1.86 5.03-.05.09-.09.2-.14.31-.23.54-.51 1.2-1.7 1.43-1.23.47-1.97.67-3.42.93-2.41.55-4.14.55-4.16.55l-2.97.06zm5.57.88c-.03-.07-.04-.09-.04-.16 0-.13.59-.27 1.14-.32 5.23-.9 5.98-2.29 6.26-2.82.03-.05.05-.1.08-.14.9-1.58 2.47-6.17 2.56-6.42.07-.07.56-.64.96-.75.54-.16 1.05.4 1.05.4h.02c.25.16 1.3.98 1.31.99.4.29 1.29.5 1.33.51.26.06 1.06.36 1.54.54.2.08.34.13.39.15.14.04.79.47.83.59.02.05.06.1.12.15.04.13.08.29.07.44l-.33.27-4.37 3.19c-3.47 2.69-8.05 8.52-8.1 8.58l-2.57 3.22-.33.49-.34-1.78-1.08-4.97c-.29-1.62-.44-2-.51-2.16zm32.4 7.51c-.25-.21-.62-.53-1.04-.98-.89-.94-1.79-1.62-2.82-2.13-.11-.05-.21-.11-.32-.16-.96-.47-1.94-.95-2.23-1.68-.15-.37-.03-.61.11-.92.17-.36.36-.77.18-1.48-.21-.82-.39-1.5-.49-1.9.45-.2.65-.36.66-.38.13-.08.27-.22.41-.36.13.21.29.46.35.58v.02s.78.71.91 1.22c-.08.24-.83 2.12-.84 2.14-.18.73-.16 1.22.08 1.47.16.17.44.23.78.15l4.41.26c.76 1.22.78 2.24.74 2.67v.04c0 .05 0 .23-.64 1.03-.01.02-.12.19-.25.41z" class="cls-2"/><path id="path23" d="M79.2 94.98c.04-.31.02-.71.01-.97v-.22c0-.09.05-.2.12-.23.07-.04.19-.05.37-.04h.12c.15.02.32.03.49.05.2.03.62.1.74.13.05.02.13.06.2.1.09.05.19.11.3.15.05.02.12.04.2.07.24.08.6.21.72.29.15.11.54.56.61.65.07.11.23.31.3.38.08.08.25.19.43.24.18.05.42 0 .43 0l.09-.02-.06-.07c-.05-.06-.41-.62-.69-1.06-.29-.45-.47-.73-.5-.77-.07-.08-.2-.15-.41-.21-.08-.02-.21-.06-.34-.1-.1-.03-.2-.07-.28-.09-.09-.03-.24-.1-.41-.18-.14-.06-.28-.13-.4-.18-.06-.02-.13-.06-.22-.09-.28-.12-.65-.29-.95-.32-.37-.04-1.66.05-1.8.11-.13.06-.21.19-.2.31 0 .07.05.2.13.42.03.07.05.14.07.2 0 0 .08.24.11.43.02.2.03.79 0 1.11-.03.29-.08.42-.15.58l-.02.05c-.04.1-.18.29-.29.44-.17.23-.18.26-.17.3l.02.03h.08c.2 0 .8-.06.91-.16.11-.11.37-.92.42-1.35z" class="cls-2"/><path id="path24" d="m82.53 95.76-.1-.1c-.13-.13-.24-.22-.29-.25-.03-.02-.1-.08-.16-.13s-.11-.1-.15-.12c-.05-.04-.14-.1-.2-.14l-.07-.05s-.31-.21-.38-.23h-.02c-.06-.03-.24-.1-.28-.12-.01 0-.04-.03-.07-.06-.05-.04-.1-.09-.15-.12-.07-.04-.55-.14-.65-.15-.12 0-.34.16-.39.22-.03.05-.02.13 0 .19.01.04.05.17.13.21.04.02.14.06.24.1-.04.14-.1.34-.11.49-.02.21-.03.45 0 .59.03.14.19.39.29.5.1.11.31.17.32.17h.03c.04 0 .09 0 .14-.05.06-.06.07-.15.05-.28-.05-.26-.05-.35-.06-.51v-.09c-.01-.13.09-.31.17-.46.05.02.12.05.15.07.14.09.5.37.6.47.03.03.08.06.12.09.14.08.22.14.18.29-.06.25-.22.36-.37.43s-.37.16-.51.2c-.15.05-.52.1-.63.11-.15.02-.41.04-.41.04h-.02s-.18.08-.19.18c-.01.11.12.17.13.17h.5s.17-.01.3-.01h.5c.14-.02.4-.1.53-.16.16-.06.83-.44.9-.49.07-.06.15-.17.18-.24.04-.08.02-.24-.02-.34a1.6 1.6 0 0 0-.29-.44z" class="cls-2"/><path id="path25" d="M92.69 85.44h.04c.26 0 1.22.23 1.65.36.41.12.58.19.7.27.11.08.59.51.89.81.12.12.23.18.33.23.13.07.22.12.24.29 0 .04.03.1.16.14.05.01.1.02.15.02.16 0 .34-.05.42-.15.06-.07.07-.15.02-.24-.07-.15-.09-.18-.14-.2-.02-.01-.07-.04-.23-.26-.17-.23-.36-.39-.58-.58-.08-.06-.16-.13-.24-.21-.4-.35-.57-.48-.77-.59-.02-.01-.05-.03-.09-.05-.32-.19-1.16-.69-2.25-.72-.26 0-.91.41-.99.45l-.04.02.14.39h.03s.34.05.56.02z" class="cls-2"/><path id="path26" d="M96.75 88.98h.19c.14-.01.17-.06.2-.12.02-.04.05-.09.17-.15.06-.03.06-.08.05-.1-.07-.15-1.22-.21-1.43-.11-.1.04-.3.09-.5.13-.28.06-.57.12-.7.21-.06.04-.16.08-.27.12-.25.09-.54.2-.51.43 0 .05.03.09.07.12.04.02.09.04.16.04.19 0 .48-.1.81-.21.08-.03.16-.06.22-.07.19-.06.25-.07.38-.09.1-.02.25-.04.52-.1.42-.09.54-.08.66-.07z" class="cls-2"/><path id="path27" d="M94.22 87c.32.09.89.5 1.04.67-.01 0-.02.01-.03.02-.11.07-.35.19-.57.3-.5.25-.64.33-.66.39v.05c0 .01.02.03.05.04h.04c.25 0 1.2-.28 1.39-.39.21-.13.34-.39.35-.4v-.02l-.05-.31h-.01c-.05-.1-.12-.22-.22-.35-.18-.24-1.14-.76-1.45-.81-.02 0-1.65-.27-1.83-.09-.16.15-.05.56-.04.61v.04h.11c.08 0 .28 0 .52.02 0 .17 0 .38.02.52 0 .04.01.08.02.12.02.17.04.3.17.51l.06.09c.07.11.12.2.27.2.03 0 .06 0 .1-.01.19-.04.18-.25.17-.47 0-.12 0-.24.01-.35.05-.22.14-.36.23-.47.11.02.22.04.33.07z" class="cls-2"/></g></g></g></svg>