<svg xmlns="http://www.w3.org/2000/svg" xmlns:xlink="http://www.w3.org/1999/xlink" viewBox="0 0 283.5 283.5" xml:space="preserve"><path fill="#998675" d="m56.3 168 3.2 44.3 108.6 25.4 47.8-33.3.8-38-46.2 20.2zM117.9 129.9l15.4-48.1 91 6.2-13.2 54.8z"/><defs><path id="a" d="m107.2 137.5-42 13.6 105.7 15.7 35.3-17.5z"/></defs><use xlink:href="#a" overflow="visible" fill="#998675"/><clipPath id="b"><use xlink:href="#a" overflow="visible"/></clipPath><g clip-path="url(#b)"><path fill="#FFDB28" stroke="#010202" stroke-width=".4" stroke-miterlimit="10" d="M115.2 120.6c.3-.2.9.2 1.8 1.2 0 0 .5.2 1.1.9.1 0 1 .6 2.4 1.9l2 1.5 1 .8 1 .8 4 3 1.9 1.3c.3.3.6.4.9.2l1.2-.8h.4l.3.4 1.6 2.7.5.9 1.6 1.3c1.1.7 1.8 1.2 2 1.5.1 0 .7.2 1.8.9h.1c-.2 1-.6 2-1.2 3l-.4.7-.5.9-.7 1c-.2 0-.5.4-.8 1-.1 0-.4-.1-.9-.5l-.8-.7c-.2.1-.5-.1-1-.7 0 0-.5-.2-1.2-.8 0 0-.3-.1-.7-.6-.1 0-.5-.2-1.3-.9-.7-.6-1.2-1-1.5-1l-2.8 2.3-1.3 1-1.4 1.2 1 2.3 1.1 2.1 1.5 2.8v.1c.1.1.1.2 0 .4l-1.4.4-1.6.8c0-.1-1.3.6-3.8 2.2l-.2-.1a15 15 0 0 0-1.1-2.8s0-.4-.4-1c.1-.1 0-.7-.5-1.8l-.2-.2-1.1 1.3-.2.1c-.1.1-1-.6-2.4-2.1l-1.7-1.5-1-.8-.3-.2c-.2-.3 1-1.4 3.7-3.4.5-.4.5-.9 0-1.5l-.7-1.6c.1 0 0-.5-.5-1.3l-1-2.5c.1-.1-.2-.8-.8-2.1 0-.4-.1-.7-.4-1 0-.6-.2-1-.5-1.4 0-.4-.1-.7-.4-1.1 0-.3 0-.7-.4-1.1 0 0-.1-.8-.7-2.2 0-.2 0-.4-.3-.8a15.3 15.3 0 0 1 3.5-5.1l.3-.2 1.4-1.1zm2.4 9.7.7 1.6.4 1.1 1 2.6.5 1.2.6 1.4h.3l3.1-2.3v-.1l-3.2-3-3-2.5c-.1 0-.3-.1-.4 0z"/><path fill="#FFDB28" stroke="#010202" stroke-width=".4" stroke-miterlimit="10" d="m150 127.3 1.2.2a23.7 23.7 0 0 1 6.5 2.6l1.2 1 1.3 1.7.5 1.3v.7c.2 0 .2.3 0 1l-.2 1.3-.6 1-.5.7c-1 1-2.4 2-4.2 2.7l-1.4.5v.1l.6.2a23 23 0 0 1 4.6 2.2c1.2 1 1.9 2 2 2.7.3.4.4 1.4.3 3v.4c-.8 1.8-1.5 3.1-2.4 4a12.6 12.6 0 0 1-4.3 2.6c-1.3.5-2.3.8-3.3.9h-1c0 .2-.4.3-1 .3h-1.1c0 .2-.4.2-1.2.2h-4.5l-2.8-.3-4.6-1a6 6 0 0 1-2.3-1l1.5-4.5v-.1c.4-1.2.8-2.6 1.1-4.3l.5-2.5a77.8 77.8 0 0 0 2-17.2v-.2c.2-.2.8-.3 1.8-.4h1c0-.2.6-.2 1.6-.2h3.3c.3 0 1.8 0 4.4.4zm-5 6.8c.1.4 0 1.5-.2 3.2l-.2 2h.1a9.7 9.7 0 0 0 6.3-1c.4-.3.8-.7 1-1.2l.2-.8c.2-.5-.3-1.1-1.4-1.8l-.7-.2-2.2-.5c-1.9-.1-2.9 0-3 .3zm-1.6 12.2-.4 2.2-.5 1.6v.3l-.5 1 .1.1 1.2.3a16.7 16.7 0 0 0 6.8-1.2c.9-.4 1.5-1 1.8-1.6v-.2l.1-.2c.1-.6-.7-1.2-2.6-1.9l-2-.4-3.1-.2c-.6 0-.9 0-.9.2z"/><path fill="#FFDB28" stroke="#010202" stroke-width=".4" stroke-miterlimit="10" d="M166.4 117c.7-.2 1-.1 1 .2l.8 2 .2 1.5c.5 2.7.5 4.2.3 4.7l-2.7.3c-1.5.3-2.5.6-3 1-.8.3-1.5.8-2.3 1.5a9.1 9.1 0 0 0-2.6 4.3v.6c-.2 0-.3.9-.3 2.6l.3 1.4c.4 1.3.7 2 1 2.2.9 1.4 2 2.3 3.6 2.8a7 7 0 0 0 2.5.3c0 .1.3.1.8 0l1.2-.2c1.7-.5 2.8-1 3.2-1.3l1.4-.9 1.2-1.3h.2a44.9 44.9 0 0 1 2.7 7.7c-.5.5-1 1-1.7 1.2-.1.2-.4.4-.9.6 0 .2-.3.3-1 .5.1.1-.4.3-1.4.7l-2 .7-1.3.4-1.2.2a16.1 16.1 0 0 1-8-.6l-1.4-.6-1.3-.9c-1.8-1.5-2.7-2.5-2.8-3-.5-.3-1.1-1.4-2-3.2l-.7-2.6a33.5 33.5 0 0 1-.2-5.7c.1 0 .2-.4.2-1.1.3-.8.4-1.4.4-1.7 0 0 .2-.3.3-1a20.6 20.6 0 0 1 12.9-12.8l2.6-.6z"/><path fill="#FFDB28" stroke="#010202" stroke-width=".4" stroke-miterlimit="10" d="m185 133.5 3 1.3 2.7 1.6 1.1.8.9.7c0 .1.2.4.8.7l1.4 1.6.8 1.2c0 .1 0 .3.3.4 0 .1 0 .4.4.9.6 2 .9 3.4.7 4.3l-.2 2-.7 1.9c-.4 1-1 2-1.7 3a20.6 20.6 0 0 1-5.6 4.9c-.1.3-1.6 1-4.5 2.3a21.4 21.4 0 0 1-5 1.2c0 .1-.5.2-1.6.3l-.6.1h-3c-1 0-1.5-.1-1.9-.3 0 .2-.6 0-1.8-.3 0 .2-.4.1-1-.1l-4.9-2c-1.6-.7-2.4-1.3-2.3-1.6l2.3-5 2.9-7.2 3.2-8.2v-.1h-.1l-3-.4-1.2-.1h-.4l-.2-.3c.6-.8 1-1.5 1.2-2l.4-1.1 1-3.6c.6-.2 1-.2 1.4 0 0-.1.4-.2 1 0h1.2s.9 0 2.4.3c.1 0 .7 0 1.7.3.1-.2.6 0 1.6.3.2-.1.9 0 2 .5.3 0 1 0 1.9.4l3.3 1.3zm-7 6c.1.1 0 .5-.2 1.2l-.1.4-4.6 11.5-.9 1.9c1.6.4 2.6.6 3.2.6h2.9a12.5 12.5 0 0 0 8.3-4.4l.6-1.2c.8-2 .8-3.5.1-4.6-.3-.9-1-1.8-2.3-2.7 0 0-1-.7-3.2-1.8-2.4-.8-3.6-1.1-3.7-.9z"/></g><path fill="#7D6D60" d="m65.7 151.5 45.7-14.6.8 21.1zM240.5 91.8 229 146.9l14.3-10.3c3.3-2.4 9.2-9.2 9.2-12.4 0-3.2-.8-6.5-1.6-9.7-.8-3.3-10.3-22.7-10.3-22.7zM133.8 78.5l-16 51.6s12.8 3 18.2-.5c12.4-8.1 9.4-18 7.8-21.9-1.3-3-6.5-10.8-7.3-14-.8-3.3-2.7-15.2-2.7-15.2z"/><path fill="#007A9C" d="m59 211.5 109.1 26.2 49.2-33 1.9 12.7-49.5 34.9-111-25.2zM233.8 83.4l7.3 3.5-13 64.9-8.1.5-.3-3.2-2.2-1.4z"/><path fill="#E2CFB5" d="m51.6 151.4 59-19.5 108 15-47 22.2-.8-3 31.6-15 4.9-2.3-95.1-12.2-43.8 13.5-6.2 3.3z"/><path fill="#E2CFB5" d="m56.5 149.6 114.3 17.3.5 1.9L51.4 152zM129.2 75.8l104.2 6.3-15.6 64-7.3-.8L224 87.7l-91-5.9z"/><path fill="#E2CFB5" d="m111.4 131.8 17.8-55.4h5.7l-17 53.5 93.2 12.9 6.2 3.3z"/><path fill="#797A7A" d="M84.6 180.4s-4.8 1.6-7 3.8C75.4 186.3 70 195 70 195s-1.6 8 .6 10.8A62.4 62.4 0 0 0 88.4 217c3.2.6 7-1 8.6-2.1 1.7-1.1 9.2-14.6 9.2-17.3s-4.8-7.6-4.8-7.6l-9.8-6.5-7-3.2z"/><path fill="#007A9C" d="M171.3 168.8 52 151.8l1.7 14.6 43.3 8v.4c-.2-.1-.2 0 0 .1l.2.4a12.8 12.8 0 0 0 .2.7l.2.2c0 .3.2.5.3.8l.5.4v.1c.4.6.9 1.2 1.5 1.5l.1.1.2.2c.2.2.6.4.4.1h.1c.2 0 .3-.2.4-.3l.2-.3h.1l-.2.2c-.1.1.4.7.6.6l1-.8 1 .3h.1l.6-1.2c0-.2.2-.4.3-.5h.2c.8-.4.2-1.2-.4-.9l-.1.1v-.7l66.4 12.3 47.8-23.5.3-17-47.6 21z"/><path fill="#B2B2B2" d="m84.6 183.1 8.7-13.5c1.6 1.6 2.7 6 2.7 6l-4.4 8L88 187l-2.2-.6-1-3.2zM105.7 166.9s-2.7.5-2.2 3.2c.6 2.7 2.7 5.4 2.7 5.4l-.5 8.7.5 2.7 4.9-.6 2.7-7.5-1-6-2.8-3.7-4.3-2.2z"/><path fill="#036D85" d="m171.3 168.8 47.6-21.1-.3 17-48.1 21.9zM168.1 237.7l49.2-33 1.9 12.7-49.5 34.9z"/><path fill="#036D85" d="m232.9 82.9 8.2 4-13 64.9-8.1.5-2.7-6.2z"/><path fill="#08A3C6" d="M62 160.4a4 4 0 0 0-.3-.3l.3-.5h.2c0-.3-.2-.5-.5-.6l-.1-.2-.4-.3a.2.2 0 0 0 0-.1c-.2-.2-.6-.5-.7-.4a2 2 0 0 0-.3.6c-.1 0-.2-.1-.2 0 0 .5-.5 1-.6 1.6l.2.2c0 .2.3.3.4.3h.5c0 .2.6.7.6.5l.2-.2.4.2a8.3 8.3 0 0 0 0-.6v-.2c.2.1.3.3.5.3l-.1-.3zM163.8 176.3c0-.2-.4-.6-.6-.5l-.6.5h-.1v.5c-.2 0-.4-.1-.3.1v.2l-.2.3c0 .3.4.7.6.7h.1c.1.2.6.5.6.4 0-.2 0-.3-.2-.5h.1v-.1l.2-.2c.2-.4.4-.9.4-1.4zM67.1 221.1v-.5c0-.2-.3-.4-.5-.5 0-.2-.6-.6-.7-.5h-.3a1 1 0 0 0-.6-.6l-.3-.1c-.5-.2-.4.7-.4 1-.1-.1-.6-.5-.5-.2.2.3.2.7.3 1.1l.2.4v.6c0 .3.3.6.6.6l.2-.3c.2.2.5.3.6.1h.5c.3.2.4 0 .2-.2l.3-.3h.4v-.6zM163.3 242.8c.1 0-.4-.5-.6-.5 0-.3-.5-.7-.6-.5v.2l-.5-.3h-.5v.1l.1.8v.2a1 1 0 0 0-.3.1l-.2.4-.2 1.2c0 .1.5.6.6.5l.6-.8c.2.2.4.3.5.2.1-.2.3-.3.3-.5h.2c.1 0 0-.2 0-.2v-.6l.6-.3zM173.5 242.7v-1c0-.2-.3-.5-.5-.5 0-.2-.5-.7-.6-.6l-.4.7c-.1 0-.3 0-.3.2l.1 1.3v.1c.2.3.5.5.6.4 0 .2.4.5.6.5.2 0 .5-.4.5-.5v-.6zM178.4 175.3c.1-.2-.4-.7-.6-.6a7 7 0 0 0-.5.4v-.4c0-.2-.5-.7-.6-.5l-.5.5v.2l-.2.3-.2.6h-.1v1l-.1.2v1c0 .2.6.6.6.5l.4-1h.2v-.6l.3-.3c.3.4.7.6 1.2.8.3.2-.2-.4-.4-.5-.3-.2-.6-.3-.5-.7l1-1zM214.6 158.9c0-.3 0-.6-.2-.8-.2-.1-.5-.4-.8-.2l-.3.5-.4.7s0 .2.2.3l-.2.2s0 .2.2.3l-.2.8c0 .2.5.7.6.5.5-.5.5-1.2.9-1.8v-.2c.1 0 .2 0 .2-.2v-.1zM225.3 142.8c0 .2-.2.4-.3.5h-.4l-.1.2h-.2c0-.1 0-.1 0 0 0 0 0 .2.2.3l-.2.1v1.1c0 .2.4.7.6.5.2-.2.6-.5.7-.8.2-.4.2-.9.3-1.3.1-.2-.4-.7-.6-.6zM237.1 91.7l.1-.1c.3-.3-.2-.8-.5-.9-.2-.1-.5-.4-.6-.3 0 .2 0 .4-.2.6h-.3l.1.3h.1l-.2.8-.5 1c-.2.2.4.7.6.6l.3-.5h.5l1-1c0-.3-.2-.4-.4-.5zM213 215.2c0-.2-.3-.4-.5-.5l-.1-.2c-.1-.1-.4-.4-.6-.3-.4.3-1 .8-.8 1.4l.3.4v.4l.1.2-.1.3-.2.2c0 .2.4.5.6.5.3.1.6-.4.7-.9l.6-1-.1-.2v-.3z"/><path fill="#007A9C" d="M159.7 66.4s2.7-3.8 5.4-4.3c2.7-.6 14.6-2.2 17.9-1.7 3.2.6 11.3 3.8 11.3 3.8l-1 12 1 3.2h-10.8s-1-4.4-2.2-6c-1-1.6-5-2.8-5-2.8l3.4 7.7-11.3-.6-8.7-11.3z"/><path fill="#010202" d="M52.4 151.6v-.6l-1.5.4c0 2.5.2 5 .5 7.4.4 2.7.7 5.7 1.9 8.2.4.9 1 1.5 2 1.3.2 0 1-.2 1-.5 0-.2-.5-.2-.7-.2.2 0 0 0-.1-.1l-.4-.5c-.4-.5-.6-1.1-.8-1.7a64.3 64.3 0 0 1-1.9-14.3c0-.3-1.5 0-1.5.4v.6c0 .3 1.5 0 1.5-.4zM220 150.5v-3.3c0-.2-1.6 0-1.6.4 0 5.8-.5 11.6-.6 17.3 0 .3 1.6 0 1.6-.4 0-5.7.5-11.5.5-17.3l-1.5.4v3.3c0 .2 1.5 0 1.5-.4z"/><path fill="#010202" d="M219 163.7h-.6c-.3 0-.6.1-.8.3-.1 0-.2 0-.2.2l-.1.2v.5l1-.6h-.4l-.7.1-.2.2-.2.1v.3l.4.2h.6c.3 0 .5 0 .8-.2l.2-.3v-.7l-1 .6h1.1l.3-.2.2-.2v-.3l-.5-.2zM216.8 166.6l-2 34.8-.2 5.1c0 .3 1.6 0 1.6-.4 0-4 .3-8 .5-12l1.1-19.2.5-8.8c0-.2-1.5 0-1.5.5zM168.6 237.5v-.6l-1.6.4c0 5 .6 10.1.6 15.2 0 .3 1.6 0 1.6-.4 0-5-.6-10.1-.6-15.2 0-.3-1.6 0-1.6.4v.6c0 .3 1.6 0 1.6-.4zM107.4 164.2a3 3 0 0 0-1.4.7 9 9 0 0 0-1.6 1.4 6.6 6.6 0 0 0-1.8 5.1c.2 1.5 1 2.8 1.8 4 .4.4 2-.2 1.5-.7-1.6-2-2.4-4.6-1-7a7.7 7.7 0 0 1 2.4-2.4l.1-.1c.1 0-.1 0 0 0h.1-.3c.3 0 .9-.2.9-.6 0-.3-.4-.4-.7-.4z"/><path fill="#010202" d="M101.6 161.2c-.2 0-.8.3-.5.7.2.2.7.1 1 0l.4-.1h.3c.3-.1 0 0 0 0l.2-.1h.7v-.1c.2 0-.1 0 0 0h.8c.1 0-.2 0 0 0h.1l.5.2c.1 0 0 0 0 0l.3.1.3.1s.2.2 0 0l.5.5c.7.7.9 1.8.9 2.9 0 .3.4.3.7.3.2 0 .8-.2.8-.5 0-1.7-.4-3.5-2.1-4.2a6.6 6.6 0 0 0-4 0h-.5l-.2.1h.6l.2.2v.3l-.3.2c.1-.1-.2 0 0 0 .1 0 .6-.3.3-.6-.2-.3-.8-.2-1 0z"/><path fill="#010202" d="M101.6 161a16 16 0 0 0-4.7 2.9 9.1 9.1 0 0 0-2.6 5c-.8 4 1 9.9 5.3 11.2 1.1.4 2.4.5 3.6.1.6-.1 1.2-.4 1.6-.8.2-.3.5-1.2.8-1.2.8 0 1.3-1.1.2-1-.6 0-1 .2-1.5.6-.3.3-.4.8-.8 1.2-.7.9-2.8.4-3.7-.1-2.3-1.3-3.5-4.2-4-6.6-.3-2.4 0-5 1.4-7 1.2-1.7 3.2-2.6 5-3.4 1-.4.1-1.1-.6-.8z"/><path fill="#010202" d="M94.6 167c0-.1.2-.2 0 0l-.5.4-1.6 1.6a39 39 0 0 0-5.3 7.3 71.5 71.5 0 0 0-3.9 7.8c-.3.8 1.3.8 1.5.2 2.6-6 5.7-12 10.6-16.5.3-.2.8-.6.8-1 0-.8-1.5-.5-1.6.2zM105 166.6c.7.7 1.5.4 2.3.8.5.2 1 .6 1.4 1l1.1.8c1.5 1.5 2 3.7 2.7 5.6 1.4 3.9.7 9.2-2.6 12l1.4-.1v-.6c0-.4-1.5 0-1.5.5v.5c0 .4 1.2 0 1.4-.1 3.2-2.8 4.4-8 3.1-12-.6-1.8-1.2-4-2.4-5.6a8.7 8.7 0 0 0-2.4-2c-.3-.3-.7-.8-1.2-.9-.7-.2-1.2.1-1.9-.4-.3-.4-1.8.2-1.4.5z"/><path fill="#010202" d="M103.3 172.5v.5c0 .2.4.3.5.3h.5l-.5-.3c1 1.9 1.6 3.8 1.7 6 0 1.7-.5 3.4-1 5-.2.8-.4 1.6-.2 2.3.1.6.7.7 1.2.9 1.2.4 3 .7 4-.2.3-.2.2-.4 0-.5-.4-.1-1 0-1.2.3.3-.3.2 0 0-.1h-.3l-.9-.2c-.4 0-1.1-.2-1.3-.6-.3-1 .5-2.5.7-3.4.4-1.7.7-3.4.5-5.1-.2-1.7-.9-3.3-1.6-4.8 0-.2-.3-.2-.5-.2h-.5l.5.2v-.5c0-.5-1.6-.2-1.6.4zM90.2 186.3l.8-1.1a71.9 71.9 0 0 0 4.5-8.1c.4-.7.7-1.5.7-2.3 0-.4-1.5-.2-1.6.4 0 .6-.3 1.3-.5 1.9a75.4 75.4 0 0 1-4.4 8c-.3.3-.6.9-1 1.2-.2.3.3.5.5.5.4 0 .7-.2 1-.5zM81 181.9a3.2 3.2 0 0 1 1-.8 1.8 1.8 0 0 1 .1-.1c.2 0 0 0 0 0H82.5c.2-.1-.1 0 0 0l.4-.1H83.1c1 0 2 0 3-.4.2 0 .6-.3.3-.4l-1.1.2c-.2 0 0 0 0 0h.2c-.2 0 0 0 0 0h-.2s.2 0 0 0h-2.1c-1.4.2-2.8.7-3.7 1.9-.1.2.6 0 .6 0 .3 0 .8 0 1-.3z"/><path fill="#010202" d="M78.4 182.6c0 .6.6-.1.1 0-.2 0-.3.1-.5.3l-1 1.1c-1 1-1.8 2-2.6 3-1.7 2-3.2 4-4.3 6.4-2.5 5.1-2 10.6 1.6 15a25 25 0 0 0 6.8 5.6 31 31 0 0 0 7.8 3.5c5 1.3 10.4.4 13.4-3.9.8-1 1.3-2.3 1.9-3.5.8-1.5 1.7-3 2.7-4.3 1.8-2.6 3-5 3.3-8.2 0-.8-1.5-.6-1.6.2-.3 2.6-1.1 4.8-2.7 7a39 39 0 0 0-3.8 6.3c-.8 1.8-1.9 3.4-3.5 4.4-2.2 1.5-5 1.7-7.5 1.2-2.5-.4-5-1.5-7.1-2.7a30.3 30.3 0 0 1-6.2-4.2c-4.1-3.7-6.3-9-4.4-14.3 1.6-4.8 5.2-8.5 8.5-12.2l-.7.4c.8 0 1.4-.3 1.4-1.2 0-.8-1.6-.6-1.6.1z"/><path fill="#010202" d="M90.3 183.2v1c0 .3.3.5.5.5h.6l-.5-.4v.5l.1.3c2 1 4.2 1.7 6 2.8a28.1 28.1 0 0 1 7.1 5.8c.9 1 1.9 2.2 1.9 3.5 0 .8 1.6.4 1.6-.1 0-1.4-.8-2.6-1.6-3.6a36.4 36.4 0 0 0-7.5-6.3c-2-1.2-4.2-1.9-6.2-2.9l.1.3v-.5c0-.3-.2-.4-.5-.4h-.5l.5.4v-1c0-.8-1.6-.5-1.6 0zM87 195.2c-.6-.5-1.5-.5-2.3-.6-.8 0-1.6-.1-2.4.4l-.8.4c-.3.1-.4.4-.6.7l-.7 2c-.4 1.7-.7 3.3-1.3 4.8-.5 1.4-1.2 3-2.7 3.7-.2.1-.5.2-.5.5v.5c0 .2.4.2.5.2h.5l-.4-.1c1.9 1.2 3.8 2.2 5.4 3.8.3.2 1.6 0 1.5-.5-.2-1.6.3-3.2.8-4.7.6-1.5 1.4-3 2.4-4.2.8-1.2 1.8-2.4 1.4-4-.4-1.4-1.6-2.7-2.4-4-.3-.3-1.8.2-1.5.6.8 1.3 2.1 2.6 2.4 4 .3 1.7-1.1 3-2 4.2-1.5 2.4-3.1 5.6-2.6 8.5l1.5-.5c-1-1-2.3-1.9-3.6-2.6l-1.7-1.1c-.4-.2-.7-.2-1-.2l.4.2v-.5l-.5.4c4.5-2 4-7.8 5.9-11.7l-1 .5c.8-.1 1.5-.4 2-1l-1 .5c.8 0 2.1-.2 2.8.4.4.3 1.8-.3 1.5-.6zM240 92c.3 1.4 1 2.8 1.6 4.2l3.6 8.3c.9 2 1.9 3.9 3 5.7 1 1.4 1.9 2.8 2.4 4.5 1.5 5 1 10.8-2 15.3-2.6 4-6.5 7-10.4 9.6-1.4 1-3 1.5-4.6 2.5a15.6 15.6 0 0 0-5.5 6.3c-.4.8 1.2.8 1.5.2 1.3-2.5 3-4.7 5.5-6.1 1.4-.7 2.8-1.3 4-2.1 3.9-2.6 7.7-5.5 10.4-9.3 1.4-2 2.5-4.2 3-6.6.7-2.6.5-5.5 0-8.2-.5-4-3-6.7-4.8-10.1-1.5-3-2.8-6.4-4.2-9.6-.7-1.6-1.6-3.3-2-5 0-.7-1.7-.3-1.5.4zM220.3 152.2l4 .3c1.1 0 2 0 3 .2.4 0 .9 0 1.1-.3.3-.2.2-.5-.1-.5-1-.2-2.2-.3-3.2-.3-1.3 0-2.6-.1-3.8-.3-.4 0-.8 0-1.1.3-.3.2-.2.5.1.6zM170.2 78.6v-1c0-.2-.2-.2-.2-.2-1 0-1.8-1.7-2.4-2.5l-2.7-2.9-2.5-2.9c-.8-.7-1.6-1.5-2.1-2.4-.6-1.2.2-1.8 1.1-2.5 1-.7 2-1.3 3.2-1.8a28 28 0 0 1 8.9-1.6c5.1-.2 10.5-.3 15.4 1.5a16.8 16.8 0 0 1 4.4 2.6c.2 0 .5.3.6.4.1.4 0 0-.2.4l-1 1.6-.7 2.3c-.3 2-.3 4.1 0 6.2.2 1.6.5 3.5 1.5 4.8.3.4 1.7-.2 1.6-.4-1.5-2-1.7-5-1.8-7.5 0-2.3.1-6 2.3-7.5V65c-5.7-5.5-15-5.2-22.3-4.7-3.9.2-8 .8-11.4 2.8l-1.9 1.3c-.4.3-1.3.9-1.5 1.5-.4 1.1 1.3 2.7 2 3.4 1.8 1.8 3.4 3.8 5.1 5.6.8.9 1.5 2.3 2.4 3l.7.1c.4.3-.1-.4 0 .3v.7c0 .3 1.5 0 1.5-.4z"/><path fill="#010202" d="M179.4 79.1v-1c0-.2-.3-.2-.4-.2h-.6l.5.2c-.5-1.5-1.3-2.9-1.6-4.4a4 4 0 0 1 .4-2.4l.1-.2c.1 0 0 0 0 0s-.2 0 0 0h-.3.2l.2.2c.2 0 .4.1.5.3l1.1 1c.7.9 1.3 1.9 1.8 2.9.6 1.6 1 3.3 2 4.7.3.4 1.8-.1 1.5-.6-1-1.4-1.3-3.1-2-4.6-.5-1.2-1.2-2.3-2-3.2-.7-.8-1.6-1.5-2.7-1.5-.7 0-1.3.3-1.8.9-.4.4-.5 1.1-.6 1.7-.2 2 1 3.8 1.6 5.6 0 .2.3.2.5.2h.5l-.4-.2v1c0 .5 1.5.2 1.5-.4z"/><path fill="none" stroke="#010202" stroke-width=".8" stroke-miterlimit="10" d="m110.6 132.3 108 14.1M55.4 152.8l116.2 16.8M171.6 169.1l47-21.7M168.9 190.1l-1.1 44.3M171.6 169.6l-.5 15.1M59.2 211.7l107.6 25.4M58.1 210.7l1.7 15.6M59.2 226.3l109.2 26M169.5 252.3l47.5-34.6M111.1 137.2l94 11.9M171.1 166.4l36.2-17.3M64.6 151.2l105.9 15.7M65.2 151.2l45.9-14M128.9 75.6l-17.8 56.2M56 167.4l4.3 43.3M56 167.4l34 5.4M115.4 177.7l53 9.7M170.5 188.5l46.5-23.2M167.8 238.2l48.1-32.9M52.2 150.7l58.4-18.4"/><path fill="#010202" d="M55.7 167.5c0 3.5.5 7 .8 10.5.4 3.7.4 7.5.8 11.2.7 7.4 1.7 14.7 1.7 22 0 .8 1.6.5 1.6 0 0-7.2-1-14.3-1.6-21.4-.4-3.7-.5-7.4-.8-11.1-.3-3.8-.9-7.5-.9-11.4 0-.7-1.6-.4-1.6.2z"/><path fill="#010202" d="M60.6 211.7c0-.9-.5-1-1.3-1-.5 0-1 .3-1.2.7-.6.7-.7 1.9-.7 2.8-.2 3 0 6.2.3 9.3l.2 3.5c0 .7 1.6.4 1.6-.2 0-2.8-.4-5.5-.6-8.3a37 37 0 0 1 .4-6.5l.1-.4c0-.1.2 0 0 0-.3.1-.4 0-.4.2 0 .7 1.6.4 1.6-.1z"/><path fill="#010202" d="M58.5 225.8c-.5.5-.6.6-.6 1.3h.1c3.4 1.2 7 1.3 10.3 2.3l11.5 2.8c7.3 1.9 14.8 3.2 22.1 4.7 7.2 1.5 14.3 3.3 21.4 5 3.5.8 7 1.3 10.5 2.3l11.1 3.2 12.2 3 5.9 1.5 2.3.5c.7 0 1.8-.1 2.3.6.3.4 1.7-.2 1.6-.4-.6-.9-1.7-.9-2.6-1-1.9 0-3.7-.6-5.5-1l-11.6-3c-4-1-8-2-11.8-3.2-3.5-1.1-7-1.9-10.5-2.6-7.6-1.5-15-3.7-22.6-5.2-7.6-1.7-15.4-3-23-4.9l-13.2-3.4-5.8-1c-.6 0-1-.2-1.6-.3-.3 0-1.4-.2-1.5-.4-.2-.4.2-.6.4-.8.4-.4-1.1-.3-1.4 0z"/><path fill="#010202" d="M169.7 252.6v-.5l-1 .6h.4c.4 0 1.1-.2 1.1-.6v-.6l-.9.7c1.6-.1 2.5-1 3.6-2 1.5-1.5 3.2-2.8 4.9-4 3.5-2.5 7.2-4.7 11-7l10.3-7c3.4-2.3 6.4-4.9 9.6-7.3 2-1.5 4-3.1 6.1-4.3 1.6-.9 3-2 4-3.4.4-.6-1.2-.5-1.4 0-1 1.3-2.4 2.3-4 3.1-1.5.9-3 2.1-4.4 3.2-3.2 2.4-6.3 5-9.6 7.4-6.4 4.5-13.1 8.5-19.6 12.9a96.6 96.6 0 0 0-7.7 5.7c-.7.6-1.5 1.7-2.5 1.8-.4 0-1 .2-1 .6v.6l1.2-.7h-.6c-.4 0-1 .2-1 .7v.5c0 .5 1.5.2 1.5-.4z"/><path fill="#010202" d="M217.3 205.9c0 3.7.5 7.5 0 11.3l.8-.6h-.5c-.3 0-.8.2-.8.6v.4c0 .8 1.5.6 1.5-.1v-.4c0-.8-1.5-.6-1.5.1v.4c0 .8 1.5.6 1.5-.1v-.4l-.8.6h.5c.4 0 .8-.2.9-.6.5-3.8 0-7.6 0-11.4 0-.8-1.6-.6-1.6.2z"/><path fill="#010202" d="M218.2 205.2h-.6l.7.5v-.5l-.1-.4a1 1 0 0 0-.6-.1H216l-.6.2-.3.4c0 .2 0 .3.2.4l.6.1h1.6l-.7-.5v.6l.1.3.6.1h.5c.2 0 .4 0 .6-.2.1 0 .3-.2.3-.4 0-.1 0-.3-.2-.3a1 1 0 0 0-.5-.2zM52.8 150.7c3-2 7-2.4 10.5-3.2 3.8-.8 7.5-2.4 11.2-3.7 7.6-2.8 15.3-4.8 23-7.1 4.3-1.4 8.6-2.9 12.8-4.7 1-.4 0-.8-.6-.5-7.6 3.4-15.8 5.5-23.8 7.9-3.8 1.2-7.7 2.4-11.5 3.8-4 1.4-7.8 3-12 3.9-3.6.8-7.5 1.4-10.8 3.5-.3.2-.1.4.1.4.3.2.9 0 1.1-.3z"/><path fill="#010202" d="M110.3 132.8c1 0 2 .3 3 .4l7.7 1.1a43148.8 43148.8 0 0 0 83 11.6l9 1c1.5.3 3 .5 4.5.5h.7c1-.3.7-1.2-.2-1 .1 0 .3 0 0 0h-.8l-2.4-.3-8.2-1a2811.7 2811.7 0 0 1-56.2-7.7l-26.4-3.7-8.7-1.3-4.2-.6h-.3c-.6 0-1.6 1-.5 1z"/><path fill="#010202" d="M111.9 131.2c0-.4 0-.4-.3 0 .3 0 .6-.1.8-.4.6-1.3 1-2.6 1.3-4 .2-.6.2-1.2.3-1.9.2-.9.7-1.7 1-2.6l.4-2c.4-.9.6-1.7.8-2.5.2-2 .9-3.8 1.4-5.7 1.1-4.3 3-8.4 4.2-12.6 1.3-4.3 3.2-8.3 4.4-12.6.5-1.9 1-3.8 1.7-5.7.6-1.6 1.2-3.4 1.3-5.1 0-.8-1.6-.6-1.6 0 0 3.3-1.8 6.2-2.6 9.2-1 4.4-2.8 8.4-4.3 12.7l-2 6-2 5.8-1.7 6.1c-.3.8-.3 1.7-.5 2.5-.2 1-.8 1.7-1 2.6v1.3l-.6 1.3-.5 2.1c-.3 1.7-.8 3.4-1.5 5l.8-.6c-.8 0-1.4.3-1.4 1.2 0 .8 1.6.6 1.6-.1z"/><path fill="#010202" d="M130.3 76.6V76l-1.1.6c3.9 0 7.8.4 11.6.6a5837.3 5837.3 0 0 1 89.6 5.7h.4c.1.1.2 0 0 .1.4-.1.2.3 0-.2.2.6 1.8.2 1.6-.4-.2-.6-2.4-.5-2.8-.6l-7-.5a2970.5 2970.5 0 0 0-52.5-3.4l-25.8-1.5-14-.8h-.5c-.3 0-1.1.2-1.1.6v.5c0 .7 1.6.4 1.6-.1zM224 87.6a6884.1 6884.1 0 0 0-86.6-5.5c-1.1 0-2.5-.2-3.6.1-.2.1-.6.2-.7.4-.4.5 1.2.3 1.4 0-.2.2-.5.2-.7.3.1 0 .1 0 0 0h2.7l6.8.2a1493.4 1493.4 0 0 1 47.1 3l21.8 1.5c3.6.2 7.1.6 10.6.7h.2c.4 0 1.8-.6 1-.7zM216.8 147.5c0 1.1 1.5.3 1.7-.4l.9-3 3.2-13.4a4833 4833 0 0 0 8.2-35.5l2.7-11.6c.1-.7-1.5-.4-1.6.2-2 8.2-3.8 16.5-5.7 24.7-2.4 10.8-4.9 21.5-7.5 32.2l-1.3 5.1-.4 1.4-.1.2s1.4-.3 1.4 0c0-.8-1.6-.5-1.5.1zM168.7 188.7c0 8.2-.7 16.4-1.4 24.5-.4 4.1-.7 8.2-.8 12.3 0 2.8-.5 5.5-.5 8.4 0 .3 1.5 0 1.5-.5v-.3c0-.3-1.5 0-1.5.5v.3c0 .3 1.5 0 1.5-.5 0-2.8.6-5.5.6-8.3 0-4.3.3-8.5.8-12.7.7-8 1.3-16 1.3-24.1 0-.3-1.5 0-1.5.4zM83.3 184.2c0 .8.6 1.4 1.1 2v-.3c0 .5.2 1 .7 1.4.5.3 1.1.4 1.7.3A6 6 0 0 0 90 186c.3-.2.2-.6-.2-.7-.4-.2-.8 0-1 .3-.2 0 0-.1-.1 0l-.1.1-.3.2-.3.1-.3.2-.2.1h-.1a5.3 5.3 0 0 1-.4.1h-.5s.1 0 0 0h-.1c-.2 0 0 .1 0 0h-.2c-.1 0 0 0 0 0H86c.2 0 0 0 0-.1v-.2c0 .2 0 0 0 0l-.1-.2v-.1c0-.2 0-.3-.2-.4l-.2-.3c-.3-.2-.7-.6-.7-1s-.4-.5-.8-.5c-.2 0-.8.3-.8.6z"/><path fill="none" stroke="#010202" stroke-width=".8" stroke-miterlimit="10" d="m81.4 185.8 21.1 12.4M103.5 199.3l-8.1 15.1M132.7 83.1l-14.6 47.2M118.7 130.1l91.8 12.5M224 89.1 211.1 142M227.8 152.8l13-64.3M233.2 82.1l8.1 5.4"/><path fill="#010202" d="M170.3 187.5c-.8 0-1.6.2-1.6 1 0 .3 0 .4.3.5 1.7.4 2.9-.6 4.3-1.4 1-.6 2.2-.9 3.3-1.3l2.9-1.3 6.3-3.5c2.2-1.2 4.4-2.1 6.7-3 4.5-1.9 9.1-3.7 13.3-6.2 4.2-2.4 8.7-4.1 12.8-6.8.9-.5-.5-.8-1-.5-3.8 2.5-8 4-12 6.3-3.9 2.3-8.1 4.1-12.4 5.9-2 .8-4 1.5-5.9 2.4-2 1-3.8 2.2-5.8 3.3-2 1-3.9 2-6 2.8l-2.7 1.1c-.9.4-1.8 1.5-2.9 1.3l.3.3v-.3l-.7.4h.2c.6 0 1.6-1 .6-1zM55.2 165.9c-.8 0-1.6.2-1.6 1 0 .3 0 .4.3.4 5.9 1.2 11.8 2 17.7 3 2.5.5 5 1 7.5 1.3l4.2.6c1.4.3 2.8.5 4.3.6.6 0 1.6-1 .6-1-1.5 0-3-.3-4.4-.6l-4.1-.5-7.5-1.3c-5.8-1-11.6-1.8-17.4-3l.3.4v-.3l-.7.3h.2c.6 0 1.7-1 .6-1z"/><path fill="#010202" d="M115 178.6c2.3 0 4.5.7 6.7 1.1l7 1.4c2.3.4 4.5 1 6.8 1.3l7.7 1 7 1.5c1.6.3 3.2.7 4.9.7a78.2 78.2 0 0 1 11.5 1.5c.5.2 2 .4 2 1 .1.4 1.7.1 1.6-.3 0-1.3-3.8-1.7-4.7-1.8-2.7-.5-5.5-.8-8.2-1-4-.3-7.7-1.2-11.5-2a101 101 0 0 0-7-1l-8-1.4-8.3-1.6c-2.3-.5-4.4-1.1-6.8-1.1-.4 0-1.6.7-.6.7zM231.3 83.6c.6 0 1.6-.4 1.6-1.1l-1 .5h.2l.5.2c.4 0 .7.3 1.1.4a17.8 17.8 0 0 1 4.6 3.2c.4.4 1 .8 1.2 1.4.1.5 1.7 0 1.5-.4-.2-.7-.8-1.2-1.2-1.6a18.2 18.2 0 0 0-5-3.4 6 6 0 0 0-2.4-.6c-.2 0-1 .1-1 .5 0 .2-.2.3 0 .1h.5c-.3 0-.8 0-1 .3-.2.3.1.5.4.5zM134.9 83.1v3.7c.1 1.2.1 2.5.4 3.6a21 21 0 0 0 3 6.6c1.3 2 2.7 4.1 3.8 6.3 1.2 2.2 2.1 4.5 2.7 7a17.4 17.4 0 0 1-4.7 17.2c-.9.7-2 1.4-3.2 1.8-2.2 1-4.7 1.5-6.9 2.5 2.2-1.2 4.6-1.7 6.8-2.8a11.6 11.6 0 0 0 5.3-4.7 16.7 16.7 0 0 0 2-13.8c-.6-2.4-1.5-4.7-2.6-6.9-1.1-2.1-2.5-4.1-3.7-6.3a21.3 21.3 0 0 1-2.9-6.8 17 17 0 0 1-.1-3.7v-3.7zM164.1 65.4l.4-.4c0-.2-1 .2-.2.2.2 0 1-.1 1-.5V64l-1 .6c4.3 0 8.4-1.3 12.7-1 1.7 0 3.4.4 5.1.5 1.7.2 3.6.6 5.1 1.5.4.3 1.9-.4 1.2-.8-1.4-.9-3.2-1.3-4.8-1.5l-5.2-.6a25 25 0 0 0-6.3.2c-2.4.4-4.8.8-7.2.8-.3 0-1 .1-1 .5v.6l1-.6c-1 0-1.4.2-2 .9-.6.7.9.6 1.2.2zM186.7 70.8V72h.5l.5-.1h.1l.1-.3v-1.2l-.1-.1h-.4l-.5.1h-.1l-.2.3zM187.7 72.4v.7l.2.1.2.1h.4l.3-.2c.2-.1.2-.2.2-.3v-.7l-.1-.1h-.2l-.3-.1h-.1a1 1 0 0 0-.3.2h-.2v.3zM230 137h1.5l.2-.4c0-.1 0-.3-.2-.3l-.4-.1h-1.3l-.2.2-.3.3c0 .1 0 .2.2.3h.4zM228.3 139.5c0 .7 1 .7 1.4.7a1.4 1.4 0 0 0 .7-.2l.2-.1v-.3h-.7.1a1.8 1.8 0 0 1-.2 0l-.2-.1h.1l-.1-.1v-.2l-.3-.2h-.5l-.4.3c-.1 0-.2.1-.1.2zM233.1 138.3v.7l.2.1h.9v-.2l.2-.2v-.7h-.1l-.2-.1h-.3a1 1 0 0 0-.4.1l-.2.1v.2zM235.3 135.7v1.1h.7c.1 0 .3 0 .4-.2l.2-.1v-1.1l-.3-.1h-.4l-.5.2-.1.2zM205.6 164.9c0 1.1-.6 2.1-.6 3.2 0 .3 1.3.1 1.3-.3 0-1.1.5-2.1.5-3.2 0-.3-1.2-.1-1.2.3zM202.9 166.5c0 1.1-.6 2.2-.6 3.3 0 .2 1.3 0 1.3-.4 0-1 .5-2.1.5-3.2 0-.2-1.2 0-1.2.3zM200.7 168v1.6l.1.4h.5l.5-.1.2-.4V168c0-.1 0-.2-.2-.3a.7.7 0 0 0-.4-.1c-.2 0-.4 0-.5.2l-.2.3zM176 223.5c-.8.7-.7 2-.7 2.9 0 .3.3.4.6.4l.4-.2.3-.3v-1.5a4 4 0 0 1 .1-.5s0-.2 0 0l.2-.4.1-.1c.2-.2.1-.5-.1-.6a1 1 0 0 0-1 .3z"/><path fill="#010202" d="M177.7 224.7v-.5.2h-.1l-.2.2h-.2.3l-.6-.4v1.6c0 .2 0 .3.2.3l.4.1.5-.1.2-.4v-1.6l-.1-.3h-.5c-.3 0-.8 0-1 .3-.2.2-.2.4-.2.7l.1.3h.5l.4-.1.3-.3zM64 158.4v2.7l.2.1h.5c.2 0 .6-.2.6-.4V158l-.3-.2h-.4c-.2.1-.6.3-.6.5z"/><path fill="#010202" d="M65.1 160c0 .2.2.3.2.3l.3.7v.7h.7c.2 0 .3 0 .4-.2.1 0 .2 0 .2-.2v-.8a2 2 0 0 0-.6-.9h-.8c-.1.1-.6.3-.4.5zM110 227.6v1.3c0 .5.2 1 .5 1.4H111c.1 0 .7-.2.6-.4-.2-.4-.4-.8-.4-1.3l-.1-1.4h-.7l-.4.2s-.2 0-.2.2zM111.5 229.1l.1.6.5.7h.9l.3-.3v-.2l-.5-.6.1.1v-.4.1-.1l-.1-.2h-.1c-.1-.1-.3-.2-.4-.1l-.5.1-.1.1-.2.2zM163 175h-.9a1 1 0 0 0-.8.4l-.2.2c-.1.1-.4.3-.4.5v.6l.2-.4c-.6.5-1 1.2-.8 2 .3.7 1.1 1.2 1.9 1.2.6 0 1.2-.1 1.8-.4.2 0 .5-.3.3-.6-.2-.2-.6-.2-.9 0h-.2c-.1 0 .1 0 0 0h-.1l-.1.1s-.2 0 0 0h-.5c-.1 0 0 0 0 0H162c-.1-.1 0 0 0 0l-.2-.2h-.1s0-.1 0 0v-.1a1.6 1.6 0 0 1-.2-.3c-.1 0 0 0 0 0l-.1-.2v-.1s0-.1 0 0v-.3s0-.1 0 0v-.2c.1-.1 0 0 0 0l.2-.2.3-.3v-.7.2l.5-.5-.6.3h1.1c.3 0 .7-.2.7-.5s-.3-.4-.6-.4zM60 157.3h-.4c-.4 0-.7.1-1 .4l-.5.6v.6-.2l-.5 1v1.3c0 .2.1.3.3.3h.5l-.4-.3v.5c0 .3.4.5.6.6.6.3 1.3.3 2 .3.3 0 .7 0 .8-.4.2-.2-.1-.3-.3-.3H60l-.4-.2-.3-.3v.2-.5c0-.2-.2-.3-.4-.3h-.5l.4.3c0-.6 0-1.3.2-1.8l.3-.3v-.5l.1-.1.1-.2.2-.2-.7.3h.5c.3 0 .7-.1.9-.4.1-.2-.2-.4-.4-.4zM176.2 174.8a2 2 0 0 0 1-.3c.2-.2.4-.4.5-.8l-.8.5s.2 0 0 0H177.2s-.1 0 0 0h.2c.3 0 .4.1.6.3.3.3.5.8.5 1.2a3.6 3.6 0 0 1-.6 2.2c0-.1 0 0 0 0v.1l-.3.2c0 .1.1 0 0 0-.2.2 0 0 0 0 0 .1-.2.1 0 0 0 0-.1.1.1 0-.1 0 .2 0 0 0h.2c-.1 0 .1 0 0 0-.2 0 0 0 0 0h-.2v-.2c-.3-.2-1.5.2-1.3.5.5.5 1.3.3 1.9 0 .5-.2.8-.7 1-1.2.5-.9.7-2.3 0-3.1-.5-.7-1.4-.7-2.2-.6-.2 0-.7.2-.7.5v.2h-.1.1l.2-.1c-.1 0 .1 0 0 0h.1c-.2 0-.6 0-.8.3-.2.2.2.3.3.3zM213 158h1-.3c.4.6.7 1.3.4 2l-.2.4-.1.1c0 .1 0 0 0 0l-.3.3h-.1l-.2.1c-.1.1.1 0 0 0l-.3.2c.1 0 0 0 0 0h-.3l.7.2-.3-.6c-.1-.1-.2-.2-.2-.5l-.3-.1a1 1 0 0 0-.4 0c-.3 0-.6.2-.6.5l.3.6c.2.1.2.2.2.5l.3.1h.5c1-.2 2-.7 2.4-1.7.4-.7.3-1.6-.1-2.3-.1-.2-.2-.4-.4-.4h-1.2c-.3 0-.7 0-.9.3-.1.2.2.4.4.4zM235.4 90.8c-.3 0-.7 0-1 .3-.2.2-.2.5-.2.7l.7-.5h-.5a1 1 0 0 0-.5.2l-.2.3v.6l.2-.3c-.4.2-.7.6-.8 1 0 .3 0 .7.2 1 .3.7 1.1 1 1.9.8a2 2 0 0 0 1.3-.9v-.3l-.4-.2c-.3 0-.6.1-.8.4.1-.1 0 0 0 0l-.1.1c-.1.1 0 0 0 0-.1.1-.2.1 0 0h-.1c-.1.2.1 0 0 0 0 .1-.1 0 0 0-.1.1.1.1 0 0h-.1c.1 0 0 0 0 0h-.1s.1 0 0 0h-.2v-.1l-.1-.2h-.1v-.1a1.2 1.2 0 0 1-.1-.4s0 .1 0 0V93c0-.1 0 0 0 0a9.8 9.8 0 0 0 0-.2l.2-.1c.1-.1.3-.2.3-.4V91.7l-.7.5h.6c.1 0 .3 0 .4-.2.1 0 .3-.1.3-.3V91.4c0-.1 0 0 0 0l-.2.2s-.1 0 0 0H235c0 .1 0 0 0 0h.8l.2-.4c0-.3-.3-.4-.6-.4zM224.8 142.2c-.4 0-.8 0-1.1.2-.3.2-.3.5-.3.8l.9-.5h-.6l-.6.1s-.3.2-.3.4v3.2c0 .2.2.4.5.4h1c.2 0 .4 0 .6-.2.1 0 .3-.1.3-.3v-.3c0-.1 0-.1 0 0l-.4.2c.1 0-.2 0 0 0 .4 0 .8 0 1-.3 0-.3-.2-.5-.5-.5s-.7 0-1 .2c-.3.2-.4.5-.4.8l.9-.5h-1c0 .2.2.3.3.4v-3.2l-.8.4h1.1c0-.2.3-.3.3-.4v-.3c0-.1 0-.2 0 0l-.4.2s-.2 0 0 0c.3 0 .7 0 .9-.4.1-.2-.1-.4-.4-.4zM211.7 215v-.2c0-.1 0 0 0 0l.1-.2s0 .1 0 0c0 0-.1.1 0 .1h-.1c-.1 0 0 0 0 0s-.2.1-.1 0l-.2.1s-.2 0 0 0h-.1s-.1 0 0 0h.1c0 .1 0 0 0 0v.1a2 2 0 0 1 .5.5c0 .1 0 0 0 0l.1.3.2.6v.3a2 2 0 0 1 0 .5l-.1.2c0-.1 0-.1 0 0l-.1.2c-.1 0 0 0 0 0l-.2.1-.2.1s.1 0 0 0h-.1c-.1.1 0 0 0 0l-.2.1c-.2 0 0 0 0 0h-.2c-.2.1-.6.2-.7.5 0 .3.4.3.6.3.8-.1 1.6-.4 2.1-1 .3-.5.4-1 .4-1.5 0-.4-.2-.9-.5-1.3-.2-.3-.6-.6-1-.7-.4-.1-.8 0-1.1.3-.3.1-.4.4-.5.7 0 .2.4.3.6.2.2 0 .6-.1.7-.4zM173.3 240.7c.2 0-.1 0 0 0h.1c.1 0 0 0 0 0h.1l.2.1.3.4s0-.1 0 0a2.5 2.5 0 0 1 .1.4l.1.5a2.7 2.7 0 0 1-.1.8s0 .1 0 0l-.1.2h-.1v.1l-.1.1c-.2 0 .1 0 0 0-.2 0 .2 0 0 0s.1 0 0 0 .2 0 0 0h-.2l.3.2v-.5c0-.3-.4-.3-.6-.3-.2 0-.3 0-.5.2 0 0-.2.1-.2.3v.5c0 .2 0 .2.2.3.6.1 1.3 0 1.8-.3.4-.3.7-.7.8-1.1.2-.7.1-1.7-.5-2.2-.5-.5-1.1-.5-1.8-.4-.1 0-.6.3-.5.5 0 .3.5.2.7.2zM162.5 241.4v-.6c0-.2-.2-.3-.4-.3h-1c-.3 0-.4 0-.6.2-.1 0-.3.1-.3.3v.5l.8-.4c-.4 0-.8.1-1.1.4l-.3.2s.1 0 0 0h.1s.2-.1 0 0c.3-.1.2 0 .1 0a1 1 0 0 0-.5 0l-.2.4v2l.1.4.3.2c.2.2.5.2.7.3.6 0 1.2-.3 1.7-.7.2-.2 0-.5-.2-.5a1 1 0 0 0-1 .3s-.1.1 0 0l-.1.1h.1s.1 0 0 0c0 0 .1 0 0 0h-.1l-.3-.3v.2-2.2l-.7.5c.4 0 .8-.2 1-.4l.3-.2h-.1c-.1 0-.1 0 0 0h-.2.5l.3-.4v-.6l-.8.5h1l-.4-.3v.5c0 .3.4.4.6.3l.5-.1.2-.3zM64 218.8l-.5.5v.3c0 .3 1.1-.3.8-.3a2 2 0 0 0-1.3.6l-.1.2-.2.6a4 4 0 0 0-.3 1.5h.2l.4.4.7.2h-.2v.5H66c.3 0 .6 0 .8-.2.2-.3-.1-.3-.3-.3h-2.1l.3.1v-.5l-.2-.1c-.2 0-.3-.2-.4-.3a1 1 0 0 0-.7-.3l.2.1.3-1.2c.1-.3.3-.6.3-1v.2s0-.1 0 0h-.5.7c0-.1.3-.2.3-.4v-.3.2l.5-.6c.2-.2-.2-.2-.3-.2-.3 0-.6 0-.9.3zM104.2 198.2c0-.2 0-.4-.2-.6l-.4-.1-.6.1c-.4.2-.7.6-1 1-.2 0-.3.3-.4.4l-.2.2s-.2.2-.1.3l.2.2h.5l.4-.3.8-.9v.1l.3-.4s.2-.1 0 0h.1c0-.1-.2 0 0 0h-.5s-.1 0 0 0h-.2v.2-.1l.1.2.5.1c.1 0 .3 0 .4-.2h.1l.2-.2zM102.5 196.7c-2 0-3.1 1.7-4.4 3-.2.2 0 .5.2.6.3 0 .7 0 .9-.3l1.6-1.7h.1v-.1a4.6 4.6 0 0 1 .5-.3l.1-.1c-.1 0 0 0 0 0l.3-.1c.1 0-.1 0 0 0h.1l.2-.1s-.2 0 0 0h.3c.2 0 .7-.2.7-.5s-.4-.4-.6-.4zM86.3 197.6v-.5c0-.7-1-.3-1.2.1-.7 2-1.6 3.9-1.7 6 0 .3.4.3.6.3.2 0 .7-.2.7-.5 0-2 1-4 1.6-6l-1.2.2v.6c0 .3.3.3.5.3s.7-.2.7-.5z"/><path fill="#010202" d="M85 198.8c0 1-.5 1.8-.5 2.7 0 .3.3.4.6.4l.5-.2.2-.3c0-1 .5-1.8.5-2.7 0-.3-.3-.3-.5-.3a1 1 0 0 0-.5.2l-.2.2z"/><path fill="#010202" d="M85 197.7c0 .5 0 1-.2 1.5l-.3 1.8c0 .3.3.4.6.4.2 0 .7-.2.7-.5 0-.7.1-1.3.3-1.9l.2-1.4c0-.3-.3-.4-.5-.3-.3 0-.7.1-.7.4zM108.8 175.2c0 1 0 2.1-.5 3.1l.1.2h.4c.3 0 .6-.1.8-.4.5-1 .5-2.1.5-3.3l-.2-.1h-.5c-.2 0-.6.2-.6.5zM109.4 180v.4-.1l-.1.3-.4.4v.2h.3l.5-.1.4-.2.5-.6v-.6l-.2-.1h-.4l-.5.2-.1.2zM110 182.1c-.4 0-.9.3-1 .7l-.2.5V183.9l.2.1c.1 0 .3.1.4 0h.5l.1-.2.1-.2v-.7l.1-.1v.1h-.1l-.2.1h.1a10.5 10.5 0 0 0 .2 0l.2-.2.3-.3c0-.1 0-.2-.2-.3h-.4z"/><path fill="none" stroke="#010202" stroke-width=".8" stroke-miterlimit="10" d="m141.9 184.2-1.1 45.9M116 179.9l1 42.6M95.4 180.9v4.4M77.6 171.2l1.1 13M188.9 179.9l-1.1 42.6M204.6 177.2l-2.7 35.6M111.6 136.6v10.8M141.9 89.6l75.1 6.5M146.2 105.3l69.2 6.5M146.5 125.9l61.9 8"/><path fill="#010202" d="M239.4 89.1c0 2.2-1 4.1-1.4 6.2-.5 2.2-1.2 4.3-1.9 6.5a72 72 0 0 0-2.1 13c-.3 2.3-.4 4.5-.8 6.7l-1.3 6.6c-1 4.4-2 8.6-3.3 12.8-1.1 3.7-2.5 7.7-2.1 11.6 0 .7 1.6.4 1.6-.4-.4-3.6 1-7.4 2-10.8a138.9 138.9 0 0 0 5.3-25.2c.4-4.3 1-8.7 2-13 .5-2.3 1.5-4.6 2-7l1-3.8c.4-1 .6-2.1.6-3.3 0-.8-1.5-.6-1.6.1z"/><path fill="none" stroke="#010202" stroke-width=".8" stroke-miterlimit="10" d="m238.1 113.4 11.3 3.8M235.4 127.4l11.9 3.8M128.4 101l13.5 5.9M123.5 118.3l15.7 5.4"/><path fill="#FFF" d="M194.5 110.6 231.7 60l-44.9 44.2zM214.8 126.5l36.1-16.6-38.7 9.7zM166.8 93.4l10.4-60.9-18.7 58.9zM141.4 87.3l-11.9-52.1 4.6 53.2zM111 88.4 85.8 46.6 105 91.5zM87.8 98 56 68.4l27.4 33.7zM69.5 111 42 101.3l25.9 13.5z"/><g><defs><path id="c" d="m88.9 124.1 13.6 8.4 7.5-.8 9.7 1.6 8 3.1-6.7 13.3 4.7-2.9h6.8l2.3-6.2 8.4 3.9-4 11.2 4.2 3.7h4.2l26.3.2-4.1-11 3-1.5-2.3-3.7-4.4 1.3 3.1-9.6 21.4-7.6c1.3 1.8-.2 5.3.8 8.1.3 1-11 3.2-10.7 4.2.5 2 7.9.6 9.1 1.6 1.7 1.2 1 6 1.4 7.8l-7.9 3.4 2.1 4.4 5.8-1.3 1 1L171 166 67.2 151.4l-7.5-3.3 14.6-5 3.1-13.7L89 124z"/></defs><clipPath id="d"><use xlink:href="#c" overflow="visible"/></clipPath><g clip-path="url(#d)"><path fill="#FFDB28" stroke="#010202" stroke-width=".9" stroke-miterlimit="10" d="m190.4 128.5.2.2v1.4c0 2 0 3.6.4 5l-.3.3-4.7 1.3-6.8 2.4v.2l1.4 4.4v.1c.1.6.3.8.4.8l1.9-.8.9-.3 4.5-1.4c.7-.2 1-.1 1.1 0V143.8c0 1 .2 2.7.6 5l.1.5-.1.6h-1l-3.4 1c-1.7.4-2.6.8-2.7 1.1l1 3.7.7 2.3c0 .1 0 .2.2.1l3.6-1.3h.1l9.5-2.7.3.3.8 4.1a22 22 0 0 0 1.3 3.8l-.2.2-.6.2-1 .2h-.1a34 34 0 0 0-5.6 1.2l-2 .5c-2.8.8-5 1.5-6.8 2.2h-.2l-4 1.4-1.3.5-.7.2-.3-.1c0-1.2-.3-3-.8-5.4l-1.9-8.8h-.3l-1.5.9c-.3 0-.4-.1-.5-.2l-.2-1c-.5-2-1-3.3-1.3-4l-.2-.4v-.8l.4-.1c1.2-.5 1.7-.9 1.7-1l-2-5-.1-.1-.7.2-1.8 1-.3-.4-.7-2.4-1.4-3.9c0-.4 1-.8 3-1.4.8-.5 1.8-1 3-1.3l4.2-1.6 1.6-.6 1.2-.4c2.8-1 6.6-2.2 11.4-3.5zM102.3 137.8l3.2 2.4 3.5 3.7.7.8v.1l-2.8 2.5-1.6 1.5-1 1.2-.2.2h-.3l-1.4-1.7a35.2 35.2 0 0 0-5.3-5.7l-2-1.5c-2.6-1.6-4-2.4-4.1-2.2-.5-.3-1.2-.5-2.2-.7-.7 0-1.2.2-1.5.6l-.1.2c-.4.5-.4 1.2 0 2 0 0 .1.3.4.5 0 .2.3.8 1.3 1.8a13 13 0 0 0 2 2c.1.2.7.9 1.8 1.8 0 .2.5.7 1.4 1.5 0 .2.5.6 1.2 1.3l1.5 2c0 .2.2.5.5.7-.1.2 0 .4.4.8 0 0 0 .3.3.7.8 1.8 1 3.4.4 5 0 .3-.3 1-1 2.2-.7 1-1.7 1.7-3 2.4-2.6.8-5 .8-7 .3-.5 0-.8-.1-1.1-.3-.2 0-.5 0-1-.3a7 7 0 0 1-2-.7 16 16 0 0 1-2.3-1c-.2-.1-1-.5-2.1-1.3l-1.2-.6-.9-.6-4-3.4-1.4-1.6c-.2-.1-.7-.6-1.2-1.3-.4-.3-.5-.4-.4-.6l1.2-1a45.2 45.2 0 0 1 5.4-3.4l.3.2h.1a19 19 0 0 0 4.5 4.7l.3.3c2 1.4 3.3 2.3 4.2 2.6.6.4 1.5.7 2.9 1 .3 0 .5-.1.8-.3.5-.7-.4-2.1-2.7-4.3-.1-.2-.7-.8-1.8-1.7.1-.1-.4-.6-1.4-1.4 0-.2-.3-.7-1.2-1.4.1-.1-.2-.5-.8-1.1l-.6-1-.6-.7c.1-.1 0-.3-.3-.7l-.4-.8-.5-1a7.2 7.2 0 0 1-.3-3c0-.7 0-1.4.3-2.2l1.5-2.7 1.6-1.5s.4-.1.8-.5l2.7-1a13.4 13.4 0 0 1 6 .5c.3 0 .7 0 1 .4.1-.1.6 0 1.4.5.1-.1.6.1 1.6.7l2 1s.3 0 .9.4l3.6 2.7z"/><path fill="#FFDB28" stroke="#010202" stroke-width=".9" stroke-miterlimit="10" d="M118.7 133.7c.7 0 1.1.3 1 .6l.2 2.2v.2l-.1 1.5v.2c-.3 2.8-.7 4.4-1.1 5-.8-.3-1.7-.4-3-.5a9 9 0 0 0-3.4.1 10 10 0 0 0-6.8 4.8c-.2 0-.2.2-.3.6-.2 0-.6.8-1 2.6l-.2 1.7c.1 1.4.3 2.3.5 2.6a7 7 0 0 0 3 3.9c.6.4 1.4.8 2.5 1.1 0 .1.3.2 1 .2l1.3.2c1.9 0 3.1-.2 3.7-.4l1.7-.7c.9-.4 1.4-1.2 1.7-1.4l1-.7c.2 0-.4 2-.4 3.8.2 2.2.3 4.4.2 6.3-.7.4-1.4.7-2.1.8-.2.2-.5.3-1.1.4 0 .1-.4.2-1.1.2l-1.8.3a8 8 0 0 1-2.4.1l-1.4.1h-1.4a17.6 17.6 0 0 1-8.2-3l-1.4-1.1-1-1.3c-1.5-2.1-2.2-3.4-2.2-4-.4-.5-.7-1.8-1-3.9l-.2-3a37 37 0 0 1 1.5-6c.1 0 .3-.4.5-1.2l1-1.7.5-.9a22.4 22.4 0 0 1 17.3-9.9l3 .2z"/><path fill="#FFDB28" stroke="#010202" stroke-width=".9" stroke-miterlimit="10" d="m126 137 .1.4-5.8 12.3v.1l1 .4 5 1.8c2.4 1 3.6 1.4 3.7 1.2l1.1-2.4 3.8-7.8.5-1.1c.1-.3.3-.4.5-.4l4.2 2c1.4.8 2.3 1.4 2.7 1.8l-3.2 7.2-.7 1.7c-3.3 7.8-5.1 12.4-5.5 13.8h-.1v.1l-3 7.7-.2.6-.2.5c0 .2-.7.1-1.9-.2-.4-.3-1.5-.6-3.1-1l-2.8-.6a1 1 0 0 1-.6 0c-.4-.3-.4-.7-.2-1.3h.1l3.6-9 1.8-3.9v-.5l-.7-.2-3-1.3c-1.4-.7-2.9-1.2-4.3-1.6l-.2-.1-.6-.3-.5-.2-.2.1-3.4 7.4-2.2 5h-.3l-.7-.4h-.2c-1.4-1-3.4-2-6-3.2l-.7-.3v-.3l.5-1.2 3-5.1-.1-.1c.7-1 1.3-2.2 1.8-3.4l.5-1v-.3c-1.3-.6-2.1-.8-2.5-.9h-.1v-.5l.3-.6 1.9-5.2c.2-.4 1-.3 2.5.4l1 .3v-.1l.1-.3 5.1-12 .1-.3c.2-.5 1.2-.4 3 .4 0-.2 1.8.5 5.2 2z"/></g></g><g><path fill="#FFDB28" stroke="#010202" stroke-width=".9" stroke-miterlimit="10" d="M153.3 163.5c.3-.5 0-.2.3-1.3a63.6 63.6 0 0 0 3-8c1.7-4.8 3.3-10.2 4.8-16.3l.4-1.7c0-.4.6-.5 1.7-.3l1.7-.1h3l1.1.1h.2c.3.1.4.2.4.4l-2.6 10.5-.2.8v.1a70.6 70.6 0 0 0-2.6 8.2c-.4.6-.7 1.4-1 2.3l.3.2c.8 0 2.6 0 5.6.4l4.3.6h.3v.3l-1.8 2.5-.6.9-.6 1-1 1.9"/></g><g><path fill="#FFDB28" stroke="#010202" stroke-width=".9" stroke-miterlimit="10" d="M130.8 160.5c-.4-.3-.7-1-1-1.3 0-.2-.5-.7-1.4-1.5.1-.1-.2-.5-.8-1 0-.2-.3-.6-.8-1.2l-.7-1-1-1.6-1.7-2.7c-.4-.7-.6-1.1-.5-1.3l.2-.3a16 16 0 0 0 2.2-1.5c.1.1.5-.2 1-.8.1 0 .6-.3 1.5-1.1l.6-.3h.1l1.8 3a55.2 55.2 0 0 0 6.8 8.6h.1l.6.6c2 1.5 3.7 2.4 5.2 2.7 1.1.1 2.1 0 2.9-.5.4-.1 1-.7 1.9-1.7 1.1-1.4 1-3.5-.3-6.1 0 0-.1-.3-.5-.6 0-.1-.1-.5-.6-1 0-.2-.4-.7-1-1.4l-1.3-1.6-1.8-2-1.3-1.1h-.1c-.7-.8-1.6-1.7-3-2.8l-1.3-1-2.6-1.8c-.3-.3-.2-.8.3-1.6 0 0 0-.4.4-1 0-.1.1-.5.6-1.3l.8-1.6s.1-.5.7-1.2c.1-.2 1.5.5 4.2 2.3h.1l2.6 2c2.1 1.7 3.8 3.2 5 4.6l2.7 3.1c0 .2.3.6.9 1.2 0 .1.1.4.6 1 0 0 0 .3.4.7l1 2.2c.7 1.3 1 3 1.3 4.9.1 1.8 0 3-.1 3.6-.2 1.2-.5 2-.8 2.3.2.1 0 .7-.7 1.6.1.1-.2.6-.9 1.4-.3.4-.6.7-1.1 1"/></g><g><path fill="#FFDB28" stroke="#010202" stroke-width="1.4" stroke-miterlimit="10" d="m115 100.7 2.2-.6s.6 0 1.4-.4c.1.2.5.1 1.2-.2.1.2.5.1 1.2 0l1-.1.4.3c.2.3.3.9.4 1.8l.3 1.5.5 2.7c.3 1.1.5 2.4.6 3.8l.5 2.8.7 4.1.2 1.4c0 1 .2 1.8.3 2.3l.2 1.3.8 7 .3 3.4c.2.8.2 1.2 0 1.3l-4.6 2.8c-.3.4-1 .8-1.8 1.3 0 0-.3.5-1.3 1.1 0 .2 0 .3-.3.4l-.3-.1-.1-.3-.7-1.7h-.1c-.3-1-1-2.5-2-4.7-3.3-6.2-5-9.3-5.2-9.2l-.3-.6-.3-.3.3 2.3.2 1c-.2.1 0 .5.2 1.2-.1.1 0 .6.1 1.4 0 0 0 .5.4 1.4-.2 0 0 .6.3 1.6-.1 0 0 .6.3 1.6 0 0 0 .6.5 1.8-.1 0 0 .7.5 2 0 0 .1.7.7 2.1 0 .3.2 1.1.8 2.6l-.4.4a22.7 22.7 0 0 0-7 3.5c-.4.1-1-.4-1.7-1.6-.1 0-.5-.3-1-1.2-.1 0-.5-.3-1-1.2-.2 0-.5-.5-1.2-1.5-.1 0-.5-.4-1.2-1.5l-1-1.4c-.2 0-.7-.7-1.4-1.9-.2 0-.7-.8-1.4-2-.1 0-.6-.5-1.3-1.7-.1 0-.6-.7-1.3-2-.2 0-.8-1-2-2.9l-3.2-5.3-.7-1.4-1.2-2.3c-.2-.3.3-.8 1.3-1.5l1.2-1s.5-.5 1.5-1.1c0-.1.5-.5 1.6-1.2-.1-.1.2-.4 1-.8l.4-.1c.1 0 .2 0 .4.3l4 7.3c.8 1 1.6 2.5 2.6 4.4.3.3 1.1 1.8 2.6 4.4l1.8 3h.1a9 9 0 0 0-.6-2.5 4 4 0 0 0-.5-1.9s0-.7-.4-1.8c0-.2 0-.7-.3-1.5l-.7-3.9-.3-1.6-.2-1c.1-.2 0-.5-.1-1l-.1-1.4-.2-3c.5-.6 1.4-1.4 2.8-2.5l1.1-1 1.9-1.1c0-.1 0-.2.2-.3h.1c.1-.1.5.4 1.2 1.5.1 0 .8 1.1 2.1 3.5.4.4.8 1 1.2 1.9l.4.8 3.7 6.6.2.5.7 1.4.6 1.4h.3l-.5-2.9-.9-5.2-.2-1.3-.2-1.3c-.2-.3-.2-.7-.3-1.4l-.6-2.9-.6-3.6-.4-1.4c.1 0 0-.5-.3-1.4.1 0 0-.5-.3-1.3l.2-.2z"/><path fill="#FFDB28" stroke="#010202" stroke-width="1.4" stroke-miterlimit="10" d="M141.4 107a11.7 11.7 0 0 1 6.5 2.5l2-.5 1.2-.2 1-.3 1.2-.3c.5 1 1 2.6 1.3 5a23.5 23.5 0 0 1 .5 6.5c.1 0 .2.6.1 1.7v.6l-.8 4.1-.7 2.8-.6 1.5-.4 1.1c-.2 0-.3.3-.5 1 0 0-.3.3-.5.9l-.8 1.4a27 27 0 0 1-3.9 4.4 17 17 0 0 1-6.6 3c0 .2-.5.2-1.6.2l-1.2.2-.1-.1H136l-1-.2h-.2c-1-.4-1.7-.6-2.4-.7 0 0-.4-.3-1.3-.5 0-.1-.3-.3-1-.5 0-.2-.2-.3-.6-.4l-1.2-1a12.1 12.1 0 0 1-2.8-3.5 10.6 10.6 0 0 1-1.3-3l-.4-1.6a8 8 0 0 1-.3-2.3 24.7 24.7 0 0 1 1-9.3l1-2.5a18.3 18.3 0 0 1 12.2-9.9l1.4-.2 2.3.1zm-9.5 16.3-.2 2.4a11.7 11.7 0 0 0 1 4.8 8 8 0 0 0 1.8 2c.7.5 1.3.7 2 .8l1 .2c1.1 0 2 0 2.4-.3.3 0 .8-.2 1.6-.6 1.2-1 2-1.7 2.3-2.2a20 20 0 0 0 2.8-6.6l.3-3.7a25 25 0 0 0-.5-3.5h-.3c-.7.4-1.4.6-1.9.6a5.3 5.3 0 0 0-2.7-1.9l-2.5-.2-2.3.7c-1.9 1.3-2.8 2.2-2.9 2.8-.4.3-.8 1.1-1.3 2.4l-.6 2.3z"/><path fill="#FFDB28" stroke="#010202" stroke-width="1.4" stroke-miterlimit="10" d="M168.6 110.9a26 26 0 0 1 10.2 3c1.2.7 2 1.5 2.6 2.4.7 1.2 1 2 1 2.8.1 0 .2.5.1 1.5a9.6 9.6 0 0 1-2.8 5.7 12.6 12.6 0 0 1-3.5 2.7 15.7 15.7 0 0 1-6.3 2.3v.2a55.4 55.4 0 0 0 6 6.6 42 42 0 0 0 3.8 3.7v.4c-1 .9-1.4 1.4-1.4 1.6l-3.1 3-.8.5h-.1c-2.3-2.2-5.8-6-10.5-11.4l-2.2-3v.1h-.1l-.1 1.7-1 9.5-.3.3-8.3-.8-.2-.2L153 132c.4-4.3.5-7 .5-8l.3-3.2V120.3h-.2c-.2.2-.7.3-1.4.4l-1.2.3s-.1.1-.4 0h-.1V120a67 67 0 0 0 .1-7l1.7-.3c.2-.2.7-.3 1.4-.4l2.5-.6 1-.2c0-.1.6-.2 1.6-.2.2-.1 1.3-.3 3.4-.5l3.1-.3 3.3.3zm-6.5 7.4v.7l-.2 1.4a25 25 0 0 0 0 3.8l-.1.3v1.2l.1.2h.1l1.6-.2c.4 0 .9 0 1.6-.2a15.2 15.2 0 0 0 6.2-2.4c.7-.6 1-1.2 1-1.8l.2-.3v-.5c-.2-.7-.5-1.2-1-1.5-.2-.3-1.2-.6-3-1-3.7-.1-5.6 0-5.6.2h-1z"/><path fill="#FFDB28" stroke="#010202" stroke-width="1.4" stroke-miterlimit="10" d="m205.6 121.7.8.4 1.5.7c.2.1.2.2.1.4a40.5 40.5 0 0 0-4.3 5.8l-.8.4-.8-.4-3.4-1.2c-.1.2-.7 0-1.9-.5-.6-.2-1-.1-1 0v.2a72.9 72.9 0 0 0-6.4 10.3 181 181 0 0 0-6.4 11.5c-.8 0-1.7-.2-2.6-.7-.7 0-1.5-.3-2.3-.7-.3 0-1.2-.2-2.7-.9 0 0-.5 0-1.5-.4v-.4l2-3c.6-.7 1-1.4 1.3-2 .8-1 1.6-2.2 2.3-3.6a95.4 95.4 0 0 0 6.3-10.3l1.1-1.7v-.3l1-1.2-.1-.1c-.1.1-1-.2-2.5-.8-.2 0-.8-.1-1.9-.6-.6 0-1.3-.3-2.3-.6l-3.4-.7-.3-.2V120.8c.4-.4 1-1.1 1.4-2 .5-.5 1-1.3 1.8-2.7.5-.5 1.1-1.4 1.8-2.8.4-.3 1.2-.1 2.5.5l3.4 1.2c0-.1 1.1.3 3.2 1.2l4 1.5c.3 0 1.5.5 3.8 1.5.5.1 2 .7 4.5 2l1.8.5z"/></g></svg>
