<?xml version="1.0" encoding="UTF-8" standalone="no"?>
<svg
   viewBox="0 0 210.95308 220.75244"
   xml:space="preserve"
   version="1.1"
   id="svg334"
   sodipodi:docname="logo_transparent.svg"
   width="210.95308"
   height="220.75244"
   inkscape:version="1.2.2 (b0a8486541, 2022-12-01)"
   xmlns:inkscape="http://www.inkscape.org/namespaces/inkscape"
   xmlns:sodipodi="http://sodipodi.sourceforge.net/DTD/sodipodi-0.dtd"
   xmlns:xlink="http://www.w3.org/1999/xlink"
   xmlns="http://www.w3.org/2000/svg"
   xmlns:svg="http://www.w3.org/2000/svg"><sodipodi:namedview
     id="namedview336"
     pagecolor="#ffffff"
     bordercolor="#666666"
     borderopacity="1.0"
     inkscape:showpageshadow="2"
     inkscape:pageopacity="0.0"
     inkscape:pagecheckerboard="0"
     inkscape:deskcolor="#d1d1d1"
     showgrid="false"
     inkscape:zoom="3.7142857"
     inkscape:cx="67.038462"
     inkscape:cy="109.03846"
     inkscape:window-width="2556"
     inkscape:window-height="1390"
     inkscape:window-x="5120"
     inkscape:window-y="48"
     inkscape:window-maximized="1"
     inkscape:current-layer="svg334" /><path
     fill="#998675"
     d="m 14.3,135.5 3.2,44.3 108.6,25.4 47.8,-33.3 0.8,-38 -46.2,20.2 z m 61.6,-38.1 15.4,-48.1 91,6.2 -13.2,54.8 z"
     id="path196" /><defs
     id="defs199"><path
       id="a"
       d="m 107.2,137.5 -42,13.6 105.7,15.7 35.3,-17.5 z" /></defs><use
     xlink:href="#a"
     overflow="visible"
     fill="#998675"
     id="use201"
     transform="translate(-42,-32.5)" /><clipPath
     id="b"><use
       xlink:href="#a"
       overflow="visible"
       id="use203" /></clipPath><g
     clip-path="url(#b)"
     id="g214"
     transform="translate(-42,-32.5)"><path
       fill="#ffdb28"
       stroke="#010202"
       stroke-width="0.4"
       stroke-miterlimit="10"
       d="m 115.2,120.6 c 0.3,-0.2 0.9,0.2 1.8,1.2 0,0 0.5,0.2 1.1,0.9 0.1,0 1,0.6 2.4,1.9 l 2,1.5 1,0.8 1,0.8 4,3 1.9,1.3 c 0.3,0.3 0.6,0.4 0.9,0.2 l 1.2,-0.8 h 0.4 l 0.3,0.4 1.6,2.7 0.5,0.9 1.6,1.3 c 1.1,0.7 1.8,1.2 2,1.5 0.1,0 0.7,0.2 1.8,0.9 h 0.1 c -0.2,1 -0.6,2 -1.2,3 l -0.4,0.7 -0.5,0.9 -0.7,1 c -0.2,0 -0.5,0.4 -0.8,1 -0.1,0 -0.4,-0.1 -0.9,-0.5 l -0.8,-0.7 c -0.2,0.1 -0.5,-0.1 -1,-0.7 0,0 -0.5,-0.2 -1.2,-0.8 0,0 -0.3,-0.1 -0.7,-0.6 -0.1,0 -0.5,-0.2 -1.3,-0.9 -0.7,-0.6 -1.2,-1 -1.5,-1 l -2.8,2.3 -1.3,1 -1.4,1.2 1,2.3 1.1,2.1 1.5,2.8 v 0.1 c 0.1,0.1 0.1,0.2 0,0.4 l -1.4,0.4 -1.6,0.8 c 0,-0.1 -1.3,0.6 -3.8,2.2 l -0.2,-0.1 a 15,15 0 0 0 -1.1,-2.8 c 0,0 0,-0.4 -0.4,-1 0.1,-0.1 0,-0.7 -0.5,-1.8 l -0.2,-0.2 -1.1,1.3 -0.2,0.1 c -0.1,0.1 -1,-0.6 -2.4,-2.1 l -1.7,-1.5 -1,-0.8 -0.3,-0.2 c -0.2,-0.3 1,-1.4 3.7,-3.4 0.5,-0.4 0.5,-0.9 0,-1.5 l -0.7,-1.6 c 0.1,0 0,-0.5 -0.5,-1.3 l -1,-2.5 c 0.1,-0.1 -0.2,-0.8 -0.8,-2.1 0,-0.4 -0.1,-0.7 -0.4,-1 0,-0.6 -0.2,-1 -0.5,-1.4 0,-0.4 -0.1,-0.7 -0.4,-1.1 0,-0.3 0,-0.7 -0.4,-1.1 0,0 -0.1,-0.8 -0.7,-2.2 0,-0.2 0,-0.4 -0.3,-0.8 a 15.3,15.3 0 0 1 3.5,-5.1 l 0.3,-0.2 z m 2.4,9.7 0.7,1.6 0.4,1.1 1,2.6 0.5,1.2 0.6,1.4 h 0.3 l 3.1,-2.3 v -0.1 l -3.2,-3 -3,-2.5 c -0.1,0 -0.3,-0.1 -0.4,0 z"
       id="path206" /><path
       fill="#ffdb28"
       stroke="#010202"
       stroke-width="0.4"
       stroke-miterlimit="10"
       d="m 150,127.3 1.2,0.2 a 23.7,23.7 0 0 1 6.5,2.6 l 1.2,1 1.3,1.7 0.5,1.3 v 0.7 c 0.2,0 0.2,0.3 0,1 l -0.2,1.3 -0.6,1 -0.5,0.7 c -1,1 -2.4,2 -4.2,2.7 l -1.4,0.5 v 0.1 l 0.6,0.2 a 23,23 0 0 1 4.6,2.2 c 1.2,1 1.9,2 2,2.7 0.3,0.4 0.4,1.4 0.3,3 v 0.4 c -0.8,1.8 -1.5,3.1 -2.4,4 a 12.6,12.6 0 0 1 -4.3,2.6 c -1.3,0.5 -2.3,0.8 -3.3,0.9 h -1 c 0,0.2 -0.4,0.3 -1,0.3 h -1.1 c 0,0.2 -0.4,0.2 -1.2,0.2 h -4.5 l -2.8,-0.3 -4.6,-1 a 6,6 0 0 1 -2.3,-1 l 1.5,-4.5 v -0.1 c 0.4,-1.2 0.8,-2.6 1.1,-4.3 l 0.5,-2.5 a 77.8,77.8 0 0 0 2,-17.2 v -0.2 c 0.2,-0.2 0.8,-0.3 1.8,-0.4 h 1 c 0,-0.2 0.6,-0.2 1.6,-0.2 h 3.3 c 0.3,0 1.8,0 4.4,0.4 z m -5,6.8 c 0.1,0.4 0,1.5 -0.2,3.2 l -0.2,2 h 0.1 a 9.7,9.7 0 0 0 6.3,-1 c 0.4,-0.3 0.8,-0.7 1,-1.2 l 0.2,-0.8 c 0.2,-0.5 -0.3,-1.1 -1.4,-1.8 l -0.7,-0.2 -2.2,-0.5 c -1.9,-0.1 -2.9,0 -3,0.3 z m -1.6,12.2 -0.4,2.2 -0.5,1.6 v 0.3 l -0.5,1 0.1,0.1 1.2,0.3 a 16.7,16.7 0 0 0 6.8,-1.2 c 0.9,-0.4 1.5,-1 1.8,-1.6 v -0.2 l 0.1,-0.2 c 0.1,-0.6 -0.7,-1.2 -2.6,-1.9 l -2,-0.4 -3.1,-0.2 c -0.6,0 -0.9,0 -0.9,0.2 z"
       id="path208" /><path
       fill="#ffdb28"
       stroke="#010202"
       stroke-width="0.4"
       stroke-miterlimit="10"
       d="m 166.4,117 c 0.7,-0.2 1,-0.1 1,0.2 l 0.8,2 0.2,1.5 c 0.5,2.7 0.5,4.2 0.3,4.7 l -2.7,0.3 c -1.5,0.3 -2.5,0.6 -3,1 -0.8,0.3 -1.5,0.8 -2.3,1.5 a 9.1,9.1 0 0 0 -2.6,4.3 v 0.6 c -0.2,0 -0.3,0.9 -0.3,2.6 l 0.3,1.4 c 0.4,1.3 0.7,2 1,2.2 0.9,1.4 2,2.3 3.6,2.8 a 7,7 0 0 0 2.5,0.3 c 0,0.1 0.3,0.1 0.8,0 l 1.2,-0.2 c 1.7,-0.5 2.8,-1 3.2,-1.3 l 1.4,-0.9 1.2,-1.3 h 0.2 a 44.9,44.9 0 0 1 2.7,7.7 c -0.5,0.5 -1,1 -1.7,1.2 -0.1,0.2 -0.4,0.4 -0.9,0.6 0,0.2 -0.3,0.3 -1,0.5 0.1,0.1 -0.4,0.3 -1.4,0.7 l -2,0.7 -1.3,0.4 -1.2,0.2 a 16.1,16.1 0 0 1 -8,-0.6 l -1.4,-0.6 -1.3,-0.9 c -1.8,-1.5 -2.7,-2.5 -2.8,-3 -0.5,-0.3 -1.1,-1.4 -2,-3.2 l -0.7,-2.6 a 33.5,33.5 0 0 1 -0.2,-5.7 c 0.1,0 0.2,-0.4 0.2,-1.1 0.3,-0.8 0.4,-1.4 0.4,-1.7 0,0 0.2,-0.3 0.3,-1 a 20.6,20.6 0 0 1 12.9,-12.8 l 2.6,-0.6 z"
       id="path210" /><path
       fill="#ffdb28"
       stroke="#010202"
       stroke-width="0.4"
       stroke-miterlimit="10"
       d="m 185,133.5 3,1.3 2.7,1.6 1.1,0.8 0.9,0.7 c 0,0.1 0.2,0.4 0.8,0.7 l 1.4,1.6 0.8,1.2 c 0,0.1 0,0.3 0.3,0.4 0,0.1 0,0.4 0.4,0.9 0.6,2 0.9,3.4 0.7,4.3 l -0.2,2 -0.7,1.9 c -0.4,1 -1,2 -1.7,3 a 20.6,20.6 0 0 1 -5.6,4.9 c -0.1,0.3 -1.6,1 -4.5,2.3 a 21.4,21.4 0 0 1 -5,1.2 c 0,0.1 -0.5,0.2 -1.6,0.3 l -0.6,0.1 h -3 c -1,0 -1.5,-0.1 -1.9,-0.3 0,0.2 -0.6,0 -1.8,-0.3 0,0.2 -0.4,0.1 -1,-0.1 l -4.9,-2 c -1.6,-0.7 -2.4,-1.3 -2.3,-1.6 l 2.3,-5 2.9,-7.2 3.2,-8.2 v -0.1 h -0.1 l -3,-0.4 -1.2,-0.1 H 166 l -0.2,-0.3 c 0.6,-0.8 1,-1.5 1.2,-2 l 0.4,-1.1 1,-3.6 c 0.6,-0.2 1,-0.2 1.4,0 0,-0.1 0.4,-0.2 1,0 h 1.2 c 0,0 0.9,0 2.4,0.3 0.1,0 0.7,0 1.7,0.3 0.1,-0.2 0.6,0 1.6,0.3 0.2,-0.1 0.9,0 2,0.5 0.3,0 1,0 1.9,0.4 l 3.3,1.3 z m -7,6 c 0.1,0.1 0,0.5 -0.2,1.2 l -0.1,0.4 -4.6,11.5 -0.9,1.9 c 1.6,0.4 2.6,0.6 3.2,0.6 h 2.9 a 12.5,12.5 0 0 0 8.3,-4.4 l 0.6,-1.2 c 0.8,-2 0.8,-3.5 0.1,-4.6 -0.3,-0.9 -1,-1.8 -2.3,-2.7 0,0 -1,-0.7 -3.2,-1.8 -2.4,-0.8 -3.6,-1.1 -3.7,-0.9 z"
       id="path212" /></g><path
     fill="#7d6d60"
     d="m 23.7,119 45.7,-14.6 0.8,21.1 z M 198.5,59.3 187,114.4 201.3,104.1 c 3.3,-2.4 9.2,-9.2 9.2,-12.4 0,-3.2 -0.8,-6.5 -1.6,-9.7 -0.8,-3.3 -10.3,-22.7 -10.3,-22.7 z M 91.8,46 75.8,97.6 c 0,0 12.8,3 18.2,-0.5 12.4,-8.1 9.4,-18 7.8,-21.9 -1.3,-3 -6.5,-10.8 -7.3,-14 C 93.7,57.9 91.8,46 91.8,46 Z"
     id="path216" /><path
     fill="#007a9c"
     d="m 17,179 109.1,26.2 49.2,-33 1.9,12.7 -49.5,34.9 -111,-25.2 z m 174.8,-128.1 7.3,3.5 -13,64.9 -8.1,0.5 -0.3,-3.2 -2.2,-1.4 z"
     id="path218" /><path
     fill="#e2cfb5"
     d="m 9.6,118.9 59,-19.5 108,15 -47,22.2 -0.8,-3 31.6,-15 4.9,-2.3 -95.1,-12.2 -43.8,13.5 -6.2,3.3 z"
     id="path220" /><path
     fill="#e2cfb5"
     d="m 14.5,117.1 114.3,17.3 0.5,1.9 L 9.4,119.5 Z m 72.7,-73.8 104.2,6.3 -15.6,64 -7.3,-0.8 L 182,55.2 91,49.3 Z"
     id="path222" /><path
     fill="#e2cfb5"
     d="M 69.4,99.3 87.2,43.9 h 5.7 l -17,53.5 93.2,12.9 6.2,3.3 z"
     id="path224" /><path
     fill="#797a7a"
     d="m 42.6,147.9 c 0,0 -4.8,1.6 -7,3.8 -2.2,2.1 -7.6,10.8 -7.6,10.8 0,0 -1.6,8 0.6,10.8 a 62.4,62.4 0 0 0 17.8,11.2 c 3.2,0.6 7,-1 8.6,-2.1 1.7,-1.1 9.2,-14.6 9.2,-17.3 0,-2.7 -4.8,-7.6 -4.8,-7.6 l -9.8,-6.5 -7,-3.2 z"
     id="path226" /><path
     fill="#007a9c"
     d="m 129.3,136.3 -119.3,-17 1.7,14.6 43.3,8 v 0.4 c -0.2,-0.1 -0.2,0 0,0.1 l 0.2,0.4 a 12.8,12.8 0 0 0 0.2,0.7 l 0.2,0.2 c 0,0.3 0.2,0.5 0.3,0.8 l 0.5,0.4 v 0.1 c 0.4,0.6 0.9,1.2 1.5,1.5 l 0.1,0.1 0.2,0.2 c 0.2,0.2 0.6,0.4 0.4,0.1 h 0.1 c 0.2,0 0.3,-0.2 0.4,-0.3 l 0.2,-0.3 h 0.1 l -0.2,0.2 c -0.1,0.1 0.4,0.7 0.6,0.6 l 1,-0.8 1,0.3 h 0.1 l 0.6,-1.2 c 0,-0.2 0.2,-0.4 0.3,-0.5 H 63 c 0.8,-0.4 0.2,-1.2 -0.4,-0.9 l -0.1,0.1 v -0.7 l 66.4,12.3 47.8,-23.5 0.3,-17 -47.6,21 z"
     id="path228" /><path
     fill="#b2b2b2"
     d="m 42.6,150.6 8.7,-13.5 c 1.6,1.6 2.7,6 2.7,6 l -4.4,8 -3.6,3.4 -2.2,-0.6 -1,-3.2 z m 21.1,-16.2 c 0,0 -2.7,0.5 -2.2,3.2 0.6,2.7 2.7,5.4 2.7,5.4 l -0.5,8.7 0.5,2.7 4.9,-0.6 2.7,-7.5 -1,-6 -2.8,-3.7 z"
     id="path230" /><path
     fill="#036d85"
     d="m 129.3,136.3 47.6,-21.1 -0.3,17 -48.1,21.9 z m -3.2,68.9 49.2,-33 1.9,12.7 -49.5,34.9 z"
     id="path232" /><path
     fill="#036d85"
     d="m 190.9,50.4 8.2,4 -13,64.9 -8.1,0.5 -2.7,-6.2 z"
     id="path234" /><path
     fill="#08a3c6"
     d="m 20,127.9 a 4,4 0 0 0 -0.3,-0.3 l 0.3,-0.5 h 0.2 c 0,-0.3 -0.2,-0.5 -0.5,-0.6 l -0.1,-0.2 -0.4,-0.3 a 0.2,0.2 0 0 0 0,-0.1 c -0.2,-0.2 -0.6,-0.5 -0.7,-0.4 a 2,2 0 0 0 -0.3,0.6 c -0.1,0 -0.2,-0.1 -0.2,0 0,0.5 -0.5,1 -0.6,1.6 l 0.2,0.2 c 0,0.2 0.3,0.3 0.4,0.3 h 0.5 c 0,0.2 0.6,0.7 0.6,0.5 l 0.2,-0.2 0.4,0.2 a 8.3,8.3 0 0 0 0,-0.6 v -0.2 c 0.2,0.1 0.3,0.3 0.5,0.3 l -0.1,-0.3 z m 101.8,15.9 c 0,-0.2 -0.4,-0.6 -0.6,-0.5 l -0.6,0.5 h -0.1 v 0.5 c -0.2,0 -0.4,-0.1 -0.3,0.1 v 0.2 l -0.2,0.3 c 0,0.3 0.4,0.7 0.6,0.7 h 0.1 c 0.1,0.2 0.6,0.5 0.6,0.4 0,-0.2 0,-0.3 -0.2,-0.5 h 0.1 v -0.1 l 0.2,-0.2 c 0.2,-0.4 0.4,-0.9 0.4,-1.4 z m -96.7,44.8 v -0.5 c 0,-0.2 -0.3,-0.4 -0.5,-0.5 0,-0.2 -0.6,-0.6 -0.7,-0.5 H 23.6 A 1,1 0 0 0 23,186.5 l -0.3,-0.1 c -0.5,-0.2 -0.4,0.7 -0.4,1 -0.1,-0.1 -0.6,-0.5 -0.5,-0.2 0.2,0.3 0.2,0.7 0.3,1.1 l 0.2,0.4 v 0.6 c 0,0.3 0.3,0.6 0.6,0.6 l 0.2,-0.3 c 0.2,0.2 0.5,0.3 0.6,0.1 h 0.5 c 0.3,0.2 0.4,0 0.2,-0.2 l 0.3,-0.3 h 0.4 z m 96.2,21.7 c 0.1,0 -0.4,-0.5 -0.6,-0.5 0,-0.3 -0.5,-0.7 -0.6,-0.5 v 0.2 l -0.5,-0.3 h -0.5 v 0.1 l 0.1,0.8 v 0.2 a 1,1 0 0 0 -0.3,0.1 l -0.2,0.4 -0.2,1.2 c 0,0.1 0.5,0.6 0.6,0.5 l 0.6,-0.8 c 0.2,0.2 0.4,0.3 0.5,0.2 0.1,-0.2 0.3,-0.3 0.3,-0.5 h 0.2 c 0.1,0 0,-0.2 0,-0.2 v -0.6 z m 10.2,-0.1 v -1 c 0,-0.2 -0.3,-0.5 -0.5,-0.5 0,-0.2 -0.5,-0.7 -0.6,-0.6 l -0.4,0.7 c -0.1,0 -0.3,0 -0.3,0.2 l 0.1,1.3 v 0.1 c 0.2,0.3 0.5,0.5 0.6,0.4 0,0.2 0.4,0.5 0.6,0.5 0.2,0 0.5,-0.4 0.5,-0.5 z m 4.9,-67.4 c 0.1,-0.2 -0.4,-0.7 -0.6,-0.6 a 7,7 0 0 0 -0.5,0.4 v -0.4 c 0,-0.2 -0.5,-0.7 -0.6,-0.5 l -0.5,0.5 v 0.2 l -0.2,0.3 -0.2,0.6 h -0.1 v 1 l -0.1,0.2 v 1 c 0,0.2 0.6,0.6 0.6,0.5 l 0.4,-1 h 0.2 v -0.6 l 0.3,-0.3 c 0.3,0.4 0.7,0.6 1.2,0.8 0.3,0.2 -0.2,-0.4 -0.4,-0.5 -0.3,-0.2 -0.6,-0.3 -0.5,-0.7 l 1,-1 z m 36.2,-16.4 c 0,-0.3 0,-0.6 -0.2,-0.8 -0.2,-0.1 -0.5,-0.4 -0.8,-0.2 l -0.3,0.5 -0.4,0.7 c 0,0 0,0.2 0.2,0.3 l -0.2,0.2 c 0,0 0,0.2 0.2,0.3 l -0.2,0.8 c 0,0.2 0.5,0.7 0.6,0.5 0.5,-0.5 0.5,-1.2 0.9,-1.8 v -0.2 c 0.1,0 0.2,0 0.2,-0.2 z m 10.7,-16.1 c 0,0.2 -0.2,0.4 -0.3,0.5 h -0.4 l -0.1,0.2 h -0.2 c 0,-0.1 0,-0.1 0,0 0,0 0,0.2 0.2,0.3 l -0.2,0.1 v 1.1 c 0,0.2 0.4,0.7 0.6,0.5 0.2,-0.2 0.6,-0.5 0.7,-0.8 0.2,-0.4 0.2,-0.9 0.3,-1.3 0.1,-0.2 -0.4,-0.7 -0.6,-0.6 z m 11.8,-51.1 0.1,-0.1 c 0.3,-0.3 -0.2,-0.8 -0.5,-0.9 -0.2,-0.1 -0.5,-0.4 -0.6,-0.3 0,0.2 0,0.4 -0.2,0.6 h -0.3 l 0.1,0.3 h 0.1 l -0.2,0.8 -0.5,1 c -0.2,0.2 0.4,0.7 0.6,0.6 l 0.3,-0.5 h 0.5 l 1,-1 c 0,-0.3 -0.2,-0.4 -0.4,-0.5 z M 171,182.7 c 0,-0.2 -0.3,-0.4 -0.5,-0.5 l -0.1,-0.2 c -0.1,-0.1 -0.4,-0.4 -0.6,-0.3 -0.4,0.3 -1,0.8 -0.8,1.4 l 0.3,0.4 v 0.4 l 0.1,0.2 -0.1,0.3 -0.2,0.2 c 0,0.2 0.4,0.5 0.6,0.5 0.3,0.1 0.6,-0.4 0.7,-0.9 l 0.6,-1 -0.1,-0.2 v -0.3 z"
     id="path236" /><path
     fill="#007a9c"
     d="m 117.7,33.9 c 0,0 2.7,-3.8 5.4,-4.3 2.7,-0.6 14.6,-2.2 17.9,-1.7 3.2,0.6 11.3,3.8 11.3,3.8 l -1,12 1,3.2 h -10.8 c 0,0 -1,-4.4 -2.2,-6 -1,-1.6 -5,-2.8 -5,-2.8 l 3.4,7.7 -11.3,-0.6 z"
     id="path238" /><path
     fill="#010202"
     d="m 10.4,119.1 v -0.6 l -1.5,0.4 c 0,2.5 0.2,5 0.5,7.4 0.4,2.7 0.7,5.7 1.9,8.2 0.4,0.9 1,1.5 2,1.3 0.2,0 1,-0.2 1,-0.5 0,-0.2 -0.5,-0.2 -0.7,-0.2 0.2,0 0,0 -0.1,-0.1 l -0.4,-0.5 c -0.4,-0.5 -0.6,-1.1 -0.8,-1.7 a 64.3,64.3 0 0 1 -1.9,-14.3 c 0,-0.3 -1.5,0 -1.5,0.4 v 0.6 c 0,0.3 1.5,0 1.5,-0.4 z M 178,118 v -3.3 c 0,-0.2 -1.6,0 -1.6,0.4 0,5.8 -0.5,11.6 -0.6,17.3 0,0.3 1.6,0 1.6,-0.4 0,-5.7 0.5,-11.5 0.5,-17.3 l -1.5,0.4 v 3.3 c 0,0.2 1.5,0 1.5,-0.4 z"
     id="path240" /><path
     fill="#010202"
     d="m 177,131.2 h -0.6 c -0.3,0 -0.6,0.1 -0.8,0.3 -0.1,0 -0.2,0 -0.2,0.2 l -0.1,0.2 v 0.5 l 1,-0.6 h -0.4 l -0.7,0.1 -0.2,0.2 -0.2,0.1 v 0.3 l 0.4,0.2 h 0.6 c 0.3,0 0.5,0 0.8,-0.2 l 0.2,-0.3 v -0.7 l -1,0.6 h 1.1 l 0.3,-0.2 0.2,-0.2 v -0.3 l -0.5,-0.2 z m -2.2,2.9 -2,34.8 -0.2,5.1 c 0,0.3 1.6,0 1.6,-0.4 0,-4 0.3,-8 0.5,-12 l 1.1,-19.2 0.5,-8.8 c 0,-0.2 -1.5,0 -1.5,0.5 z M 126.6,205 v -0.6 l -1.6,0.4 c 0,5 0.6,10.1 0.6,15.2 0,0.3 1.6,0 1.6,-0.4 0,-5 -0.6,-10.1 -0.6,-15.2 0,-0.3 -1.6,0 -1.6,0.4 v 0.6 c 0,0.3 1.6,0 1.6,-0.4 z M 65.4,131.7 a 3,3 0 0 0 -1.4,0.7 9,9 0 0 0 -1.6,1.4 6.6,6.6 0 0 0 -1.8,5.1 c 0.2,1.5 1,2.8 1.8,4 0.4,0.4 2,-0.2 1.5,-0.7 -1.6,-2 -2.4,-4.6 -1,-7 a 7.7,7.7 0 0 1 2.4,-2.4 l 0.1,-0.1 c 0.1,0 -0.1,0 0,0 h 0.1 -0.3 c 0.3,0 0.9,-0.2 0.9,-0.6 0,-0.3 -0.4,-0.4 -0.7,-0.4 z"
     id="path242" /><path
     fill="#010202"
     d="m 59.6,128.7 c -0.2,0 -0.8,0.3 -0.5,0.7 0.2,0.2 0.7,0.1 1,0 l 0.4,-0.1 h 0.3 c 0.3,-0.1 0,0 0,0 l 0.2,-0.1 h 0.7 v -0.1 c 0.2,0 -0.1,0 0,0 h 0.8 c 0.1,0 -0.2,0 0,0 h 0.1 l 0.5,0.2 c 0.1,0 0,0 0,0 l 0.3,0.1 0.3,0.1 c 0,0 0.2,0.2 0,0 l 0.5,0.5 c 0.7,0.7 0.9,1.8 0.9,2.9 0,0.3 0.4,0.3 0.7,0.3 0.2,0 0.8,-0.2 0.8,-0.5 0,-1.7 -0.4,-3.5 -2.1,-4.2 a 6.6,6.6 0 0 0 -4,0 H 60 l -0.2,0.1 h 0.6 l 0.2,0.2 v 0.3 l -0.3,0.2 c 0.1,-0.1 -0.2,0 0,0 0.1,0 0.6,-0.3 0.3,-0.6 -0.2,-0.3 -0.8,-0.2 -1,0 z"
     id="path244" /><path
     fill="#010202"
     d="m 59.6,128.5 a 16,16 0 0 0 -4.7,2.9 9.1,9.1 0 0 0 -2.6,5 c -0.8,4 1,9.9 5.3,11.2 1.1,0.4 2.4,0.5 3.6,0.1 0.6,-0.1 1.2,-0.4 1.6,-0.8 0.2,-0.3 0.5,-1.2 0.8,-1.2 0.8,0 1.3,-1.1 0.2,-1 -0.6,0 -1,0.2 -1.5,0.6 -0.3,0.3 -0.4,0.8 -0.8,1.2 -0.7,0.9 -2.8,0.4 -3.7,-0.1 -2.3,-1.3 -3.5,-4.2 -4,-6.6 -0.3,-2.4 0,-5 1.4,-7 1.2,-1.7 3.2,-2.6 5,-3.4 1,-0.4 0.1,-1.1 -0.6,-0.8 z"
     id="path246" /><path
     fill="#010202"
     d="m 52.6,134.5 c 0,-0.1 0.2,-0.2 0,0 l -0.5,0.4 -1.6,1.6 a 39,39 0 0 0 -5.3,7.3 71.5,71.5 0 0 0 -3.9,7.8 c -0.3,0.8 1.3,0.8 1.5,0.2 2.6,-6 5.7,-12 10.6,-16.5 0.3,-0.2 0.8,-0.6 0.8,-1 0,-0.8 -1.5,-0.5 -1.6,0.2 z M 63,134.1 c 0.7,0.7 1.5,0.4 2.3,0.8 0.5,0.2 1,0.6 1.4,1 l 1.1,0.8 c 1.5,1.5 2,3.7 2.7,5.6 1.4,3.9 0.7,9.2 -2.6,12 l 1.4,-0.1 v -0.6 c 0,-0.4 -1.5,0 -1.5,0.5 v 0.5 c 0,0.4 1.2,0 1.4,-0.1 3.2,-2.8 4.4,-8 3.1,-12 -0.6,-1.8 -1.2,-4 -2.4,-5.6 a 8.7,8.7 0 0 0 -2.4,-2 c -0.3,-0.3 -0.7,-0.8 -1.2,-0.9 -0.7,-0.2 -1.2,0.1 -1.9,-0.4 -0.3,-0.4 -1.8,0.2 -1.4,0.5 z"
     id="path248" /><path
     fill="#010202"
     d="m 61.3,140 v 0.5 c 0,0.2 0.4,0.3 0.5,0.3 h 0.5 l -0.5,-0.3 c 1,1.9 1.6,3.8 1.7,6 0,1.7 -0.5,3.4 -1,5 -0.2,0.8 -0.4,1.6 -0.2,2.3 0.1,0.6 0.7,0.7 1.2,0.9 1.2,0.4 3,0.7 4,-0.2 0.3,-0.2 0.2,-0.4 0,-0.5 -0.4,-0.1 -1,0 -1.2,0.3 0.3,-0.3 0.2,0 0,-0.1 H 66 L 65.1,154 c -0.4,0 -1.1,-0.2 -1.3,-0.6 -0.3,-1 0.5,-2.5 0.7,-3.4 0.4,-1.7 0.7,-3.4 0.5,-5.1 -0.2,-1.7 -0.9,-3.3 -1.6,-4.8 0,-0.2 -0.3,-0.2 -0.5,-0.2 h -0.5 l 0.5,0.2 v -0.5 c 0,-0.5 -1.6,-0.2 -1.6,0.4 z m -13.1,13.8 0.8,-1.1 a 71.9,71.9 0 0 0 4.5,-8.1 c 0.4,-0.7 0.7,-1.5 0.7,-2.3 0,-0.4 -1.5,-0.2 -1.6,0.4 0,0.6 -0.3,1.3 -0.5,1.9 a 75.4,75.4 0 0 1 -4.4,8 c -0.3,0.3 -0.6,0.9 -1,1.2 -0.2,0.3 0.3,0.5 0.5,0.5 0.4,0 0.7,-0.2 1,-0.5 z M 39,149.4 a 3.2,3.2 0 0 1 1,-0.8 1.8,1.8 0 0 1 0.1,-0.1 c 0.2,0 0,0 0,0 h 0.4 c 0.2,-0.1 -0.1,0 0,0 l 0.4,-0.1 h 0.2 c 1,0 2,0 3,-0.4 0.2,0 0.6,-0.3 0.3,-0.4 l -1.1,0.2 c -0.2,0 0,0 0,0 h 0.2 c -0.2,0 0,0 0,0 h -0.2 c 0,0 0.2,0 0,0 h -2.1 c -1.4,0.2 -2.8,0.7 -3.7,1.9 -0.1,0.2 0.6,0 0.6,0 0.3,0 0.8,0 1,-0.3 z"
     id="path250" /><path
     fill="#010202"
     d="m 36.4,150.1 c 0,0.6 0.6,-0.1 0.1,0 -0.2,0 -0.3,0.1 -0.5,0.3 l -1,1.1 c -1,1 -1.8,2 -2.6,3 -1.7,2 -3.2,4 -4.3,6.4 -2.5,5.1 -2,10.6 1.6,15 a 25,25 0 0 0 6.8,5.6 31,31 0 0 0 7.8,3.5 c 5,1.3 10.4,0.4 13.4,-3.9 0.8,-1 1.3,-2.3 1.9,-3.5 0.8,-1.5 1.7,-3 2.7,-4.3 1.8,-2.6 3,-5 3.3,-8.2 0,-0.8 -1.5,-0.6 -1.6,0.2 -0.3,2.6 -1.1,4.8 -2.7,7 a 39,39 0 0 0 -3.8,6.3 c -0.8,1.8 -1.9,3.4 -3.5,4.4 -2.2,1.5 -5,1.7 -7.5,1.2 -2.5,-0.4 -5,-1.5 -7.1,-2.7 a 30.3,30.3 0 0 1 -6.2,-4.2 c -4.1,-3.7 -6.3,-9 -4.4,-14.3 1.6,-4.8 5.2,-8.5 8.5,-12.2 l -0.7,0.4 c 0.8,0 1.4,-0.3 1.4,-1.2 0,-0.8 -1.6,-0.6 -1.6,0.1 z"
     id="path252" /><path
     fill="#010202"
     d="m 48.3,150.7 v 1 c 0,0.3 0.3,0.5 0.5,0.5 h 0.6 l -0.5,-0.4 v 0.5 l 0.1,0.3 c 2,1 4.2,1.7 6,2.8 a 28.1,28.1 0 0 1 7.1,5.8 c 0.9,1 1.9,2.2 1.9,3.5 0,0.8 1.6,0.4 1.6,-0.1 0,-1.4 -0.8,-2.6 -1.6,-3.6 a 36.4,36.4 0 0 0 -7.5,-6.3 c -2,-1.2 -4.2,-1.9 -6.2,-2.9 l 0.1,0.3 v -0.5 c 0,-0.3 -0.2,-0.4 -0.5,-0.4 h -0.5 l 0.5,0.4 v -1 c 0,-0.8 -1.6,-0.5 -1.6,0 z m -3.3,12 c -0.6,-0.5 -1.5,-0.5 -2.3,-0.6 -0.8,0 -1.6,-0.1 -2.4,0.4 l -0.8,0.4 c -0.3,0.1 -0.4,0.4 -0.6,0.7 l -0.7,2 c -0.4,1.7 -0.7,3.3 -1.3,4.8 -0.5,1.4 -1.2,3 -2.7,3.7 -0.2,0.1 -0.5,0.2 -0.5,0.5 v 0.5 c 0,0.2 0.4,0.2 0.5,0.2 h 0.5 l -0.4,-0.1 c 1.9,1.2 3.8,2.2 5.4,3.8 0.3,0.2 1.6,0 1.5,-0.5 -0.2,-1.6 0.3,-3.2 0.8,-4.7 0.6,-1.5 1.4,-3 2.4,-4.2 0.8,-1.2 1.8,-2.4 1.4,-4 -0.4,-1.4 -1.6,-2.7 -2.4,-4 -0.3,-0.3 -1.8,0.2 -1.5,0.6 0.8,1.3 2.1,2.6 2.4,4 0.3,1.7 -1.1,3 -2,4.2 -1.5,2.4 -3.1,5.6 -2.6,8.5 l 1.5,-0.5 c -1,-1 -2.3,-1.9 -3.6,-2.6 l -1.7,-1.1 c -0.4,-0.2 -0.7,-0.2 -1,-0.2 l 0.4,0.2 v -0.5 l -0.5,0.4 c 4.5,-2 4,-7.8 5.9,-11.7 l -1,0.5 c 0.8,-0.1 1.5,-0.4 2,-1 l -1,0.5 c 0.8,0 2.1,-0.2 2.8,0.4 0.4,0.3 1.8,-0.3 1.5,-0.6 z M 198,59.5 c 0.3,1.4 1,2.8 1.6,4.2 l 3.6,8.3 c 0.9,2 1.9,3.9 3,5.7 1,1.4 1.9,2.8 2.4,4.5 1.5,5 1,10.8 -2,15.3 -2.6,4 -6.5,7 -10.4,9.6 -1.4,1 -3,1.5 -4.6,2.5 a 15.6,15.6 0 0 0 -5.5,6.3 c -0.4,0.8 1.2,0.8 1.5,0.2 1.3,-2.5 3,-4.7 5.5,-6.1 1.4,-0.7 2.8,-1.3 4,-2.1 3.9,-2.6 7.7,-5.5 10.4,-9.3 1.4,-2 2.5,-4.2 3,-6.6 0.7,-2.6 0.5,-5.5 0,-8.2 -0.5,-4 -3,-6.7 -4.8,-10.1 -1.5,-3 -2.8,-6.4 -4.2,-9.6 -0.7,-1.6 -1.6,-3.3 -2,-5 0,-0.7 -1.7,-0.3 -1.5,0.4 z m -19.7,60.2 4,0.3 c 1.1,0 2,0 3,0.2 0.4,0 0.9,0 1.1,-0.3 0.3,-0.2 0.2,-0.5 -0.1,-0.5 -1,-0.2 -2.2,-0.3 -3.2,-0.3 -1.3,0 -2.6,-0.1 -3.8,-0.3 -0.4,0 -0.8,0 -1.1,0.3 -0.3,0.2 -0.2,0.5 0.1,0.6 z M 128.2,46.1 v -1 c 0,-0.2 -0.2,-0.2 -0.2,-0.2 -1,0 -1.8,-1.7 -2.4,-2.5 l -2.7,-2.9 -2.5,-2.9 c -0.8,-0.7 -1.6,-1.5 -2.1,-2.4 -0.6,-1.2 0.2,-1.8 1.1,-2.5 1,-0.7 2,-1.3 3.2,-1.8 a 28,28 0 0 1 8.9,-1.6 c 5.1,-0.2 10.5,-0.3 15.4,1.5 a 16.8,16.8 0 0 1 4.4,2.6 c 0.2,0 0.5,0.3 0.6,0.4 0.1,0.4 0,0 -0.2,0.4 l -1,1.6 -0.7,2.3 c -0.3,2 -0.3,4.1 0,6.2 0.2,1.6 0.5,3.5 1.5,4.8 0.3,0.4 1.7,-0.2 1.6,-0.4 -1.5,-2 -1.7,-5 -1.8,-7.5 0,-2.3 0.1,-6 2.3,-7.5 v -0.2 c -5.7,-5.5 -15,-5.2 -22.3,-4.7 -3.9,0.2 -8,0.8 -11.4,2.8 l -1.9,1.3 c -0.4,0.3 -1.3,0.9 -1.5,1.5 -0.4,1.1 1.3,2.7 2,3.4 1.8,1.8 3.4,3.8 5.1,5.6 0.8,0.9 1.5,2.3 2.4,3 l 0.7,0.1 c 0.4,0.3 -0.1,-0.4 0,0.3 v 0.7 c 0,0.3 1.5,0 1.5,-0.4 z"
     id="path254" /><path
     fill="#010202"
     d="m 137.4,46.6 v -1 c 0,-0.2 -0.3,-0.2 -0.4,-0.2 h -0.6 l 0.5,0.2 c -0.5,-1.5 -1.3,-2.9 -1.6,-4.4 a 4,4 0 0 1 0.4,-2.4 l 0.1,-0.2 c 0.1,0 0,0 0,0 0,0 -0.2,0 0,0 h -0.3 0.2 l 0.2,0.2 c 0.2,0 0.4,0.1 0.5,0.3 l 1.1,1 c 0.7,0.9 1.3,1.9 1.8,2.9 0.6,1.6 1,3.3 2,4.7 0.3,0.4 1.8,-0.1 1.5,-0.6 -1,-1.4 -1.3,-3.1 -2,-4.6 -0.5,-1.2 -1.2,-2.3 -2,-3.2 -0.7,-0.8 -1.6,-1.5 -2.7,-1.5 -0.7,0 -1.3,0.3 -1.8,0.9 -0.4,0.4 -0.5,1.1 -0.6,1.7 -0.2,2 1,3.8 1.6,5.6 0,0.2 0.3,0.2 0.5,0.2 h 0.5 L 135.9,46 v 1 c 0,0.5 1.5,0.2 1.5,-0.4 z"
     id="path256" /><path
     fill="none"
     stroke="#010202"
     stroke-width="0.8"
     stroke-miterlimit="10"
     d="m 68.6,99.8 108,14.1 m -163.2,6.4 116.2,16.8 m 0,-0.5 47,-21.7 m -49.7,42.7 -1.1,44.3 m 3.8,-64.8 -0.5,15.1 m -111.9,27 107.6,25.4 m -108.7,-26.4 1.7,15.6 m -0.6,0 109.2,26 m 1.1,0 47.5,-34.6 m -105.9,-80.5 94,11.9 m -34,17.3 36.2,-17.3 m -142.7,2.1 105.9,15.7 M 23.2,118.7 69.1,104.7 M 86.9,43.1 69.1,99.3 m -55.1,35.6 4.3,43.3 m -4.3,-43.3 34,5.4 m 25.4,4.9 53,9.7 m 2.1,1.1 46.5,-23.2 m -49.2,72.9 48.1,-32.9 M 10.2,118.2 68.6,99.8"
     id="path258" /><path
     fill="#010202"
     d="m 13.7,135 c 0,3.5 0.5,7 0.8,10.5 0.4,3.7 0.4,7.5 0.8,11.2 0.7,7.4 1.7,14.7 1.7,22 0,0.8 1.6,0.5 1.6,0 0,-7.2 -1,-14.3 -1.6,-21.4 -0.4,-3.7 -0.5,-7.4 -0.8,-11.1 -0.3,-3.8 -0.9,-7.5 -0.9,-11.4 0,-0.7 -1.6,-0.4 -1.6,0.2 z"
     id="path260" /><path
     fill="#010202"
     d="m 18.6,179.2 c 0,-0.9 -0.5,-1 -1.3,-1 -0.5,0 -1,0.3 -1.2,0.7 -0.6,0.7 -0.7,1.9 -0.7,2.8 -0.2,3 0,6.2 0.3,9.3 l 0.2,3.5 c 0,0.7 1.6,0.4 1.6,-0.2 0,-2.8 -0.4,-5.5 -0.6,-8.3 a 37,37 0 0 1 0.4,-6.5 l 0.1,-0.4 c 0,-0.1 0.2,0 0,0 -0.3,0.1 -0.4,0 -0.4,0.2 0,0.7 1.6,0.4 1.6,-0.1 z"
     id="path262" /><path
     fill="#010202"
     d="m 16.5,193.3 c -0.5,0.5 -0.6,0.6 -0.6,1.3 H 16 c 3.4,1.2 7,1.3 10.3,2.3 l 11.5,2.8 c 7.3,1.9 14.8,3.2 22.1,4.7 7.2,1.5 14.3,3.3 21.4,5 3.5,0.8 7,1.3 10.5,2.3 l 11.1,3.2 12.2,3 5.9,1.5 2.3,0.5 c 0.7,0 1.8,-0.1 2.3,0.6 0.3,0.4 1.7,-0.2 1.6,-0.4 -0.6,-0.9 -1.7,-0.9 -2.6,-1 -1.9,0 -3.7,-0.6 -5.5,-1 l -11.6,-3 c -4,-1 -8,-2 -11.8,-3.2 -3.5,-1.1 -7,-1.9 -10.5,-2.6 -7.6,-1.5 -15,-3.7 -22.6,-5.2 -7.6,-1.7 -15.4,-3 -23,-4.9 l -13.2,-3.4 -5.8,-1 c -0.6,0 -1,-0.2 -1.6,-0.3 -0.3,0 -1.4,-0.2 -1.5,-0.4 -0.2,-0.4 0.2,-0.6 0.4,-0.8 0.4,-0.4 -1.1,-0.3 -1.4,0 z"
     id="path264" /><path
     fill="#010202"
     d="m 127.7,220.1 v -0.5 l -1,0.6 h 0.4 c 0.4,0 1.1,-0.2 1.1,-0.6 V 219 l -0.9,0.7 c 1.6,-0.1 2.5,-1 3.6,-2 1.5,-1.5 3.2,-2.8 4.9,-4 3.5,-2.5 7.2,-4.7 11,-7 l 10.3,-7 c 3.4,-2.3 6.4,-4.9 9.6,-7.3 2,-1.5 4,-3.1 6.1,-4.3 1.6,-0.9 3,-2 4,-3.4 0.4,-0.6 -1.2,-0.5 -1.4,0 -1,1.3 -2.4,2.3 -4,3.1 -1.5,0.9 -3,2.1 -4.4,3.2 -3.2,2.4 -6.3,5 -9.6,7.4 -6.4,4.5 -13.1,8.5 -19.6,12.9 a 96.6,96.6 0 0 0 -7.7,5.7 c -0.7,0.6 -1.5,1.7 -2.5,1.8 -0.4,0 -1,0.2 -1,0.6 v 0.6 l 1.2,-0.7 h -0.6 c -0.4,0 -1,0.2 -1,0.7 v 0.5 c 0,0.5 1.5,0.2 1.5,-0.4 z"
     id="path266" /><path
     fill="#010202"
     d="m 175.3,173.4 c 0,3.7 0.5,7.5 0,11.3 l 0.8,-0.6 h -0.5 c -0.3,0 -0.8,0.2 -0.8,0.6 v 0.4 c 0,0.8 1.5,0.6 1.5,-0.1 v -0.4 c 0,-0.8 -1.5,-0.6 -1.5,0.1 v 0.4 c 0,0.8 1.5,0.6 1.5,-0.1 v -0.4 l -0.8,0.6 h 0.5 c 0.4,0 0.8,-0.2 0.9,-0.6 0.5,-3.8 0,-7.6 0,-11.4 0,-0.8 -1.6,-0.6 -1.6,0.2 z"
     id="path268" /><path
     fill="#010202"
     d="m 176.2,172.7 h -0.6 l 0.7,0.5 v -0.5 l -0.1,-0.4 a 1,1 0 0 0 -0.6,-0.1 H 174 l -0.6,0.2 -0.3,0.4 c 0,0.2 0,0.3 0.2,0.4 l 0.6,0.1 h 1.6 l -0.7,-0.5 v 0.6 l 0.1,0.3 0.6,0.1 h 0.5 c 0.2,0 0.4,0 0.6,-0.2 0.1,0 0.3,-0.2 0.3,-0.4 0,-0.1 0,-0.3 -0.2,-0.3 a 1,1 0 0 0 -0.5,-0.2 z M 10.8,118.2 c 3,-2 7,-2.4 10.5,-3.2 3.8,-0.8 7.5,-2.4 11.2,-3.7 7.6,-2.8 15.3,-4.8 23,-7.1 4.3,-1.4 8.6,-2.9 12.8,-4.7 1,-0.4 0,-0.8 -0.6,-0.5 -7.6,3.4 -15.8,5.5 -23.8,7.9 -3.8,1.2 -7.7,2.4 -11.5,3.8 -4,1.4 -7.8,3 -12,3.9 -3.6,0.8 -7.5,1.4 -10.8,3.5 -0.3,0.2 -0.1,0.4 0.1,0.4 0.3,0.2 0.9,0 1.1,-0.3 z"
     id="path270" /><path
     fill="#010202"
     d="m 68.3,100.3 c 1,0 2,0.3 3,0.4 l 7.7,1.1 a 43148.8,43148.8 0 0 0 83,11.6 l 9,1 c 1.5,0.3 3,0.5 4.5,0.5 h 0.7 c 1,-0.3 0.7,-1.2 -0.2,-1 0.1,0 0.3,0 0,0 h -0.8 l -2.4,-0.3 -8.2,-1 a 2811.7,2811.7 0 0 1 -56.2,-7.7 L 82,101.2 73.3,99.9 69.1,99.3 h -0.3 c -0.6,0 -1.6,1 -0.5,1 z"
     id="path272" /><path
     fill="#010202"
     d="m 69.9,98.7 c 0,-0.4 0,-0.4 -0.3,0 0.3,0 0.6,-0.1 0.8,-0.4 0.6,-1.3 1,-2.6 1.3,-4 0.2,-0.6 0.2,-1.2 0.3,-1.9 0.2,-0.9 0.7,-1.7 1,-2.6 l 0.4,-2 c 0.4,-0.9 0.6,-1.7 0.8,-2.5 0.2,-2 0.9,-3.8 1.4,-5.7 1.1,-4.3 3,-8.4 4.2,-12.6 1.3,-4.3 3.2,-8.3 4.4,-12.6 0.5,-1.9 1,-3.8 1.7,-5.7 0.6,-1.6 1.2,-3.4 1.3,-5.1 0,-0.8 -1.6,-0.6 -1.6,0 0,3.3 -1.8,6.2 -2.6,9.2 -1,4.4 -2.8,8.4 -4.3,12.7 l -2,6 -2,5.8 -1.7,6.1 c -0.3,0.8 -0.3,1.7 -0.5,2.5 -0.2,1 -0.8,1.7 -1,2.6 v 1.3 l -0.6,1.3 -0.5,2.1 c -0.3,1.7 -0.8,3.4 -1.5,5 l 0.8,-0.6 c -0.8,0 -1.4,0.3 -1.4,1.2 0,0.8 1.6,0.6 1.6,-0.1 z"
     id="path274" /><path
     fill="#010202"
     d="m 88.3,44.1 v -0.6 l -1.1,0.6 c 3.9,0 7.8,0.4 11.6,0.6 a 5837.3,5837.3 0 0 1 89.6,5.7 h 0.4 c 0.1,0.1 0.2,0 0,0.1 0.4,-0.1 0.2,0.3 0,-0.2 0.2,0.6 1.8,0.2 1.6,-0.4 -0.2,-0.6 -2.4,-0.5 -2.8,-0.6 l -7,-0.5 a 2970.5,2970.5 0 0 0 -52.5,-3.4 l -25.8,-1.5 -14,-0.8 h -0.5 c -0.3,0 -1.1,0.2 -1.1,0.6 v 0.5 c 0,0.7 1.6,0.4 1.6,-0.1 z m 93.7,11 A 6884.1,6884.1 0 0 0 95.4,49.6 c -1.1,0 -2.5,-0.2 -3.6,0.1 -0.2,0.1 -0.6,0.2 -0.7,0.4 -0.4,0.5 1.2,0.3 1.4,0 -0.2,0.2 -0.5,0.2 -0.7,0.3 0.1,0 0.1,0 0,0 h 2.7 l 6.8,0.2 a 1493.4,1493.4 0 0 1 47.1,3 l 21.8,1.5 c 3.6,0.2 7.1,0.6 10.6,0.7 h 0.2 c 0.4,0 1.8,-0.6 1,-0.7 z m -7.2,59.9 c 0,1.1 1.5,0.3 1.7,-0.4 l 0.9,-3 3.2,-13.4 a 4833,4833 0 0 0 8.2,-35.5 l 2.7,-11.6 c 0.1,-0.7 -1.5,-0.4 -1.6,0.2 -2,8.2 -3.8,16.5 -5.7,24.7 -2.4,10.8 -4.9,21.5 -7.5,32.2 l -1.3,5.1 -0.4,1.4 -0.1,0.2 c 0,0 1.4,-0.3 1.4,0 0,-0.8 -1.6,-0.5 -1.5,0.1 z m -48.1,41.2 c 0,8.2 -0.7,16.4 -1.4,24.5 -0.4,4.1 -0.7,8.2 -0.8,12.3 0,2.8 -0.5,5.5 -0.5,8.4 0,0.3 1.5,0 1.5,-0.5 v -0.3 c 0,-0.3 -1.5,0 -1.5,0.5 v 0.3 c 0,0.3 1.5,0 1.5,-0.5 0,-2.8 0.6,-5.5 0.6,-8.3 0,-4.3 0.3,-8.5 0.8,-12.7 0.7,-8 1.3,-16 1.3,-24.1 0,-0.3 -1.5,0 -1.5,0.4 z m -85.4,-4.5 c 0,0.8 0.6,1.4 1.1,2 v -0.3 c 0,0.5 0.2,1 0.7,1.4 0.5,0.3 1.1,0.4 1.7,0.3 a 6,6 0 0 0 3.2,-1.6 c 0.3,-0.2 0.2,-0.6 -0.2,-0.7 -0.4,-0.2 -0.8,0 -1,0.3 -0.2,0 0,-0.1 -0.1,0 l -0.1,0.1 -0.3,0.2 -0.3,0.1 -0.3,0.2 -0.2,0.1 h -0.1 a 5.3,5.3 0 0 1 -0.4,0.1 h -0.5 c 0,0 0.1,0 0,0 h -0.1 c -0.2,0 0,0.1 0,0 h -0.2 c -0.1,0 0,0 0,0 H 44 c 0.2,0 0,0 0,-0.1 v -0.2 c 0,0.2 0,0 0,0 l -0.1,-0.2 v -0.1 c 0,-0.2 0,-0.3 -0.2,-0.4 l -0.2,-0.3 c -0.3,-0.2 -0.7,-0.6 -0.7,-1 0,-0.4 -0.4,-0.5 -0.8,-0.5 -0.2,0 -0.8,0.3 -0.8,0.6 z"
     id="path276" /><path
     fill="none"
     stroke="#010202"
     stroke-width="0.8"
     stroke-miterlimit="10"
     d="m 39.4,153.3 21.1,12.4 m 1,1.1 -8.1,15.1 M 90.7,50.6 76.1,97.8 m 0.6,-0.2 91.8,12.5 M 182,56.6 169.1,109.5 m 16.7,10.8 13,-64.3 m -7.6,-6.4 8.1,5.4"
     id="path278" /><path
     fill="#010202"
     d="m 128.3,155 c -0.8,0 -1.6,0.2 -1.6,1 0,0.3 0,0.4 0.3,0.5 1.7,0.4 2.9,-0.6 4.3,-1.4 1,-0.6 2.2,-0.9 3.3,-1.3 l 2.9,-1.3 6.3,-3.5 c 2.2,-1.2 4.4,-2.1 6.7,-3 4.5,-1.9 9.1,-3.7 13.3,-6.2 4.2,-2.4 8.7,-4.1 12.8,-6.8 0.9,-0.5 -0.5,-0.8 -1,-0.5 -3.8,2.5 -8,4 -12,6.3 -3.9,2.3 -8.1,4.1 -12.4,5.9 -2,0.8 -4,1.5 -5.9,2.4 -2,1 -3.8,2.2 -5.8,3.3 -2,1 -3.9,2 -6,2.8 l -2.7,1.1 c -0.9,0.4 -1.8,1.5 -2.9,1.3 l 0.3,0.3 v -0.3 l -0.7,0.4 h 0.2 c 0.6,0 1.6,-1 0.6,-1 z M 13.2,133.4 c -0.8,0 -1.6,0.2 -1.6,1 0,0.3 0,0.4 0.3,0.4 5.9,1.2 11.8,2 17.7,3 2.5,0.5 5,1 7.5,1.3 l 4.2,0.6 c 1.4,0.3 2.8,0.5 4.3,0.6 0.6,0 1.6,-1 0.6,-1 -1.5,0 -3,-0.3 -4.4,-0.6 l -4.1,-0.5 -7.5,-1.3 c -5.8,-1 -11.6,-1.8 -17.4,-3 l 0.3,0.4 V 134 l -0.7,0.3 h 0.2 c 0.6,0 1.7,-1 0.6,-1 z"
     id="path280" /><path
     fill="#010202"
     d="m 73,146.1 c 2.3,0 4.5,0.7 6.7,1.1 l 7,1.4 c 2.3,0.4 4.5,1 6.8,1.3 l 7.7,1 7,1.5 c 1.6,0.3 3.2,0.7 4.9,0.7 a 78.2,78.2 0 0 1 11.5,1.5 c 0.5,0.2 2,0.4 2,1 0.1,0.4 1.7,0.1 1.6,-0.3 0,-1.3 -3.8,-1.7 -4.7,-1.8 -2.7,-0.5 -5.5,-0.8 -8.2,-1 -4,-0.3 -7.7,-1.2 -11.5,-2 a 101,101 0 0 0 -7,-1 l -8,-1.4 -8.3,-1.6 c -2.3,-0.5 -4.4,-1.1 -6.8,-1.1 -0.4,0 -1.6,0.7 -0.6,0.7 z m 116.3,-95 c 0.6,0 1.6,-0.4 1.6,-1.1 l -1,0.5 h 0.2 l 0.5,0.2 c 0.4,0 0.7,0.3 1.1,0.4 a 17.8,17.8 0 0 1 4.6,3.2 c 0.4,0.4 1,0.8 1.2,1.4 0.1,0.5 1.7,0 1.5,-0.4 -0.2,-0.7 -0.8,-1.2 -1.2,-1.6 a 18.2,18.2 0 0 0 -5,-3.4 6,6 0 0 0 -2.4,-0.6 c -0.2,0 -1,0.1 -1,0.5 0,0.2 -0.2,0.3 0,0.1 h 0.5 c -0.3,0 -0.8,0 -1,0.3 -0.2,0.3 0.1,0.5 0.4,0.5 z M 92.9,50.6 v 3.7 c 0.1,1.2 0.1,2.5 0.4,3.6 a 21,21 0 0 0 3,6.6 c 1.3,2 2.7,4.1 3.8,6.3 1.2,2.2 2.1,4.5 2.7,7 A 17.4,17.4 0 0 1 98.1,95 c -0.9,0.7 -2,1.4 -3.2,1.8 -2.2,1 -4.7,1.5 -6.9,2.5 2.2,-1.2 4.6,-1.7 6.8,-2.8 a 11.6,11.6 0 0 0 5.3,-4.7 16.7,16.7 0 0 0 2,-13.8 C 101.5,75.6 100.6,73.3 99.5,71.1 98.4,69 97,67 95.8,64.8 A 21.3,21.3 0 0 1 92.9,58 17,17 0 0 1 92.8,54.3 v -3.7 z m 29.2,-17.7 0.4,-0.4 c 0,-0.2 -1,0.2 -0.2,0.2 0.2,0 1,-0.1 1,-0.5 v -0.7 l -1,0.6 c 4.3,0 8.4,-1.3 12.7,-1 1.7,0 3.4,0.4 5.1,0.5 1.7,0.2 3.6,0.6 5.1,1.5 0.4,0.3 1.9,-0.4 1.2,-0.8 -1.4,-0.9 -3.2,-1.3 -4.8,-1.5 l -5.2,-0.6 a 25,25 0 0 0 -6.3,0.2 c -2.4,0.4 -4.8,0.8 -7.2,0.8 -0.3,0 -1,0.1 -1,0.5 v 0.6 l 1,-0.6 c -1,0 -1.4,0.2 -2,0.9 -0.6,0.7 0.9,0.6 1.2,0.2 z m 22.6,5.4 v 1.2 h 0.5 l 0.5,-0.1 h 0.1 l 0.1,-0.3 v -1.2 l -0.1,-0.1 h -0.4 l -0.5,0.1 h -0.1 l -0.2,0.3 z m 1,1.6 v 0.7 l 0.2,0.1 0.2,0.1 h 0.4 l 0.3,-0.2 c 0.2,-0.1 0.2,-0.2 0.2,-0.3 v -0.7 l -0.1,-0.1 h -0.2 l -0.3,-0.1 h -0.1 a 1,1 0 0 0 -0.3,0.2 h -0.2 v 0.3 z m 42.3,64.6 h 1.5 l 0.2,-0.4 c 0,-0.1 0,-0.3 -0.2,-0.3 l -0.4,-0.1 h -1.3 l -0.2,0.2 -0.3,0.3 c 0,0.1 0,0.2 0.2,0.3 h 0.4 z m -1.7,2.5 c 0,0.7 1,0.7 1.4,0.7 a 1.4,1.4 0 0 0 0.7,-0.2 l 0.2,-0.1 v -0.3 h -0.7 0.1 a 1.8,1.8 0 0 1 -0.2,0 l -0.2,-0.1 h 0.1 l -0.1,-0.1 v -0.2 l -0.3,-0.2 h -0.5 l -0.4,0.3 c -0.1,0 -0.2,0.1 -0.1,0.2 z m 4.8,-1.2 v 0.7 l 0.2,0.1 h 0.9 v -0.2 l 0.2,-0.2 v -0.7 h -0.1 l -0.2,-0.1 h -0.3 a 1,1 0 0 0 -0.4,0.1 l -0.2,0.1 v 0.2 z m 2.2,-2.6 v 1.1 h 0.7 c 0.1,0 0.3,0 0.4,-0.2 l 0.2,-0.1 v -1.1 l -0.3,-0.1 h -0.4 l -0.5,0.2 z m -29.7,29.2 c 0,1.1 -0.6,2.1 -0.6,3.2 0,0.3 1.3,0.1 1.3,-0.3 0,-1.1 0.5,-2.1 0.5,-3.2 0,-0.3 -1.2,-0.1 -1.2,0.3 z m -2.7,1.6 c 0,1.1 -0.6,2.2 -0.6,3.3 0,0.2 1.3,0 1.3,-0.4 0,-1 0.5,-2.1 0.5,-3.2 0,-0.2 -1.2,0 -1.2,0.3 z m -2.2,1.5 v 1.6 l 0.1,0.4 h 0.5 l 0.5,-0.1 0.2,-0.4 v -1.5 c 0,-0.1 0,-0.2 -0.2,-0.3 a 0.7,0.7 0 0 0 -0.4,-0.1 c -0.2,0 -0.4,0 -0.5,0.2 l -0.2,0.3 z M 134,191 c -0.8,0.7 -0.7,2 -0.7,2.9 0,0.3 0.3,0.4 0.6,0.4 l 0.4,-0.2 0.3,-0.3 v -1.5 a 4,4 0 0 1 0.1,-0.5 c 0,0 0,-0.2 0,0 l 0.2,-0.4 0.1,-0.1 c 0.2,-0.2 0.1,-0.5 -0.1,-0.6 a 1,1 0 0 0 -1,0.3 z"
     id="path282" /><path
     fill="#010202"
     d="m 135.7,192.2 v -0.5 0.2 h -0.1 l -0.2,0.2 h -0.2 0.3 l -0.6,-0.4 v 1.6 c 0,0.2 0,0.3 0.2,0.3 l 0.4,0.1 0.5,-0.1 0.2,-0.4 v -1.6 l -0.1,-0.3 h -0.5 c -0.3,0 -0.8,0 -1,0.3 -0.2,0.2 -0.2,0.4 -0.2,0.7 l 0.1,0.3 h 0.5 l 0.4,-0.1 z M 22,125.9 v 2.7 l 0.2,0.1 h 0.5 c 0.2,0 0.6,-0.2 0.6,-0.4 v -2.8 L 23,125.3 h -0.4 c -0.2,0.1 -0.6,0.3 -0.6,0.5 z"
     id="path284" /><path
     fill="#010202"
     d="m 23.1,127.5 c 0,0.2 0.2,0.3 0.2,0.3 l 0.3,0.7 v 0.7 h 0.7 c 0.2,0 0.3,0 0.4,-0.2 0.1,0 0.2,0 0.2,-0.2 V 128 a 2,2 0 0 0 -0.6,-0.9 h -0.8 c -0.1,0.1 -0.6,0.3 -0.4,0.5 z M 68,195.1 v 1.3 c 0,0.5 0.2,1 0.5,1.4 H 69 c 0.1,0 0.7,-0.2 0.6,-0.4 -0.2,-0.4 -0.4,-0.8 -0.4,-1.3 l -0.1,-1.4 h -0.7 l -0.4,0.2 c 0,0 -0.2,0 -0.2,0.2 z m 1.5,1.5 0.1,0.6 0.5,0.7 H 71 l 0.3,-0.3 v -0.2 l -0.5,-0.6 0.1,0.1 v -0.4 0.1 -0.1 l -0.1,-0.2 h -0.1 c -0.1,-0.1 -0.3,-0.2 -0.4,-0.1 l -0.5,0.1 -0.1,0.1 z M 121,142.5 h -0.9 a 1,1 0 0 0 -0.8,0.4 l -0.2,0.2 c -0.1,0.1 -0.4,0.3 -0.4,0.5 v 0.6 l 0.2,-0.4 c -0.6,0.5 -1,1.2 -0.8,2 0.3,0.7 1.1,1.2 1.9,1.2 0.6,0 1.2,-0.1 1.8,-0.4 0.2,0 0.5,-0.3 0.3,-0.6 -0.2,-0.2 -0.6,-0.2 -0.9,0 H 121 c -0.1,0 0.1,0 0,0 h -0.1 l -0.1,0.1 c 0,0 -0.2,0 0,0 h -0.5 c -0.1,0 0,0 0,0 H 120 c -0.1,-0.1 0,0 0,0 l -0.2,-0.2 h -0.1 c 0,0 0,-0.1 0,0 v -0.1 a 1.6,1.6 0 0 1 -0.2,-0.3 c -0.1,0 0,0 0,0 l -0.1,-0.2 v -0.1 c 0,0 0,-0.1 0,0 v -0.3 c 0,0 0,-0.1 0,0 v -0.2 c 0.1,-0.1 0,0 0,0 l 0.2,-0.2 0.3,-0.3 v -0.7 0.2 l 0.5,-0.5 -0.6,0.3 h 1.1 c 0.3,0 0.7,-0.2 0.7,-0.5 0,-0.3 -0.3,-0.4 -0.6,-0.4 z M 18,124.8 h -0.4 c -0.4,0 -0.7,0.1 -1,0.4 l -0.5,0.6 v 0.6 -0.2 l -0.5,1 v 1.3 c 0,0.2 0.1,0.3 0.3,0.3 h 0.5 L 16,128.5 v 0.5 c 0,0.3 0.4,0.5 0.6,0.6 0.6,0.3 1.3,0.3 2,0.3 0.3,0 0.7,0 0.8,-0.4 0.2,-0.2 -0.1,-0.3 -0.3,-0.3 H 18 l -0.4,-0.2 -0.3,-0.3 v 0.2 -0.5 c 0,-0.2 -0.2,-0.3 -0.4,-0.3 h -0.5 l 0.4,0.3 c 0,-0.6 0,-1.3 0.2,-1.8 l 0.3,-0.3 v -0.5 l 0.1,-0.1 0.1,-0.2 0.2,-0.2 -0.7,0.3 h 0.5 c 0.3,0 0.7,-0.1 0.9,-0.4 0.1,-0.2 -0.2,-0.4 -0.4,-0.4 z m 116.2,17.5 a 2,2 0 0 0 1,-0.3 c 0.2,-0.2 0.4,-0.4 0.5,-0.8 l -0.8,0.5 c 0,0 0.2,0 0,0 h 0.3 c 0,0 -0.1,0 0,0 h 0.2 c 0.3,0 0.4,0.1 0.6,0.3 0.3,0.3 0.5,0.8 0.5,1.2 a 3.6,3.6 0 0 1 -0.6,2.2 c 0,-0.1 0,0 0,0 v 0.1 l -0.3,0.2 c 0,0.1 0.1,0 0,0 -0.2,0.2 0,0 0,0 0,0.1 -0.2,0.1 0,0 0,0 -0.1,0.1 0.1,0 -0.1,0 0.2,0 0,0 h 0.2 c -0.1,0 0.1,0 0,0 -0.2,0 0,0 0,0 h -0.2 v -0.2 c -0.3,-0.2 -1.5,0.2 -1.3,0.5 0.5,0.5 1.3,0.3 1.9,0 0.5,-0.2 0.8,-0.7 1,-1.2 0.5,-0.9 0.7,-2.3 0,-3.1 -0.5,-0.7 -1.4,-0.7 -2.2,-0.6 -0.2,0 -0.7,0.2 -0.7,0.5 v 0.2 h -0.1 0.1 l 0.2,-0.1 c -0.1,0 0.1,0 0,0 h 0.1 c -0.2,0 -0.6,0 -0.8,0.3 -0.2,0.2 0.2,0.3 0.3,0.3 z M 171,125.5 h 1 -0.3 c 0.4,0.6 0.7,1.3 0.4,2 l -0.2,0.4 -0.1,0.1 c 0,0.1 0,0 0,0 l -0.3,0.3 h -0.1 l -0.2,0.1 c -0.1,0.1 0.1,0 0,0 l -0.3,0.2 c 0.1,0 0,0 0,0 h -0.3 l 0.7,0.2 -0.3,-0.6 c -0.1,-0.1 -0.2,-0.2 -0.2,-0.5 l -0.3,-0.1 a 1,1 0 0 0 -0.4,0 c -0.3,0 -0.6,0.2 -0.6,0.5 l 0.3,0.6 c 0.2,0.1 0.2,0.2 0.2,0.5 l 0.3,0.1 h 0.5 c 1,-0.2 2,-0.7 2.4,-1.7 0.4,-0.7 0.3,-1.6 -0.1,-2.3 -0.1,-0.2 -0.2,-0.4 -0.4,-0.4 h -1.2 c -0.3,0 -0.7,0 -0.9,0.3 -0.1,0.2 0.2,0.4 0.4,0.4 z m 22.4,-67.2 c -0.3,0 -0.7,0 -1,0.3 -0.2,0.2 -0.2,0.5 -0.2,0.7 l 0.7,-0.5 h -0.5 a 1,1 0 0 0 -0.5,0.2 l -0.2,0.3 v 0.6 l 0.2,-0.3 c -0.4,0.2 -0.7,0.6 -0.8,1 0,0.3 0,0.7 0.2,1 0.3,0.7 1.1,1 1.9,0.8 a 2,2 0 0 0 1.3,-0.9 V 61.2 L 194.1,61 c -0.3,0 -0.6,0.1 -0.8,0.4 0.1,-0.1 0,0 0,0 l -0.1,0.1 c -0.1,0.1 0,0 0,0 -0.1,0.1 -0.2,0.1 0,0 h -0.1 c -0.1,0.2 0.1,0 0,0 0,0.1 -0.1,0 0,0 -0.1,0.1 0.1,0.1 0,0 H 193 c 0.1,0 0,0 0,0 h -0.1 c 0,0 0.1,0 0,0 h -0.2 v -0.1 l -0.1,-0.2 h -0.1 v -0.1 a 1.2,1.2 0 0 1 -0.1,-0.4 c 0,0 0,0.1 0,0 v -0.2 c 0,-0.1 0,0 0,0 a 9.8,9.8 0 0 0 0,-0.2 l 0.2,-0.1 c 0.1,-0.1 0.3,-0.2 0.3,-0.4 v -0.6 l -0.7,0.5 h 0.6 c 0.1,0 0.3,0 0.4,-0.2 0.1,0 0.3,-0.1 0.3,-0.3 v -0.3 c 0,-0.1 0,0 0,0 l -0.2,0.2 c 0,0 -0.1,0 0,0 H 193 c 0,0.1 0,0 0,0 h 0.8 l 0.2,-0.4 c 0,-0.3 -0.3,-0.4 -0.6,-0.4 z m -10.6,51.4 c -0.4,0 -0.8,0 -1.1,0.2 -0.3,0.2 -0.3,0.5 -0.3,0.8 l 0.9,-0.5 h -0.6 l -0.6,0.1 c 0,0 -0.3,0.2 -0.3,0.4 v 3.2 c 0,0.2 0.2,0.4 0.5,0.4 h 1 c 0.2,0 0.4,0 0.6,-0.2 0.1,0 0.3,-0.1 0.3,-0.3 v -0.3 c 0,-0.1 0,-0.1 0,0 l -0.4,0.2 c 0.1,0 -0.2,0 0,0 0.4,0 0.8,0 1,-0.3 0,-0.3 -0.2,-0.5 -0.5,-0.5 -0.3,0 -0.7,0 -1,0.2 -0.3,0.2 -0.4,0.5 -0.4,0.8 l 0.9,-0.5 h -1 c 0,0.2 0.2,0.3 0.3,0.4 v -3.2 l -0.8,0.4 h 1.1 c 0,-0.2 0.3,-0.3 0.3,-0.4 v -0.3 c 0,-0.1 0,-0.2 0,0 l -0.4,0.2 c 0,0 -0.2,0 0,0 0.3,0 0.7,0 0.9,-0.4 0.1,-0.2 -0.1,-0.4 -0.4,-0.4 z m -13.1,72.8 v -0.2 c 0,-0.1 0,0 0,0 l 0.1,-0.2 c 0,0 0,0.1 0,0 0,0 -0.1,0.1 0,0.1 h -0.1 c -0.1,0 0,0 0,0 0,0 -0.2,0.1 -0.1,0 l -0.2,0.1 c 0,0 -0.2,0 0,0 h -0.1 c 0,0 -0.1,0 0,0 h 0.1 c 0,0.1 0,0 0,0 v 0.1 a 2,2 0 0 1 0.5,0.5 c 0,0.1 0,0 0,0 l 0.1,0.3 0.2,0.6 v 0.3 a 2,2 0 0 1 0,0.5 l -0.1,0.2 c 0,-0.1 0,-0.1 0,0 L 170,185 c -0.1,0 0,0 0,0 l -0.2,0.1 -0.2,0.1 c 0,0 0.1,0 0,0 h -0.1 c -0.1,0.1 0,0 0,0 l -0.2,0.1 c -0.2,0 0,0 0,0 h -0.2 c -0.2,0.1 -0.6,0.2 -0.7,0.5 0,0.3 0.4,0.3 0.6,0.3 0.8,-0.1 1.6,-0.4 2.1,-1 0.3,-0.5 0.4,-1 0.4,-1.5 0,-0.4 -0.2,-0.9 -0.5,-1.3 -0.2,-0.3 -0.6,-0.6 -1,-0.7 -0.4,-0.1 -0.8,0 -1.1,0.3 -0.3,0.1 -0.4,0.4 -0.5,0.7 0,0.2 0.4,0.3 0.6,0.2 0.2,0 0.6,-0.1 0.7,-0.4 z m -38.4,25.7 c 0.2,0 -0.1,0 0,0 h 0.1 c 0.1,0 0,0 0,0 h 0.1 l 0.2,0.1 0.3,0.4 c 0,0 0,-0.1 0,0 a 2.5,2.5 0 0 1 0.1,0.4 l 0.1,0.5 a 2.7,2.7 0 0 1 -0.1,0.8 c 0,0 0,0.1 0,0 l -0.1,0.2 h -0.1 v 0.1 l -0.1,0.1 c -0.2,0 0.1,0 0,0 -0.2,0 0.2,0 0,0 -0.2,0 0.1,0 0,0 -0.1,0 0.2,0 0,0 h -0.2 l 0.3,0.2 v -0.5 c 0,-0.3 -0.4,-0.3 -0.6,-0.3 -0.2,0 -0.3,0 -0.5,0.2 0,0 -0.2,0.1 -0.2,0.3 v 0.5 c 0,0.2 0,0.2 0.2,0.3 0.6,0.1 1.3,0 1.8,-0.3 0.4,-0.3 0.7,-0.7 0.8,-1.1 0.2,-0.7 0.1,-1.7 -0.5,-2.2 -0.5,-0.5 -1.1,-0.5 -1.8,-0.4 -0.1,0 -0.6,0.3 -0.5,0.5 0,0.3 0.5,0.2 0.7,0.2 z m -10.8,0.7 v -0.6 c 0,-0.2 -0.2,-0.3 -0.4,-0.3 h -1 c -0.3,0 -0.4,0 -0.6,0.2 -0.1,0 -0.3,0.1 -0.3,0.3 v 0.5 l 0.8,-0.4 c -0.4,0 -0.8,0.1 -1.1,0.4 l -0.3,0.2 c 0,0 0.1,0 0,0 h 0.1 c 0,0 0.2,-0.1 0,0 0.3,-0.1 0.2,0 0.1,0 a 1,1 0 0 0 -0.5,0 l -0.2,0.4 v 2 l 0.1,0.4 0.3,0.2 c 0.2,0.2 0.5,0.2 0.7,0.3 0.6,0 1.2,-0.3 1.7,-0.7 0.2,-0.2 0,-0.5 -0.2,-0.5 a 1,1 0 0 0 -1,0.3 c 0,0 -0.1,0.1 0,0 l -0.1,0.1 h 0.1 c 0,0 0.1,0 0,0 0,0 0.1,0 0,0 h -0.1 l -0.3,-0.3 v 0.2 -2.2 l -0.7,0.5 c 0.4,0 0.8,-0.2 1,-0.4 l 0.3,-0.2 h -0.1 c -0.1,0 -0.1,0 0,0 h -0.2 0.5 l 0.3,-0.4 v -0.6 l -0.8,0.5 h 1 l -0.4,-0.3 v 0.5 c 0,0.3 0.4,0.4 0.6,0.3 l 0.5,-0.1 z M 22,186.3 l -0.5,0.5 v 0.3 c 0,0.3 1.1,-0.3 0.8,-0.3 a 2,2 0 0 0 -1.3,0.6 l -0.1,0.2 -0.2,0.6 a 4,4 0 0 0 -0.3,1.5 h 0.2 l 0.4,0.4 0.7,0.2 h -0.2 v 0.5 H 24 c 0.3,0 0.6,0 0.8,-0.2 0.2,-0.3 -0.1,-0.3 -0.3,-0.3 h -2.1 l 0.3,0.1 v -0.5 l -0.2,-0.1 c -0.2,0 -0.3,-0.2 -0.4,-0.3 a 1,1 0 0 0 -0.7,-0.3 l 0.2,0.1 0.3,-1.2 c 0.1,-0.3 0.3,-0.6 0.3,-1 v 0.2 c 0,0 0,-0.1 0,0 h -0.5 0.7 c 0,-0.1 0.3,-0.2 0.3,-0.4 v -0.3 0.2 l 0.5,-0.6 C 23.4,186 23,186 22.9,186 c -0.3,0 -0.6,0 -0.9,0.3 z m 40.2,-20.6 c 0,-0.2 0,-0.4 -0.2,-0.6 L 61.6,165 61,165.1 c -0.4,0.2 -0.7,0.6 -1,1 -0.2,0 -0.3,0.3 -0.4,0.4 l -0.2,0.2 c 0,0 -0.2,0.2 -0.1,0.3 l 0.2,0.2 H 60 l 0.4,-0.3 0.8,-0.9 v 0.1 l 0.3,-0.4 c 0,0 0.2,-0.1 0,0 h 0.1 c 0,-0.1 -0.2,0 0,0 h -0.5 c 0,0 -0.1,0 0,0 h -0.2 v 0.2 -0.1 l 0.1,0.2 0.5,0.1 c 0.1,0 0.3,0 0.4,-0.2 H 62 Z m -1.7,-1.5 c -2,0 -3.1,1.7 -4.4,3 -0.2,0.2 0,0.5 0.2,0.6 0.3,0 0.7,0 0.9,-0.3 l 1.6,-1.7 h 0.1 v -0.1 a 4.6,4.6 0 0 1 0.5,-0.3 l 0.1,-0.1 c -0.1,0 0,0 0,0 l 0.3,-0.1 c 0.1,0 -0.1,0 0,0 h 0.1 l 0.2,-0.1 c 0,0 -0.2,0 0,0 h 0.3 c 0.2,0 0.7,-0.2 0.7,-0.5 0,-0.3 -0.4,-0.4 -0.6,-0.4 z m -16.2,0.9 v -0.5 c 0,-0.7 -1,-0.3 -1.2,0.1 -0.7,2 -1.6,3.9 -1.7,6 0,0.3 0.4,0.3 0.6,0.3 0.2,0 0.7,-0.2 0.7,-0.5 0,-2 1,-4 1.6,-6 l -1.2,0.2 v 0.6 c 0,0.3 0.3,0.3 0.5,0.3 0.2,0 0.7,-0.2 0.7,-0.5 z"
     id="path286" /><path
     fill="#010202"
     d="m 43,166.3 c 0,1 -0.5,1.8 -0.5,2.7 0,0.3 0.3,0.4 0.6,0.4 l 0.5,-0.2 0.2,-0.3 c 0,-1 0.5,-1.8 0.5,-2.7 0,-0.3 -0.3,-0.3 -0.5,-0.3 a 1,1 0 0 0 -0.5,0.2 l -0.2,0.2 z"
     id="path288" /><path
     fill="#010202"
     d="m 43,165.2 c 0,0.5 0,1 -0.2,1.5 l -0.3,1.8 c 0,0.3 0.3,0.4 0.6,0.4 0.2,0 0.7,-0.2 0.7,-0.5 0,-0.7 0.1,-1.3 0.3,-1.9 l 0.2,-1.4 c 0,-0.3 -0.3,-0.4 -0.5,-0.3 -0.3,0 -0.7,0.1 -0.7,0.4 z m 23.8,-22.5 c 0,1 0,2.1 -0.5,3.1 l 0.1,0.2 h 0.4 c 0.3,0 0.6,-0.1 0.8,-0.4 0.5,-1 0.5,-2.1 0.5,-3.3 l -0.2,-0.1 h -0.5 c -0.2,0 -0.6,0.2 -0.6,0.5 z m 0.6,4.8 v 0.4 -0.1 l -0.1,0.3 -0.4,0.4 v 0.2 h 0.3 l 0.5,-0.1 0.4,-0.2 0.5,-0.6 v -0.6 l -0.2,-0.1 H 68 l -0.5,0.2 z m 0.6,2.1 c -0.4,0 -0.9,0.3 -1,0.7 l -0.2,0.5 v 0.6 l 0.2,0.1 c 0.1,0 0.3,0.1 0.4,0 h 0.5 l 0.1,-0.2 0.1,-0.2 v -0.7 l 0.1,-0.1 v 0.1 h -0.1 l -0.2,0.1 H 68 a 10.5,10.5 0 0 0 0.2,0 l 0.2,-0.2 0.3,-0.3 c 0,-0.1 0,-0.2 -0.2,-0.3 h -0.4 z"
     id="path290" /><path
     fill="none"
     stroke="#010202"
     stroke-width="0.8"
     stroke-miterlimit="10"
     d="m 99.9,151.7 -1.1,45.9 M 74,147.4 75,190 M 53.4,148.4 v 4.4 m -17.8,-14.1 1.1,13 m 110.2,-4.3 -1.1,42.6 m 16.8,-45.3 -2.7,35.6 M 69.6,104.1 v 10.8 M 99.9,57.1 175,63.6 m -70.8,9.2 69.2,6.5 m -68.9,14.1 61.9,8"
     id="path292" /><path
     fill="#010202"
     d="m 197.4,56.6 c 0,2.2 -1,4.1 -1.4,6.2 -0.5,2.2 -1.2,4.3 -1.9,6.5 a 72,72 0 0 0 -2.1,13 c -0.3,2.3 -0.4,4.5 -0.8,6.7 l -1.3,6.6 c -1,4.4 -2,8.6 -3.3,12.8 -1.1,3.7 -2.5,7.7 -2.1,11.6 0,0.7 1.6,0.4 1.6,-0.4 -0.4,-3.6 1,-7.4 2,-10.8 a 138.9,138.9 0 0 0 5.3,-25.2 c 0.4,-4.3 1,-8.7 2,-13 0.5,-2.3 1.5,-4.6 2,-7 l 1,-3.8 c 0.4,-1 0.6,-2.1 0.6,-3.3 0,-0.8 -1.5,-0.6 -1.6,0.1 z"
     id="path294" /><path
     fill="none"
     stroke="#010202"
     stroke-width="0.8"
     stroke-miterlimit="10"
     d="m 196.1,80.9 11.3,3.8 m -14,10.2 11.9,3.8 M 86.4,68.5 99.9,74.4 m -18.4,11.4 15.7,5.4"
     id="path296" /><path
     fill="#ffffff"
     d="M 152.5,78.1 189.7,27.5 144.8,71.7 Z M 172.8,94 208.9,77.4 170.2,87.1 Z M 124.8,60.9 135.2,0 116.5,58.9 Z M 99.4,54.8 87.5,2.7 92.1,55.9 Z M 69,55.9 43.8,14.1 63,59 Z M 45.8,65.5 14,35.9 41.4,69.6 Z M 27.5,78.5 0,68.8 25.9,82.3 Z"
     id="path298" /><g
     id="g314"
     transform="translate(-42,-32.5)"><defs
       id="defs301"><path
         id="c"
         d="m 88.9,124.1 13.6,8.4 7.5,-0.8 9.7,1.6 8,3.1 -6.7,13.3 4.7,-2.9 h 6.8 l 2.3,-6.2 8.4,3.9 -4,11.2 4.2,3.7 h 4.2 l 26.3,0.2 -4.1,-11 3,-1.5 -2.3,-3.7 -4.4,1.3 3.1,-9.6 21.4,-7.6 c 1.3,1.8 -0.2,5.3 0.8,8.1 0.3,1 -11,3.2 -10.7,4.2 0.5,2 7.9,0.6 9.1,1.6 1.7,1.2 1,6 1.4,7.8 l -7.9,3.4 2.1,4.4 5.8,-1.3 1,1 -21.2,9.3 -103.8,-14.6 -7.5,-3.3 14.6,-5 3.1,-13.7 L 89,124 Z" /></defs><clipPath
       id="d"><use
         xlink:href="#c"
         overflow="visible"
         id="use303" /></clipPath><g
       clip-path="url(#d)"
       id="g312"><path
         fill="#ffdb28"
         stroke="#010202"
         stroke-width="0.9"
         stroke-miterlimit="10"
         d="m 190.4,128.5 0.2,0.2 v 1.4 c 0,2 0,3.6 0.4,5 l -0.3,0.3 -4.7,1.3 -6.8,2.4 v 0.2 l 1.4,4.4 v 0.1 c 0.1,0.6 0.3,0.8 0.4,0.8 l 1.9,-0.8 0.9,-0.3 4.5,-1.4 c 0.7,-0.2 1,-0.1 1.1,0 v 1.7 c 0,1 0.2,2.7 0.6,5 l 0.1,0.5 -0.1,0.6 h -1 l -3.4,1 c -1.7,0.4 -2.6,0.8 -2.7,1.1 l 1,3.7 0.7,2.3 c 0,0.1 0,0.2 0.2,0.1 l 3.6,-1.3 h 0.1 l 9.5,-2.7 0.3,0.3 0.8,4.1 a 22,22 0 0 0 1.3,3.8 l -0.2,0.2 -0.6,0.2 -1,0.2 h -0.1 a 34,34 0 0 0 -5.6,1.2 l -2,0.5 c -2.8,0.8 -5,1.5 -6.8,2.2 h -0.2 l -4,1.4 -1.3,0.5 -0.7,0.2 -0.3,-0.1 c 0,-1.2 -0.3,-3 -0.8,-5.4 l -1.9,-8.8 h -0.3 l -1.5,0.9 c -0.3,0 -0.4,-0.1 -0.5,-0.2 l -0.2,-1 c -0.5,-2 -1,-3.3 -1.3,-4 l -0.2,-0.4 v -0.8 l 0.4,-0.1 c 1.2,-0.5 1.7,-0.9 1.7,-1 l -2,-5 -0.1,-0.1 -0.7,0.2 -1.8,1 -0.3,-0.4 -0.7,-2.4 -1.4,-3.9 c 0,-0.4 1,-0.8 3,-1.4 0.8,-0.5 1.8,-1 3,-1.3 l 4.2,-1.6 1.6,-0.6 1.2,-0.4 c 2.8,-1 6.6,-2.2 11.4,-3.5 z m -88.1,9.3 3.2,2.4 3.5,3.7 0.7,0.8 v 0.1 l -2.8,2.5 -1.6,1.5 -1,1.2 -0.2,0.2 h -0.3 l -1.4,-1.7 a 35.2,35.2 0 0 0 -5.3,-5.7 l -2,-1.5 c -2.6,-1.6 -4,-2.4 -4.1,-2.2 -0.5,-0.3 -1.2,-0.5 -2.2,-0.7 -0.7,0 -1.2,0.2 -1.5,0.6 l -0.1,0.2 c -0.4,0.5 -0.4,1.2 0,2 0,0 0.1,0.3 0.4,0.5 0,0.2 0.3,0.8 1.3,1.8 a 13,13 0 0 0 2,2 c 0.1,0.2 0.7,0.9 1.8,1.8 0,0.2 0.5,0.7 1.4,1.5 0,0.2 0.5,0.6 1.2,1.3 l 1.5,2 c 0,0.2 0.2,0.5 0.5,0.7 -0.1,0.2 0,0.4 0.4,0.8 0,0 0,0.3 0.3,0.7 0.8,1.8 1,3.4 0.4,5 0,0.3 -0.3,1 -1,2.2 -0.7,1 -1.7,1.7 -3,2.4 -2.6,0.8 -5,0.8 -7,0.3 -0.5,0 -0.8,-0.1 -1.1,-0.3 -0.2,0 -0.5,0 -1,-0.3 a 7,7 0 0 1 -2,-0.7 16,16 0 0 1 -2.3,-1 c -0.2,-0.1 -1,-0.5 -2.1,-1.3 l -1.2,-0.6 -0.9,-0.6 -4,-3.4 -1.4,-1.6 c -0.2,-0.1 -0.7,-0.6 -1.2,-1.3 -0.4,-0.3 -0.5,-0.4 -0.4,-0.6 l 1.2,-1 a 45.2,45.2 0 0 1 5.4,-3.4 l 0.3,0.2 h 0.1 a 19,19 0 0 0 4.5,4.7 l 0.3,0.3 c 2,1.4 3.3,2.3 4.2,2.6 0.6,0.4 1.5,0.7 2.9,1 0.3,0 0.5,-0.1 0.8,-0.3 0.5,-0.7 -0.4,-2.1 -2.7,-4.3 -0.1,-0.2 -0.7,-0.8 -1.8,-1.7 0.1,-0.1 -0.4,-0.6 -1.4,-1.4 0,-0.2 -0.3,-0.7 -1.2,-1.4 0.1,-0.1 -0.2,-0.5 -0.8,-1.1 l -0.6,-1 -0.6,-0.7 c 0.1,-0.1 0,-0.3 -0.3,-0.7 l -0.4,-0.8 -0.5,-1 a 7.2,7.2 0 0 1 -0.3,-3 c 0,-0.7 0,-1.4 0.3,-2.2 l 1.5,-2.7 1.6,-1.5 c 0,0 0.4,-0.1 0.8,-0.5 l 2.7,-1 a 13.4,13.4 0 0 1 6,0.5 c 0.3,0 0.7,0 1,0.4 0.1,-0.1 0.6,0 1.4,0.5 0.1,-0.1 0.6,0.1 1.6,0.7 l 2,1 c 0,0 0.3,0 0.9,0.4 z"
         id="path306" /><path
         fill="#ffdb28"
         stroke="#010202"
         stroke-width="0.9"
         stroke-miterlimit="10"
         d="m 118.7,133.7 c 0.7,0 1.1,0.3 1,0.6 l 0.2,2.2 v 0.2 l -0.1,1.5 v 0.2 c -0.3,2.8 -0.7,4.4 -1.1,5 -0.8,-0.3 -1.7,-0.4 -3,-0.5 a 9,9 0 0 0 -3.4,0.1 10,10 0 0 0 -6.8,4.8 c -0.2,0 -0.2,0.2 -0.3,0.6 -0.2,0 -0.6,0.8 -1,2.6 l -0.2,1.7 c 0.1,1.4 0.3,2.3 0.5,2.6 a 7,7 0 0 0 3,3.9 c 0.6,0.4 1.4,0.8 2.5,1.1 0,0.1 0.3,0.2 1,0.2 l 1.3,0.2 c 1.9,0 3.1,-0.2 3.7,-0.4 l 1.7,-0.7 c 0.9,-0.4 1.4,-1.2 1.7,-1.4 l 1,-0.7 c 0.2,0 -0.4,2 -0.4,3.8 0.2,2.2 0.3,4.4 0.2,6.3 -0.7,0.4 -1.4,0.7 -2.1,0.8 -0.2,0.2 -0.5,0.3 -1.1,0.4 0,0.1 -0.4,0.2 -1.1,0.2 l -1.8,0.3 a 8,8 0 0 1 -2.4,0.1 l -1.4,0.1 h -1.4 a 17.6,17.6 0 0 1 -8.2,-3 l -1.4,-1.1 -1,-1.3 c -1.5,-2.1 -2.2,-3.4 -2.2,-4 -0.4,-0.5 -0.7,-1.8 -1,-3.9 l -0.2,-3 a 37,37 0 0 1 1.5,-6 c 0.1,0 0.3,-0.4 0.5,-1.2 l 1,-1.7 0.5,-0.9 a 22.4,22.4 0 0 1 17.3,-9.9 z"
         id="path308" /><path
         fill="#ffdb28"
         stroke="#010202"
         stroke-width="0.9"
         stroke-miterlimit="10"
         d="m 126,137 0.1,0.4 -5.8,12.3 v 0.1 l 1,0.4 5,1.8 c 2.4,1 3.6,1.4 3.7,1.2 l 1.1,-2.4 3.8,-7.8 0.5,-1.1 c 0.1,-0.3 0.3,-0.4 0.5,-0.4 l 4.2,2 c 1.4,0.8 2.3,1.4 2.7,1.8 l -3.2,7.2 -0.7,1.7 c -3.3,7.8 -5.1,12.4 -5.5,13.8 h -0.1 v 0.1 l -3,7.7 -0.2,0.6 -0.2,0.5 c 0,0.2 -0.7,0.1 -1.9,-0.2 -0.4,-0.3 -1.5,-0.6 -3.1,-1 l -2.8,-0.6 a 1,1 0 0 1 -0.6,0 c -0.4,-0.3 -0.4,-0.7 -0.2,-1.3 h 0.1 l 3.6,-9 1.8,-3.9 v -0.5 l -0.7,-0.2 -3,-1.3 c -1.4,-0.7 -2.9,-1.2 -4.3,-1.6 l -0.2,-0.1 -0.6,-0.3 -0.5,-0.2 -0.2,0.1 -3.4,7.4 -2.2,5 h -0.3 l -0.7,-0.4 h -0.2 c -1.4,-1 -3.4,-2 -6,-3.2 l -0.7,-0.3 V 165 l 0.5,-1.2 3,-5.1 -0.1,-0.1 c 0.7,-1 1.3,-2.2 1.8,-3.4 l 0.5,-1 v -0.3 c -1.3,-0.6 -2.1,-0.8 -2.5,-0.9 h -0.1 v -0.5 l 0.3,-0.6 1.9,-5.2 c 0.2,-0.4 1,-0.3 2.5,0.4 l 1,0.3 v -0.1 l 0.1,-0.3 5.1,-12 0.1,-0.3 c 0.2,-0.5 1.2,-0.4 3,0.4 0,-0.2 1.8,0.5 5.2,2 z"
         id="path310" /></g></g><g
     id="g318"
     transform="translate(-42,-32.5)"><path
       fill="#ffdb28"
       stroke="#010202"
       stroke-width="0.9"
       stroke-miterlimit="10"
       d="m 153.3,163.5 c 0.3,-0.5 0,-0.2 0.3,-1.3 a 63.6,63.6 0 0 0 3,-8 c 1.7,-4.8 3.3,-10.2 4.8,-16.3 l 0.4,-1.7 c 0,-0.4 0.6,-0.5 1.7,-0.3 l 1.7,-0.1 h 3 l 1.1,0.1 h 0.2 c 0.3,0.1 0.4,0.2 0.4,0.4 l -2.6,10.5 -0.2,0.8 v 0.1 a 70.6,70.6 0 0 0 -2.6,8.2 c -0.4,0.6 -0.7,1.4 -1,2.3 l 0.3,0.2 c 0.8,0 2.6,0 5.6,0.4 l 4.3,0.6 h 0.3 v 0.3 l -1.8,2.5 -0.6,0.9 -0.6,1 -1,1.9"
       id="path316" /></g><g
     id="g322"
     transform="translate(-42,-32.5)"><path
       fill="#ffdb28"
       stroke="#010202"
       stroke-width="0.9"
       stroke-miterlimit="10"
       d="m 130.8,160.5 c -0.4,-0.3 -0.7,-1 -1,-1.3 0,-0.2 -0.5,-0.7 -1.4,-1.5 0.1,-0.1 -0.2,-0.5 -0.8,-1 0,-0.2 -0.3,-0.6 -0.8,-1.2 l -0.7,-1 -1,-1.6 -1.7,-2.7 c -0.4,-0.7 -0.6,-1.1 -0.5,-1.3 l 0.2,-0.3 a 16,16 0 0 0 2.2,-1.5 c 0.1,0.1 0.5,-0.2 1,-0.8 0.1,0 0.6,-0.3 1.5,-1.1 l 0.6,-0.3 h 0.1 l 1.8,3 a 55.2,55.2 0 0 0 6.8,8.6 h 0.1 l 0.6,0.6 c 2,1.5 3.7,2.4 5.2,2.7 1.1,0.1 2.1,0 2.9,-0.5 0.4,-0.1 1,-0.7 1.9,-1.7 1.1,-1.4 1,-3.5 -0.3,-6.1 0,0 -0.1,-0.3 -0.5,-0.6 0,-0.1 -0.1,-0.5 -0.6,-1 0,-0.2 -0.4,-0.7 -1,-1.4 l -1.3,-1.6 -1.8,-2 -1.3,-1.1 h -0.1 c -0.7,-0.8 -1.6,-1.7 -3,-2.8 l -1.3,-1 -2.6,-1.8 c -0.3,-0.3 -0.2,-0.8 0.3,-1.6 0,0 0,-0.4 0.4,-1 0,-0.1 0.1,-0.5 0.6,-1.3 l 0.8,-1.6 c 0,0 0.1,-0.5 0.7,-1.2 0.1,-0.2 1.5,0.5 4.2,2.3 h 0.1 l 2.6,2 c 2.1,1.7 3.8,3.2 5,4.6 l 2.7,3.1 c 0,0.2 0.3,0.6 0.9,1.2 0,0.1 0.1,0.4 0.6,1 0,0 0,0.3 0.4,0.7 l 1,2.2 c 0.7,1.3 1,3 1.3,4.9 0.1,1.8 0,3 -0.1,3.6 -0.2,1.2 -0.5,2 -0.8,2.3 0.2,0.1 0,0.7 -0.7,1.6 0.1,0.1 -0.2,0.6 -0.9,1.4 -0.3,0.4 -0.6,0.7 -1.1,1"
       id="path320" /></g><g
     id="g332"
     transform="translate(-42,-32.5)"><path
       fill="#ffdb28"
       stroke="#010202"
       stroke-width="1.4"
       stroke-miterlimit="10"
       d="m 115,100.7 2.2,-0.6 c 0,0 0.6,0 1.4,-0.4 0.1,0.2 0.5,0.1 1.2,-0.2 0.1,0.2 0.5,0.1 1.2,0 l 1,-0.1 0.4,0.3 c 0.2,0.3 0.3,0.9 0.4,1.8 l 0.3,1.5 0.5,2.7 c 0.3,1.1 0.5,2.4 0.6,3.8 l 0.5,2.8 0.7,4.1 0.2,1.4 c 0,1 0.2,1.8 0.3,2.3 l 0.2,1.3 0.8,7 0.3,3.4 c 0.2,0.8 0.2,1.2 0,1.3 l -4.6,2.8 c -0.3,0.4 -1,0.8 -1.8,1.3 0,0 -0.3,0.5 -1.3,1.1 0,0.2 0,0.3 -0.3,0.4 l -0.3,-0.1 -0.1,-0.3 -0.7,-1.7 H 118 c -0.3,-1 -1,-2.5 -2,-4.7 -3.3,-6.2 -5,-9.3 -5.2,-9.2 l -0.3,-0.6 -0.3,-0.3 0.3,2.3 0.2,1 c -0.2,0.1 0,0.5 0.2,1.2 -0.1,0.1 0,0.6 0.1,1.4 0,0 0,0.5 0.4,1.4 -0.2,0 0,0.6 0.3,1.6 -0.1,0 0,0.6 0.3,1.6 0,0 0,0.6 0.5,1.8 -0.1,0 0,0.7 0.5,2 0,0 0.1,0.7 0.7,2.1 0,0.3 0.2,1.1 0.8,2.6 l -0.4,0.4 a 22.7,22.7 0 0 0 -7,3.5 c -0.4,0.1 -1,-0.4 -1.7,-1.6 -0.1,0 -0.5,-0.3 -1,-1.2 -0.1,0 -0.5,-0.3 -1,-1.2 -0.2,0 -0.5,-0.5 -1.2,-1.5 -0.1,0 -0.5,-0.4 -1.2,-1.5 l -1,-1.4 c -0.2,0 -0.7,-0.7 -1.4,-1.9 -0.2,0 -0.7,-0.8 -1.4,-2 -0.1,0 -0.6,-0.5 -1.3,-1.7 -0.1,0 -0.6,-0.7 -1.3,-2 -0.2,0 -0.8,-1 -2,-2.9 l -3.2,-5.3 -0.7,-1.4 -1.2,-2.3 c -0.2,-0.3 0.3,-0.8 1.3,-1.5 l 1.2,-1 c 0,0 0.5,-0.5 1.5,-1.1 0,-0.1 0.5,-0.5 1.6,-1.2 -0.1,-0.1 0.2,-0.4 1,-0.8 l 0.4,-0.1 c 0.1,0 0.2,0 0.4,0.3 l 4,7.3 c 0.8,1 1.6,2.5 2.6,4.4 0.3,0.3 1.1,1.8 2.6,4.4 l 1.8,3 h 0.1 a 9,9 0 0 0 -0.6,-2.5 4,4 0 0 0 -0.5,-1.9 c 0,0 0,-0.7 -0.4,-1.8 0,-0.2 0,-0.7 -0.3,-1.5 l -0.7,-3.9 -0.3,-1.6 -0.2,-1 c 0.1,-0.2 0,-0.5 -0.1,-1 l -0.1,-1.4 -0.2,-3 c 0.5,-0.6 1.4,-1.4 2.8,-2.5 l 1.1,-1 1.9,-1.1 c 0,-0.1 0,-0.2 0.2,-0.3 h 0.1 c 0.1,-0.1 0.5,0.4 1.2,1.5 0.1,0 0.8,1.1 2.1,3.5 0.4,0.4 0.8,1 1.2,1.9 l 0.4,0.8 3.7,6.6 0.2,0.5 0.7,1.4 0.6,1.4 h 0.3 l -0.5,-2.9 -0.9,-5.2 -0.2,-1.3 -0.2,-1.3 c -0.2,-0.3 -0.2,-0.7 -0.3,-1.4 l -0.6,-2.9 -0.6,-3.6 -0.4,-1.4 c 0.1,0 0,-0.5 -0.3,-1.4 0.1,0 0,-0.5 -0.3,-1.3 z"
       id="path324" /><path
       fill="#ffdb28"
       stroke="#010202"
       stroke-width="1.4"
       stroke-miterlimit="10"
       d="m 141.4,107 a 11.7,11.7 0 0 1 6.5,2.5 l 2,-0.5 1.2,-0.2 1,-0.3 1.2,-0.3 c 0.5,1 1,2.6 1.3,5 a 23.5,23.5 0 0 1 0.5,6.5 c 0.1,0 0.2,0.6 0.1,1.7 v 0.6 l -0.8,4.1 -0.7,2.8 -0.6,1.5 -0.4,1.1 c -0.2,0 -0.3,0.3 -0.5,1 0,0 -0.3,0.3 -0.5,0.9 l -0.8,1.4 a 27,27 0 0 1 -3.9,4.4 17,17 0 0 1 -6.6,3 c 0,0.2 -0.5,0.2 -1.6,0.2 l -1.2,0.2 -0.1,-0.1 H 136 l -1,-0.2 h -0.2 c -1,-0.4 -1.7,-0.6 -2.4,-0.7 0,0 -0.4,-0.3 -1.3,-0.5 0,-0.1 -0.3,-0.3 -1,-0.5 0,-0.2 -0.2,-0.3 -0.6,-0.4 l -1.2,-1 a 12.1,12.1 0 0 1 -2.8,-3.5 10.6,10.6 0 0 1 -1.3,-3 l -0.4,-1.6 a 8,8 0 0 1 -0.3,-2.3 24.7,24.7 0 0 1 1,-9.3 l 1,-2.5 a 18.3,18.3 0 0 1 12.2,-9.9 l 1.4,-0.2 z m -9.5,16.3 -0.2,2.4 a 11.7,11.7 0 0 0 1,4.8 8,8 0 0 0 1.8,2 c 0.7,0.5 1.3,0.7 2,0.8 l 1,0.2 c 1.1,0 2,0 2.4,-0.3 0.3,0 0.8,-0.2 1.6,-0.6 1.2,-1 2,-1.7 2.3,-2.2 a 20,20 0 0 0 2.8,-6.6 l 0.3,-3.7 a 25,25 0 0 0 -0.5,-3.5 h -0.3 c -0.7,0.4 -1.4,0.6 -1.9,0.6 a 5.3,5.3 0 0 0 -2.7,-1.9 l -2.5,-0.2 -2.3,0.7 c -1.9,1.3 -2.8,2.2 -2.9,2.8 -0.4,0.3 -0.8,1.1 -1.3,2.4 z"
       id="path326" /><path
       fill="#ffdb28"
       stroke="#010202"
       stroke-width="1.4"
       stroke-miterlimit="10"
       d="m 168.6,110.9 a 26,26 0 0 1 10.2,3 c 1.2,0.7 2,1.5 2.6,2.4 0.7,1.2 1,2 1,2.8 0.1,0 0.2,0.5 0.1,1.5 a 9.6,9.6 0 0 1 -2.8,5.7 12.6,12.6 0 0 1 -3.5,2.7 15.7,15.7 0 0 1 -6.3,2.3 v 0.2 a 55.4,55.4 0 0 0 6,6.6 42,42 0 0 0 3.8,3.7 v 0.4 c -1,0.9 -1.4,1.4 -1.4,1.6 l -3.1,3 -0.8,0.5 h -0.1 c -2.3,-2.2 -5.8,-6 -10.5,-11.4 l -2.2,-3 v 0.1 h -0.1 l -0.1,1.7 -1,9.5 -0.3,0.3 -8.3,-0.8 -0.2,-0.2 1.4,-11.5 c 0.4,-4.3 0.5,-7 0.5,-8 l 0.3,-3.2 v -0.5 h -0.2 c -0.2,0.2 -0.7,0.3 -1.4,0.4 L 151,121 c 0,0 -0.1,0.1 -0.4,0 h -0.1 v -1 a 67,67 0 0 0 0.1,-7 l 1.7,-0.3 c 0.2,-0.2 0.7,-0.3 1.4,-0.4 l 2.5,-0.6 1,-0.2 c 0,-0.1 0.6,-0.2 1.6,-0.2 0.2,-0.1 1.3,-0.3 3.4,-0.5 l 3.1,-0.3 3.3,0.3 z m -6.5,7.4 v 0.7 l -0.2,1.4 a 25,25 0 0 0 0,3.8 l -0.1,0.3 v 1.2 l 0.1,0.2 h 0.1 l 1.6,-0.2 c 0.4,0 0.9,0 1.6,-0.2 a 15.2,15.2 0 0 0 6.2,-2.4 c 0.7,-0.6 1,-1.2 1,-1.8 l 0.2,-0.3 v -0.5 c -0.2,-0.7 -0.5,-1.2 -1,-1.5 -0.2,-0.3 -1.2,-0.6 -3,-1 -3.7,-0.1 -5.6,0 -5.6,0.2 h -1 z"
       id="path328" /><path
       fill="#ffdb28"
       stroke="#010202"
       stroke-width="1.4"
       stroke-miterlimit="10"
       d="m 205.6,121.7 0.8,0.4 1.5,0.7 c 0.2,0.1 0.2,0.2 0.1,0.4 a 40.5,40.5 0 0 0 -4.3,5.8 l -0.8,0.4 -0.8,-0.4 -3.4,-1.2 c -0.1,0.2 -0.7,0 -1.9,-0.5 -0.6,-0.2 -1,-0.1 -1,0 v 0.2 a 72.9,72.9 0 0 0 -6.4,10.3 181,181 0 0 0 -6.4,11.5 c -0.8,0 -1.7,-0.2 -2.6,-0.7 -0.7,0 -1.5,-0.3 -2.3,-0.7 -0.3,0 -1.2,-0.2 -2.7,-0.9 0,0 -0.5,0 -1.5,-0.4 v -0.4 l 2,-3 c 0.6,-0.7 1,-1.4 1.3,-2 0.8,-1 1.6,-2.2 2.3,-3.6 a 95.4,95.4 0 0 0 6.3,-10.3 l 1.1,-1.7 v -0.3 l 1,-1.2 -0.1,-0.1 c -0.1,0.1 -1,-0.2 -2.5,-0.8 -0.2,0 -0.8,-0.1 -1.9,-0.6 -0.6,0 -1.3,-0.3 -2.3,-0.6 l -3.4,-0.7 -0.3,-0.2 v -0.3 c 0.4,-0.4 1,-1.1 1.4,-2 0.5,-0.5 1,-1.3 1.8,-2.7 0.5,-0.5 1.1,-1.4 1.8,-2.8 0.4,-0.3 1.2,-0.1 2.5,0.5 l 3.4,1.2 c 0,-0.1 1.1,0.3 3.2,1.2 l 4,1.5 c 0.3,0 1.5,0.5 3.8,1.5 0.5,0.1 2,0.7 4.5,2 z"
       id="path330" /></g></svg>
